M48
; DRILL file {KiCad (5.1.4)-1} date 27.07.2020 08:05:25
; FORMAT={-:-/ absolute / inch / decimal}
; #@! TF.CreationDate,2020-07-27T08:05:25+02:00
; #@! TF.GenerationSoftware,Kicad,Pcbnew,(5.1.4)-1
FMAT,2
INCH
T1C0.0118
%
G90
G05
T1
X3.9567Y-4.0394
X3.9608Y-4.0786
X3.9724Y-3.9173
X3.9921Y-3.9921
X4.002Y-4.3032
X4.002Y-4.3406
X4.0118Y-4.0827
X4.0177Y-3.8524
X4.0768Y-3.3858
X4.0768Y-3.686
X4.0827Y-3.7756
X4.0846Y-3.8366
X4.0886Y-4.0098
X4.1063Y-4.0945
X4.1693Y-3.7421
X4.187Y-3.7854
X4.187Y-3.8169
X4.187Y-3.8484
X4.187Y-3.8799
X4.187Y-3.9114
X4.187Y-3.9744
X4.2362Y-3.8307
X4.2658Y-4.0098
X4.2951Y-3.9469
X4.3189Y-4.3287
X4.3701Y-3.9134
X4.3701Y-3.9783
X4.3701Y-4.0413
X4.4272Y-3.9114
X4.4291Y-3.9783
X4.4291Y-4.0413
X4.4783Y-4.3287
X4.4843Y-3.9114
X4.4862Y-3.7362
X4.4862Y-3.9783
X4.4862Y-4.0413
X4.5177Y-3.7362
X4.5492Y-3.7362
X4.5984Y-3.8484
X4.5984Y-3.9429
X4.6024Y-4.1437
X4.6378Y-3.5984
X4.6457Y-4.2776
T0
M30
