G04 #@! TF.GenerationSoftware,KiCad,Pcbnew,(5.1.4)-1*
G04 #@! TF.CreationDate,2020-07-27T08:05:22+02:00*
G04 #@! TF.ProjectId,HM-ES-PMSw1-Pl_GosundSP1,484d2d45-532d-4504-9d53-77312d506c5f,rev?*
G04 #@! TF.SameCoordinates,Original*
G04 #@! TF.FileFunction,Soldermask,Top*
G04 #@! TF.FilePolarity,Negative*
%FSLAX46Y46*%
G04 Gerber Fmt 4.6, Leading zero omitted, Abs format (unit mm)*
G04 Created by KiCad (PCBNEW (5.1.4)-1) date 2020-07-27 08:05:22*
%MOMM*%
%LPD*%
G04 APERTURE LIST*
%ADD10R,3.400000X1.416000*%
%ADD11C,0.100000*%
%ADD12C,1.550000*%
%ADD13R,0.950000X1.900000*%
%ADD14R,1.900000X0.950000*%
%ADD15R,0.800000X2.500000*%
%ADD16R,2.400000X1.400000*%
G04 APERTURE END LIST*
D10*
X97900080Y-105628080D03*
X97900080Y-107660080D03*
X97900080Y-103596080D03*
X97900080Y-101564080D03*
X97900080Y-99532080D03*
X97900080Y-97500080D03*
D11*
G36*
X104096151Y-100851703D02*
G01*
X104128861Y-100856555D01*
X104160937Y-100864589D01*
X104192071Y-100875729D01*
X104221964Y-100889867D01*
X104250327Y-100906867D01*
X104276887Y-100926565D01*
X104301388Y-100948772D01*
X104323595Y-100973273D01*
X104343293Y-100999833D01*
X104360293Y-101028196D01*
X104374431Y-101058089D01*
X104385571Y-101089223D01*
X104393605Y-101121299D01*
X104398457Y-101154009D01*
X104400080Y-101187036D01*
X104400080Y-102063124D01*
X104398457Y-102096151D01*
X104393605Y-102128861D01*
X104385571Y-102160937D01*
X104374431Y-102192071D01*
X104360293Y-102221964D01*
X104343293Y-102250327D01*
X104323595Y-102276887D01*
X104301388Y-102301388D01*
X104276887Y-102323595D01*
X104250327Y-102343293D01*
X104221964Y-102360293D01*
X104192071Y-102374431D01*
X104160937Y-102385571D01*
X104128861Y-102393605D01*
X104096151Y-102398457D01*
X104063124Y-102400080D01*
X102937036Y-102400080D01*
X102904009Y-102398457D01*
X102871299Y-102393605D01*
X102839223Y-102385571D01*
X102808089Y-102374431D01*
X102778196Y-102360293D01*
X102749833Y-102343293D01*
X102723273Y-102323595D01*
X102698772Y-102301388D01*
X102676565Y-102276887D01*
X102656867Y-102250327D01*
X102639867Y-102221964D01*
X102625729Y-102192071D01*
X102614589Y-102160937D01*
X102606555Y-102128861D01*
X102601703Y-102096151D01*
X102600080Y-102063124D01*
X102600080Y-101187036D01*
X102601703Y-101154009D01*
X102606555Y-101121299D01*
X102614589Y-101089223D01*
X102625729Y-101058089D01*
X102639867Y-101028196D01*
X102656867Y-100999833D01*
X102676565Y-100973273D01*
X102698772Y-100948772D01*
X102723273Y-100926565D01*
X102749833Y-100906867D01*
X102778196Y-100889867D01*
X102808089Y-100875729D01*
X102839223Y-100864589D01*
X102871299Y-100856555D01*
X102904009Y-100851703D01*
X102937036Y-100850080D01*
X104063124Y-100850080D01*
X104096151Y-100851703D01*
X104096151Y-100851703D01*
G37*
D12*
X103500080Y-101625080D03*
D11*
G36*
X104096151Y-98801703D02*
G01*
X104128861Y-98806555D01*
X104160937Y-98814589D01*
X104192071Y-98825729D01*
X104221964Y-98839867D01*
X104250327Y-98856867D01*
X104276887Y-98876565D01*
X104301388Y-98898772D01*
X104323595Y-98923273D01*
X104343293Y-98949833D01*
X104360293Y-98978196D01*
X104374431Y-99008089D01*
X104385571Y-99039223D01*
X104393605Y-99071299D01*
X104398457Y-99104009D01*
X104400080Y-99137036D01*
X104400080Y-100013124D01*
X104398457Y-100046151D01*
X104393605Y-100078861D01*
X104385571Y-100110937D01*
X104374431Y-100142071D01*
X104360293Y-100171964D01*
X104343293Y-100200327D01*
X104323595Y-100226887D01*
X104301388Y-100251388D01*
X104276887Y-100273595D01*
X104250327Y-100293293D01*
X104221964Y-100310293D01*
X104192071Y-100324431D01*
X104160937Y-100335571D01*
X104128861Y-100343605D01*
X104096151Y-100348457D01*
X104063124Y-100350080D01*
X102937036Y-100350080D01*
X102904009Y-100348457D01*
X102871299Y-100343605D01*
X102839223Y-100335571D01*
X102808089Y-100324431D01*
X102778196Y-100310293D01*
X102749833Y-100293293D01*
X102723273Y-100273595D01*
X102698772Y-100251388D01*
X102676565Y-100226887D01*
X102656867Y-100200327D01*
X102639867Y-100171964D01*
X102625729Y-100142071D01*
X102614589Y-100110937D01*
X102606555Y-100078861D01*
X102601703Y-100046151D01*
X102600080Y-100013124D01*
X102600080Y-99137036D01*
X102601703Y-99104009D01*
X102606555Y-99071299D01*
X102614589Y-99039223D01*
X102625729Y-99008089D01*
X102639867Y-98978196D01*
X102656867Y-98949833D01*
X102676565Y-98923273D01*
X102698772Y-98898772D01*
X102723273Y-98876565D01*
X102749833Y-98856867D01*
X102778196Y-98839867D01*
X102808089Y-98825729D01*
X102839223Y-98814589D01*
X102871299Y-98806555D01*
X102904009Y-98801703D01*
X102937036Y-98800080D01*
X104063124Y-98800080D01*
X104096151Y-98801703D01*
X104096151Y-98801703D01*
G37*
D12*
X103500080Y-99575080D03*
D11*
G36*
X111346151Y-90901703D02*
G01*
X111378861Y-90906555D01*
X111410937Y-90914589D01*
X111442071Y-90925729D01*
X111471964Y-90939867D01*
X111500327Y-90956867D01*
X111526887Y-90976565D01*
X111551388Y-90998772D01*
X111573595Y-91023273D01*
X111593293Y-91049833D01*
X111610293Y-91078196D01*
X111624431Y-91108089D01*
X111635571Y-91139223D01*
X111643605Y-91171299D01*
X111648457Y-91204009D01*
X111650080Y-91237036D01*
X111650080Y-92363124D01*
X111648457Y-92396151D01*
X111643605Y-92428861D01*
X111635571Y-92460937D01*
X111624431Y-92492071D01*
X111610293Y-92521964D01*
X111593293Y-92550327D01*
X111573595Y-92576887D01*
X111551388Y-92601388D01*
X111526887Y-92623595D01*
X111500327Y-92643293D01*
X111471964Y-92660293D01*
X111442071Y-92674431D01*
X111410937Y-92685571D01*
X111378861Y-92693605D01*
X111346151Y-92698457D01*
X111313124Y-92700080D01*
X110437036Y-92700080D01*
X110404009Y-92698457D01*
X110371299Y-92693605D01*
X110339223Y-92685571D01*
X110308089Y-92674431D01*
X110278196Y-92660293D01*
X110249833Y-92643293D01*
X110223273Y-92623595D01*
X110198772Y-92601388D01*
X110176565Y-92576887D01*
X110156867Y-92550327D01*
X110139867Y-92521964D01*
X110125729Y-92492071D01*
X110114589Y-92460937D01*
X110106555Y-92428861D01*
X110101703Y-92396151D01*
X110100080Y-92363124D01*
X110100080Y-91237036D01*
X110101703Y-91204009D01*
X110106555Y-91171299D01*
X110114589Y-91139223D01*
X110125729Y-91108089D01*
X110139867Y-91078196D01*
X110156867Y-91049833D01*
X110176565Y-91023273D01*
X110198772Y-90998772D01*
X110223273Y-90976565D01*
X110249833Y-90956867D01*
X110278196Y-90939867D01*
X110308089Y-90925729D01*
X110339223Y-90914589D01*
X110371299Y-90906555D01*
X110404009Y-90901703D01*
X110437036Y-90900080D01*
X111313124Y-90900080D01*
X111346151Y-90901703D01*
X111346151Y-90901703D01*
G37*
D12*
X110875080Y-91800080D03*
D11*
G36*
X113396151Y-90901703D02*
G01*
X113428861Y-90906555D01*
X113460937Y-90914589D01*
X113492071Y-90925729D01*
X113521964Y-90939867D01*
X113550327Y-90956867D01*
X113576887Y-90976565D01*
X113601388Y-90998772D01*
X113623595Y-91023273D01*
X113643293Y-91049833D01*
X113660293Y-91078196D01*
X113674431Y-91108089D01*
X113685571Y-91139223D01*
X113693605Y-91171299D01*
X113698457Y-91204009D01*
X113700080Y-91237036D01*
X113700080Y-92363124D01*
X113698457Y-92396151D01*
X113693605Y-92428861D01*
X113685571Y-92460937D01*
X113674431Y-92492071D01*
X113660293Y-92521964D01*
X113643293Y-92550327D01*
X113623595Y-92576887D01*
X113601388Y-92601388D01*
X113576887Y-92623595D01*
X113550327Y-92643293D01*
X113521964Y-92660293D01*
X113492071Y-92674431D01*
X113460937Y-92685571D01*
X113428861Y-92693605D01*
X113396151Y-92698457D01*
X113363124Y-92700080D01*
X112487036Y-92700080D01*
X112454009Y-92698457D01*
X112421299Y-92693605D01*
X112389223Y-92685571D01*
X112358089Y-92674431D01*
X112328196Y-92660293D01*
X112299833Y-92643293D01*
X112273273Y-92623595D01*
X112248772Y-92601388D01*
X112226565Y-92576887D01*
X112206867Y-92550327D01*
X112189867Y-92521964D01*
X112175729Y-92492071D01*
X112164589Y-92460937D01*
X112156555Y-92428861D01*
X112151703Y-92396151D01*
X112150080Y-92363124D01*
X112150080Y-91237036D01*
X112151703Y-91204009D01*
X112156555Y-91171299D01*
X112164589Y-91139223D01*
X112175729Y-91108089D01*
X112189867Y-91078196D01*
X112206867Y-91049833D01*
X112226565Y-91023273D01*
X112248772Y-90998772D01*
X112273273Y-90976565D01*
X112299833Y-90956867D01*
X112328196Y-90939867D01*
X112358089Y-90925729D01*
X112389223Y-90914589D01*
X112421299Y-90906555D01*
X112454009Y-90901703D01*
X112487036Y-90900080D01*
X113363124Y-90900080D01*
X113396151Y-90901703D01*
X113396151Y-90901703D01*
G37*
D12*
X112925080Y-91800080D03*
D11*
G36*
X108096151Y-89001703D02*
G01*
X108128861Y-89006555D01*
X108160937Y-89014589D01*
X108192071Y-89025729D01*
X108221964Y-89039867D01*
X108250327Y-89056867D01*
X108276887Y-89076565D01*
X108301388Y-89098772D01*
X108323595Y-89123273D01*
X108343293Y-89149833D01*
X108360293Y-89178196D01*
X108374431Y-89208089D01*
X108385571Y-89239223D01*
X108393605Y-89271299D01*
X108398457Y-89304009D01*
X108400080Y-89337036D01*
X108400080Y-90463124D01*
X108398457Y-90496151D01*
X108393605Y-90528861D01*
X108385571Y-90560937D01*
X108374431Y-90592071D01*
X108360293Y-90621964D01*
X108343293Y-90650327D01*
X108323595Y-90676887D01*
X108301388Y-90701388D01*
X108276887Y-90723595D01*
X108250327Y-90743293D01*
X108221964Y-90760293D01*
X108192071Y-90774431D01*
X108160937Y-90785571D01*
X108128861Y-90793605D01*
X108096151Y-90798457D01*
X108063124Y-90800080D01*
X107187036Y-90800080D01*
X107154009Y-90798457D01*
X107121299Y-90793605D01*
X107089223Y-90785571D01*
X107058089Y-90774431D01*
X107028196Y-90760293D01*
X106999833Y-90743293D01*
X106973273Y-90723595D01*
X106948772Y-90701388D01*
X106926565Y-90676887D01*
X106906867Y-90650327D01*
X106889867Y-90621964D01*
X106875729Y-90592071D01*
X106864589Y-90560937D01*
X106856555Y-90528861D01*
X106851703Y-90496151D01*
X106850080Y-90463124D01*
X106850080Y-89337036D01*
X106851703Y-89304009D01*
X106856555Y-89271299D01*
X106864589Y-89239223D01*
X106875729Y-89208089D01*
X106889867Y-89178196D01*
X106906867Y-89149833D01*
X106926565Y-89123273D01*
X106948772Y-89098772D01*
X106973273Y-89076565D01*
X106999833Y-89056867D01*
X107028196Y-89039867D01*
X107058089Y-89025729D01*
X107089223Y-89014589D01*
X107121299Y-89006555D01*
X107154009Y-89001703D01*
X107187036Y-89000080D01*
X108063124Y-89000080D01*
X108096151Y-89001703D01*
X108096151Y-89001703D01*
G37*
D12*
X107625080Y-89900080D03*
D11*
G36*
X110146151Y-89001703D02*
G01*
X110178861Y-89006555D01*
X110210937Y-89014589D01*
X110242071Y-89025729D01*
X110271964Y-89039867D01*
X110300327Y-89056867D01*
X110326887Y-89076565D01*
X110351388Y-89098772D01*
X110373595Y-89123273D01*
X110393293Y-89149833D01*
X110410293Y-89178196D01*
X110424431Y-89208089D01*
X110435571Y-89239223D01*
X110443605Y-89271299D01*
X110448457Y-89304009D01*
X110450080Y-89337036D01*
X110450080Y-90463124D01*
X110448457Y-90496151D01*
X110443605Y-90528861D01*
X110435571Y-90560937D01*
X110424431Y-90592071D01*
X110410293Y-90621964D01*
X110393293Y-90650327D01*
X110373595Y-90676887D01*
X110351388Y-90701388D01*
X110326887Y-90723595D01*
X110300327Y-90743293D01*
X110271964Y-90760293D01*
X110242071Y-90774431D01*
X110210937Y-90785571D01*
X110178861Y-90793605D01*
X110146151Y-90798457D01*
X110113124Y-90800080D01*
X109237036Y-90800080D01*
X109204009Y-90798457D01*
X109171299Y-90793605D01*
X109139223Y-90785571D01*
X109108089Y-90774431D01*
X109078196Y-90760293D01*
X109049833Y-90743293D01*
X109023273Y-90723595D01*
X108998772Y-90701388D01*
X108976565Y-90676887D01*
X108956867Y-90650327D01*
X108939867Y-90621964D01*
X108925729Y-90592071D01*
X108914589Y-90560937D01*
X108906555Y-90528861D01*
X108901703Y-90496151D01*
X108900080Y-90463124D01*
X108900080Y-89337036D01*
X108901703Y-89304009D01*
X108906555Y-89271299D01*
X108914589Y-89239223D01*
X108925729Y-89208089D01*
X108939867Y-89178196D01*
X108956867Y-89149833D01*
X108976565Y-89123273D01*
X108998772Y-89098772D01*
X109023273Y-89076565D01*
X109049833Y-89056867D01*
X109078196Y-89039867D01*
X109108089Y-89025729D01*
X109139223Y-89014589D01*
X109171299Y-89006555D01*
X109204009Y-89001703D01*
X109237036Y-89000080D01*
X110113124Y-89000080D01*
X110146151Y-89001703D01*
X110146151Y-89001703D01*
G37*
D12*
X109675080Y-89900080D03*
D11*
G36*
X115346151Y-88201703D02*
G01*
X115378861Y-88206555D01*
X115410937Y-88214589D01*
X115442071Y-88225729D01*
X115471964Y-88239867D01*
X115500327Y-88256867D01*
X115526887Y-88276565D01*
X115551388Y-88298772D01*
X115573595Y-88323273D01*
X115593293Y-88349833D01*
X115610293Y-88378196D01*
X115624431Y-88408089D01*
X115635571Y-88439223D01*
X115643605Y-88471299D01*
X115648457Y-88504009D01*
X115650080Y-88537036D01*
X115650080Y-89663124D01*
X115648457Y-89696151D01*
X115643605Y-89728861D01*
X115635571Y-89760937D01*
X115624431Y-89792071D01*
X115610293Y-89821964D01*
X115593293Y-89850327D01*
X115573595Y-89876887D01*
X115551388Y-89901388D01*
X115526887Y-89923595D01*
X115500327Y-89943293D01*
X115471964Y-89960293D01*
X115442071Y-89974431D01*
X115410937Y-89985571D01*
X115378861Y-89993605D01*
X115346151Y-89998457D01*
X115313124Y-90000080D01*
X114437036Y-90000080D01*
X114404009Y-89998457D01*
X114371299Y-89993605D01*
X114339223Y-89985571D01*
X114308089Y-89974431D01*
X114278196Y-89960293D01*
X114249833Y-89943293D01*
X114223273Y-89923595D01*
X114198772Y-89901388D01*
X114176565Y-89876887D01*
X114156867Y-89850327D01*
X114139867Y-89821964D01*
X114125729Y-89792071D01*
X114114589Y-89760937D01*
X114106555Y-89728861D01*
X114101703Y-89696151D01*
X114100080Y-89663124D01*
X114100080Y-88537036D01*
X114101703Y-88504009D01*
X114106555Y-88471299D01*
X114114589Y-88439223D01*
X114125729Y-88408089D01*
X114139867Y-88378196D01*
X114156867Y-88349833D01*
X114176565Y-88323273D01*
X114198772Y-88298772D01*
X114223273Y-88276565D01*
X114249833Y-88256867D01*
X114278196Y-88239867D01*
X114308089Y-88225729D01*
X114339223Y-88214589D01*
X114371299Y-88206555D01*
X114404009Y-88201703D01*
X114437036Y-88200080D01*
X115313124Y-88200080D01*
X115346151Y-88201703D01*
X115346151Y-88201703D01*
G37*
D12*
X114875080Y-89100080D03*
D11*
G36*
X113296151Y-88201703D02*
G01*
X113328861Y-88206555D01*
X113360937Y-88214589D01*
X113392071Y-88225729D01*
X113421964Y-88239867D01*
X113450327Y-88256867D01*
X113476887Y-88276565D01*
X113501388Y-88298772D01*
X113523595Y-88323273D01*
X113543293Y-88349833D01*
X113560293Y-88378196D01*
X113574431Y-88408089D01*
X113585571Y-88439223D01*
X113593605Y-88471299D01*
X113598457Y-88504009D01*
X113600080Y-88537036D01*
X113600080Y-89663124D01*
X113598457Y-89696151D01*
X113593605Y-89728861D01*
X113585571Y-89760937D01*
X113574431Y-89792071D01*
X113560293Y-89821964D01*
X113543293Y-89850327D01*
X113523595Y-89876887D01*
X113501388Y-89901388D01*
X113476887Y-89923595D01*
X113450327Y-89943293D01*
X113421964Y-89960293D01*
X113392071Y-89974431D01*
X113360937Y-89985571D01*
X113328861Y-89993605D01*
X113296151Y-89998457D01*
X113263124Y-90000080D01*
X112387036Y-90000080D01*
X112354009Y-89998457D01*
X112321299Y-89993605D01*
X112289223Y-89985571D01*
X112258089Y-89974431D01*
X112228196Y-89960293D01*
X112199833Y-89943293D01*
X112173273Y-89923595D01*
X112148772Y-89901388D01*
X112126565Y-89876887D01*
X112106867Y-89850327D01*
X112089867Y-89821964D01*
X112075729Y-89792071D01*
X112064589Y-89760937D01*
X112056555Y-89728861D01*
X112051703Y-89696151D01*
X112050080Y-89663124D01*
X112050080Y-88537036D01*
X112051703Y-88504009D01*
X112056555Y-88471299D01*
X112064589Y-88439223D01*
X112075729Y-88408089D01*
X112089867Y-88378196D01*
X112106867Y-88349833D01*
X112126565Y-88323273D01*
X112148772Y-88298772D01*
X112173273Y-88276565D01*
X112199833Y-88256867D01*
X112228196Y-88239867D01*
X112258089Y-88225729D01*
X112289223Y-88214589D01*
X112321299Y-88206555D01*
X112354009Y-88201703D01*
X112387036Y-88200080D01*
X113263124Y-88200080D01*
X113296151Y-88201703D01*
X113296151Y-88201703D01*
G37*
D12*
X112825080Y-89100080D03*
D11*
G36*
X106046151Y-84951703D02*
G01*
X106078861Y-84956555D01*
X106110937Y-84964589D01*
X106142071Y-84975729D01*
X106171964Y-84989867D01*
X106200327Y-85006867D01*
X106226887Y-85026565D01*
X106251388Y-85048772D01*
X106273595Y-85073273D01*
X106293293Y-85099833D01*
X106310293Y-85128196D01*
X106324431Y-85158089D01*
X106335571Y-85189223D01*
X106343605Y-85221299D01*
X106348457Y-85254009D01*
X106350080Y-85287036D01*
X106350080Y-86413124D01*
X106348457Y-86446151D01*
X106343605Y-86478861D01*
X106335571Y-86510937D01*
X106324431Y-86542071D01*
X106310293Y-86571964D01*
X106293293Y-86600327D01*
X106273595Y-86626887D01*
X106251388Y-86651388D01*
X106226887Y-86673595D01*
X106200327Y-86693293D01*
X106171964Y-86710293D01*
X106142071Y-86724431D01*
X106110937Y-86735571D01*
X106078861Y-86743605D01*
X106046151Y-86748457D01*
X106013124Y-86750080D01*
X105137036Y-86750080D01*
X105104009Y-86748457D01*
X105071299Y-86743605D01*
X105039223Y-86735571D01*
X105008089Y-86724431D01*
X104978196Y-86710293D01*
X104949833Y-86693293D01*
X104923273Y-86673595D01*
X104898772Y-86651388D01*
X104876565Y-86626887D01*
X104856867Y-86600327D01*
X104839867Y-86571964D01*
X104825729Y-86542071D01*
X104814589Y-86510937D01*
X104806555Y-86478861D01*
X104801703Y-86446151D01*
X104800080Y-86413124D01*
X104800080Y-85287036D01*
X104801703Y-85254009D01*
X104806555Y-85221299D01*
X104814589Y-85189223D01*
X104825729Y-85158089D01*
X104839867Y-85128196D01*
X104856867Y-85099833D01*
X104876565Y-85073273D01*
X104898772Y-85048772D01*
X104923273Y-85026565D01*
X104949833Y-85006867D01*
X104978196Y-84989867D01*
X105008089Y-84975729D01*
X105039223Y-84964589D01*
X105071299Y-84956555D01*
X105104009Y-84951703D01*
X105137036Y-84950080D01*
X106013124Y-84950080D01*
X106046151Y-84951703D01*
X106046151Y-84951703D01*
G37*
D12*
X105575080Y-85850080D03*
D11*
G36*
X103996151Y-84951703D02*
G01*
X104028861Y-84956555D01*
X104060937Y-84964589D01*
X104092071Y-84975729D01*
X104121964Y-84989867D01*
X104150327Y-85006867D01*
X104176887Y-85026565D01*
X104201388Y-85048772D01*
X104223595Y-85073273D01*
X104243293Y-85099833D01*
X104260293Y-85128196D01*
X104274431Y-85158089D01*
X104285571Y-85189223D01*
X104293605Y-85221299D01*
X104298457Y-85254009D01*
X104300080Y-85287036D01*
X104300080Y-86413124D01*
X104298457Y-86446151D01*
X104293605Y-86478861D01*
X104285571Y-86510937D01*
X104274431Y-86542071D01*
X104260293Y-86571964D01*
X104243293Y-86600327D01*
X104223595Y-86626887D01*
X104201388Y-86651388D01*
X104176887Y-86673595D01*
X104150327Y-86693293D01*
X104121964Y-86710293D01*
X104092071Y-86724431D01*
X104060937Y-86735571D01*
X104028861Y-86743605D01*
X103996151Y-86748457D01*
X103963124Y-86750080D01*
X103087036Y-86750080D01*
X103054009Y-86748457D01*
X103021299Y-86743605D01*
X102989223Y-86735571D01*
X102958089Y-86724431D01*
X102928196Y-86710293D01*
X102899833Y-86693293D01*
X102873273Y-86673595D01*
X102848772Y-86651388D01*
X102826565Y-86626887D01*
X102806867Y-86600327D01*
X102789867Y-86571964D01*
X102775729Y-86542071D01*
X102764589Y-86510937D01*
X102756555Y-86478861D01*
X102751703Y-86446151D01*
X102750080Y-86413124D01*
X102750080Y-85287036D01*
X102751703Y-85254009D01*
X102756555Y-85221299D01*
X102764589Y-85189223D01*
X102775729Y-85158089D01*
X102789867Y-85128196D01*
X102806867Y-85099833D01*
X102826565Y-85073273D01*
X102848772Y-85048772D01*
X102873273Y-85026565D01*
X102899833Y-85006867D01*
X102928196Y-84989867D01*
X102958089Y-84975729D01*
X102989223Y-84964589D01*
X103021299Y-84956555D01*
X103054009Y-84951703D01*
X103087036Y-84950080D01*
X103963124Y-84950080D01*
X103996151Y-84951703D01*
X103996151Y-84951703D01*
G37*
D12*
X103525080Y-85850080D03*
D11*
G36*
X118546151Y-107801703D02*
G01*
X118578861Y-107806555D01*
X118610937Y-107814589D01*
X118642071Y-107825729D01*
X118671964Y-107839867D01*
X118700327Y-107856867D01*
X118726887Y-107876565D01*
X118751388Y-107898772D01*
X118773595Y-107923273D01*
X118793293Y-107949833D01*
X118810293Y-107978196D01*
X118824431Y-108008089D01*
X118835571Y-108039223D01*
X118843605Y-108071299D01*
X118848457Y-108104009D01*
X118850080Y-108137036D01*
X118850080Y-109013124D01*
X118848457Y-109046151D01*
X118843605Y-109078861D01*
X118835571Y-109110937D01*
X118824431Y-109142071D01*
X118810293Y-109171964D01*
X118793293Y-109200327D01*
X118773595Y-109226887D01*
X118751388Y-109251388D01*
X118726887Y-109273595D01*
X118700327Y-109293293D01*
X118671964Y-109310293D01*
X118642071Y-109324431D01*
X118610937Y-109335571D01*
X118578861Y-109343605D01*
X118546151Y-109348457D01*
X118513124Y-109350080D01*
X117387036Y-109350080D01*
X117354009Y-109348457D01*
X117321299Y-109343605D01*
X117289223Y-109335571D01*
X117258089Y-109324431D01*
X117228196Y-109310293D01*
X117199833Y-109293293D01*
X117173273Y-109273595D01*
X117148772Y-109251388D01*
X117126565Y-109226887D01*
X117106867Y-109200327D01*
X117089867Y-109171964D01*
X117075729Y-109142071D01*
X117064589Y-109110937D01*
X117056555Y-109078861D01*
X117051703Y-109046151D01*
X117050080Y-109013124D01*
X117050080Y-108137036D01*
X117051703Y-108104009D01*
X117056555Y-108071299D01*
X117064589Y-108039223D01*
X117075729Y-108008089D01*
X117089867Y-107978196D01*
X117106867Y-107949833D01*
X117126565Y-107923273D01*
X117148772Y-107898772D01*
X117173273Y-107876565D01*
X117199833Y-107856867D01*
X117228196Y-107839867D01*
X117258089Y-107825729D01*
X117289223Y-107814589D01*
X117321299Y-107806555D01*
X117354009Y-107801703D01*
X117387036Y-107800080D01*
X118513124Y-107800080D01*
X118546151Y-107801703D01*
X118546151Y-107801703D01*
G37*
D12*
X117950080Y-108575080D03*
D11*
G36*
X118546151Y-105751703D02*
G01*
X118578861Y-105756555D01*
X118610937Y-105764589D01*
X118642071Y-105775729D01*
X118671964Y-105789867D01*
X118700327Y-105806867D01*
X118726887Y-105826565D01*
X118751388Y-105848772D01*
X118773595Y-105873273D01*
X118793293Y-105899833D01*
X118810293Y-105928196D01*
X118824431Y-105958089D01*
X118835571Y-105989223D01*
X118843605Y-106021299D01*
X118848457Y-106054009D01*
X118850080Y-106087036D01*
X118850080Y-106963124D01*
X118848457Y-106996151D01*
X118843605Y-107028861D01*
X118835571Y-107060937D01*
X118824431Y-107092071D01*
X118810293Y-107121964D01*
X118793293Y-107150327D01*
X118773595Y-107176887D01*
X118751388Y-107201388D01*
X118726887Y-107223595D01*
X118700327Y-107243293D01*
X118671964Y-107260293D01*
X118642071Y-107274431D01*
X118610937Y-107285571D01*
X118578861Y-107293605D01*
X118546151Y-107298457D01*
X118513124Y-107300080D01*
X117387036Y-107300080D01*
X117354009Y-107298457D01*
X117321299Y-107293605D01*
X117289223Y-107285571D01*
X117258089Y-107274431D01*
X117228196Y-107260293D01*
X117199833Y-107243293D01*
X117173273Y-107223595D01*
X117148772Y-107201388D01*
X117126565Y-107176887D01*
X117106867Y-107150327D01*
X117089867Y-107121964D01*
X117075729Y-107092071D01*
X117064589Y-107060937D01*
X117056555Y-107028861D01*
X117051703Y-106996151D01*
X117050080Y-106963124D01*
X117050080Y-106087036D01*
X117051703Y-106054009D01*
X117056555Y-106021299D01*
X117064589Y-105989223D01*
X117075729Y-105958089D01*
X117089867Y-105928196D01*
X117106867Y-105899833D01*
X117126565Y-105873273D01*
X117148772Y-105848772D01*
X117173273Y-105826565D01*
X117199833Y-105806867D01*
X117228196Y-105789867D01*
X117258089Y-105775729D01*
X117289223Y-105764589D01*
X117321299Y-105756555D01*
X117354009Y-105751703D01*
X117387036Y-105750080D01*
X118513124Y-105750080D01*
X118546151Y-105751703D01*
X118546151Y-105751703D01*
G37*
D12*
X117950080Y-106525080D03*
D11*
G36*
X110146151Y-107451703D02*
G01*
X110178861Y-107456555D01*
X110210937Y-107464589D01*
X110242071Y-107475729D01*
X110271964Y-107489867D01*
X110300327Y-107506867D01*
X110326887Y-107526565D01*
X110351388Y-107548772D01*
X110373595Y-107573273D01*
X110393293Y-107599833D01*
X110410293Y-107628196D01*
X110424431Y-107658089D01*
X110435571Y-107689223D01*
X110443605Y-107721299D01*
X110448457Y-107754009D01*
X110450080Y-107787036D01*
X110450080Y-108913124D01*
X110448457Y-108946151D01*
X110443605Y-108978861D01*
X110435571Y-109010937D01*
X110424431Y-109042071D01*
X110410293Y-109071964D01*
X110393293Y-109100327D01*
X110373595Y-109126887D01*
X110351388Y-109151388D01*
X110326887Y-109173595D01*
X110300327Y-109193293D01*
X110271964Y-109210293D01*
X110242071Y-109224431D01*
X110210937Y-109235571D01*
X110178861Y-109243605D01*
X110146151Y-109248457D01*
X110113124Y-109250080D01*
X109237036Y-109250080D01*
X109204009Y-109248457D01*
X109171299Y-109243605D01*
X109139223Y-109235571D01*
X109108089Y-109224431D01*
X109078196Y-109210293D01*
X109049833Y-109193293D01*
X109023273Y-109173595D01*
X108998772Y-109151388D01*
X108976565Y-109126887D01*
X108956867Y-109100327D01*
X108939867Y-109071964D01*
X108925729Y-109042071D01*
X108914589Y-109010937D01*
X108906555Y-108978861D01*
X108901703Y-108946151D01*
X108900080Y-108913124D01*
X108900080Y-107787036D01*
X108901703Y-107754009D01*
X108906555Y-107721299D01*
X108914589Y-107689223D01*
X108925729Y-107658089D01*
X108939867Y-107628196D01*
X108956867Y-107599833D01*
X108976565Y-107573273D01*
X108998772Y-107548772D01*
X109023273Y-107526565D01*
X109049833Y-107506867D01*
X109078196Y-107489867D01*
X109108089Y-107475729D01*
X109139223Y-107464589D01*
X109171299Y-107456555D01*
X109204009Y-107451703D01*
X109237036Y-107450080D01*
X110113124Y-107450080D01*
X110146151Y-107451703D01*
X110146151Y-107451703D01*
G37*
D12*
X109675080Y-108350080D03*
D11*
G36*
X108096151Y-107451703D02*
G01*
X108128861Y-107456555D01*
X108160937Y-107464589D01*
X108192071Y-107475729D01*
X108221964Y-107489867D01*
X108250327Y-107506867D01*
X108276887Y-107526565D01*
X108301388Y-107548772D01*
X108323595Y-107573273D01*
X108343293Y-107599833D01*
X108360293Y-107628196D01*
X108374431Y-107658089D01*
X108385571Y-107689223D01*
X108393605Y-107721299D01*
X108398457Y-107754009D01*
X108400080Y-107787036D01*
X108400080Y-108913124D01*
X108398457Y-108946151D01*
X108393605Y-108978861D01*
X108385571Y-109010937D01*
X108374431Y-109042071D01*
X108360293Y-109071964D01*
X108343293Y-109100327D01*
X108323595Y-109126887D01*
X108301388Y-109151388D01*
X108276887Y-109173595D01*
X108250327Y-109193293D01*
X108221964Y-109210293D01*
X108192071Y-109224431D01*
X108160937Y-109235571D01*
X108128861Y-109243605D01*
X108096151Y-109248457D01*
X108063124Y-109250080D01*
X107187036Y-109250080D01*
X107154009Y-109248457D01*
X107121299Y-109243605D01*
X107089223Y-109235571D01*
X107058089Y-109224431D01*
X107028196Y-109210293D01*
X106999833Y-109193293D01*
X106973273Y-109173595D01*
X106948772Y-109151388D01*
X106926565Y-109126887D01*
X106906867Y-109100327D01*
X106889867Y-109071964D01*
X106875729Y-109042071D01*
X106864589Y-109010937D01*
X106856555Y-108978861D01*
X106851703Y-108946151D01*
X106850080Y-108913124D01*
X106850080Y-107787036D01*
X106851703Y-107754009D01*
X106856555Y-107721299D01*
X106864589Y-107689223D01*
X106875729Y-107658089D01*
X106889867Y-107628196D01*
X106906867Y-107599833D01*
X106926565Y-107573273D01*
X106948772Y-107548772D01*
X106973273Y-107526565D01*
X106999833Y-107506867D01*
X107028196Y-107489867D01*
X107058089Y-107475729D01*
X107089223Y-107464589D01*
X107121299Y-107456555D01*
X107154009Y-107451703D01*
X107187036Y-107450080D01*
X108063124Y-107450080D01*
X108096151Y-107451703D01*
X108096151Y-107451703D01*
G37*
D12*
X107625080Y-108350080D03*
D11*
G36*
X104496151Y-90651703D02*
G01*
X104528861Y-90656555D01*
X104560937Y-90664589D01*
X104592071Y-90675729D01*
X104621964Y-90689867D01*
X104650327Y-90706867D01*
X104676887Y-90726565D01*
X104701388Y-90748772D01*
X104723595Y-90773273D01*
X104743293Y-90799833D01*
X104760293Y-90828196D01*
X104774431Y-90858089D01*
X104785571Y-90889223D01*
X104793605Y-90921299D01*
X104798457Y-90954009D01*
X104800080Y-90987036D01*
X104800080Y-91863124D01*
X104798457Y-91896151D01*
X104793605Y-91928861D01*
X104785571Y-91960937D01*
X104774431Y-91992071D01*
X104760293Y-92021964D01*
X104743293Y-92050327D01*
X104723595Y-92076887D01*
X104701388Y-92101388D01*
X104676887Y-92123595D01*
X104650327Y-92143293D01*
X104621964Y-92160293D01*
X104592071Y-92174431D01*
X104560937Y-92185571D01*
X104528861Y-92193605D01*
X104496151Y-92198457D01*
X104463124Y-92200080D01*
X103337036Y-92200080D01*
X103304009Y-92198457D01*
X103271299Y-92193605D01*
X103239223Y-92185571D01*
X103208089Y-92174431D01*
X103178196Y-92160293D01*
X103149833Y-92143293D01*
X103123273Y-92123595D01*
X103098772Y-92101388D01*
X103076565Y-92076887D01*
X103056867Y-92050327D01*
X103039867Y-92021964D01*
X103025729Y-91992071D01*
X103014589Y-91960937D01*
X103006555Y-91928861D01*
X103001703Y-91896151D01*
X103000080Y-91863124D01*
X103000080Y-90987036D01*
X103001703Y-90954009D01*
X103006555Y-90921299D01*
X103014589Y-90889223D01*
X103025729Y-90858089D01*
X103039867Y-90828196D01*
X103056867Y-90799833D01*
X103076565Y-90773273D01*
X103098772Y-90748772D01*
X103123273Y-90726565D01*
X103149833Y-90706867D01*
X103178196Y-90689867D01*
X103208089Y-90675729D01*
X103239223Y-90664589D01*
X103271299Y-90656555D01*
X103304009Y-90651703D01*
X103337036Y-90650080D01*
X104463124Y-90650080D01*
X104496151Y-90651703D01*
X104496151Y-90651703D01*
G37*
D12*
X103900080Y-91425080D03*
D11*
G36*
X104496151Y-92701703D02*
G01*
X104528861Y-92706555D01*
X104560937Y-92714589D01*
X104592071Y-92725729D01*
X104621964Y-92739867D01*
X104650327Y-92756867D01*
X104676887Y-92776565D01*
X104701388Y-92798772D01*
X104723595Y-92823273D01*
X104743293Y-92849833D01*
X104760293Y-92878196D01*
X104774431Y-92908089D01*
X104785571Y-92939223D01*
X104793605Y-92971299D01*
X104798457Y-93004009D01*
X104800080Y-93037036D01*
X104800080Y-93913124D01*
X104798457Y-93946151D01*
X104793605Y-93978861D01*
X104785571Y-94010937D01*
X104774431Y-94042071D01*
X104760293Y-94071964D01*
X104743293Y-94100327D01*
X104723595Y-94126887D01*
X104701388Y-94151388D01*
X104676887Y-94173595D01*
X104650327Y-94193293D01*
X104621964Y-94210293D01*
X104592071Y-94224431D01*
X104560937Y-94235571D01*
X104528861Y-94243605D01*
X104496151Y-94248457D01*
X104463124Y-94250080D01*
X103337036Y-94250080D01*
X103304009Y-94248457D01*
X103271299Y-94243605D01*
X103239223Y-94235571D01*
X103208089Y-94224431D01*
X103178196Y-94210293D01*
X103149833Y-94193293D01*
X103123273Y-94173595D01*
X103098772Y-94151388D01*
X103076565Y-94126887D01*
X103056867Y-94100327D01*
X103039867Y-94071964D01*
X103025729Y-94042071D01*
X103014589Y-94010937D01*
X103006555Y-93978861D01*
X103001703Y-93946151D01*
X103000080Y-93913124D01*
X103000080Y-93037036D01*
X103001703Y-93004009D01*
X103006555Y-92971299D01*
X103014589Y-92939223D01*
X103025729Y-92908089D01*
X103039867Y-92878196D01*
X103056867Y-92849833D01*
X103076565Y-92823273D01*
X103098772Y-92798772D01*
X103123273Y-92776565D01*
X103149833Y-92756867D01*
X103178196Y-92739867D01*
X103208089Y-92725729D01*
X103239223Y-92714589D01*
X103271299Y-92706555D01*
X103304009Y-92701703D01*
X103337036Y-92700080D01*
X104463124Y-92700080D01*
X104496151Y-92701703D01*
X104496151Y-92701703D01*
G37*
D12*
X103900080Y-93475080D03*
D13*
X115550080Y-94450080D03*
X114750080Y-94450080D03*
X113950080Y-94450080D03*
X113150080Y-94450080D03*
X112350080Y-94450080D03*
X111550080Y-94450080D03*
X110750080Y-94450080D03*
X109950080Y-94450080D03*
X109150080Y-94450080D03*
X108350080Y-94450080D03*
X107550080Y-94450080D03*
D14*
X105850080Y-96150080D03*
X105850080Y-96950080D03*
X105850080Y-97750080D03*
X105850080Y-98550080D03*
X105850080Y-99350080D03*
X105850080Y-100150080D03*
X105850080Y-100950080D03*
X105850080Y-101750080D03*
X105850080Y-102550080D03*
X105850080Y-103350080D03*
X105850080Y-104150080D03*
D13*
X107550080Y-105850080D03*
X108350080Y-105850080D03*
X109150080Y-105850080D03*
X109950080Y-105850080D03*
X110750080Y-105850080D03*
X111550080Y-105850080D03*
X112350080Y-105850080D03*
X113150080Y-105850080D03*
X113950080Y-105850080D03*
X114750080Y-105850080D03*
X115550080Y-105850080D03*
D14*
X117250080Y-104150080D03*
X117250080Y-103350080D03*
X117250080Y-102550080D03*
X117250080Y-101750080D03*
X117250080Y-100950080D03*
X117250080Y-100150080D03*
X117250080Y-99350080D03*
X117250080Y-98550080D03*
X117250080Y-97750080D03*
X117250080Y-96950080D03*
X117250080Y-96150080D03*
D15*
X109800080Y-87350080D03*
X108600080Y-87350080D03*
X107400080Y-87350080D03*
D16*
X113300080Y-86900080D03*
M02*
