G04 #@! TF.GenerationSoftware,KiCad,Pcbnew,(5.1.4)-1*
G04 #@! TF.CreationDate,2020-07-27T08:05:22+02:00*
G04 #@! TF.ProjectId,HM-ES-PMSw1-Pl_GosundSP1,484d2d45-532d-4504-9d53-77312d506c5f,rev?*
G04 #@! TF.SameCoordinates,Original*
G04 #@! TF.FileFunction,Copper,L1,Top*
G04 #@! TF.FilePolarity,Positive*
%FSLAX46Y46*%
G04 Gerber Fmt 4.6, Leading zero omitted, Abs format (unit mm)*
G04 Created by KiCad (PCBNEW (5.1.4)-1) date 2020-07-27 08:05:22*
%MOMM*%
%LPD*%
G04 APERTURE LIST*
%ADD10R,3.000000X1.016000*%
%ADD11C,0.100000*%
%ADD12C,1.150000*%
%ADD13R,0.550000X1.500000*%
%ADD14R,1.500000X0.550000*%
%ADD15R,0.400000X2.100000*%
%ADD16R,2.000000X1.000000*%
%ADD17C,0.600000*%
%ADD18C,0.500000*%
%ADD19C,0.300000*%
%ADD20C,0.250000*%
%ADD21C,0.200000*%
G04 APERTURE END LIST*
D10*
X97900080Y-105628080D03*
X97900080Y-107660080D03*
X97900080Y-103596080D03*
X97900080Y-101564080D03*
X97900080Y-99532080D03*
X97900080Y-97500080D03*
D11*
G36*
X103974585Y-101051284D02*
G01*
X103998853Y-101054884D01*
X104022652Y-101060845D01*
X104045751Y-101069110D01*
X104067930Y-101079600D01*
X104088973Y-101092212D01*
X104108679Y-101106827D01*
X104126857Y-101123303D01*
X104143333Y-101141481D01*
X104157948Y-101161187D01*
X104170560Y-101182230D01*
X104181050Y-101204409D01*
X104189315Y-101227508D01*
X104195276Y-101251307D01*
X104198876Y-101275575D01*
X104200080Y-101300079D01*
X104200080Y-101950081D01*
X104198876Y-101974585D01*
X104195276Y-101998853D01*
X104189315Y-102022652D01*
X104181050Y-102045751D01*
X104170560Y-102067930D01*
X104157948Y-102088973D01*
X104143333Y-102108679D01*
X104126857Y-102126857D01*
X104108679Y-102143333D01*
X104088973Y-102157948D01*
X104067930Y-102170560D01*
X104045751Y-102181050D01*
X104022652Y-102189315D01*
X103998853Y-102195276D01*
X103974585Y-102198876D01*
X103950081Y-102200080D01*
X103050079Y-102200080D01*
X103025575Y-102198876D01*
X103001307Y-102195276D01*
X102977508Y-102189315D01*
X102954409Y-102181050D01*
X102932230Y-102170560D01*
X102911187Y-102157948D01*
X102891481Y-102143333D01*
X102873303Y-102126857D01*
X102856827Y-102108679D01*
X102842212Y-102088973D01*
X102829600Y-102067930D01*
X102819110Y-102045751D01*
X102810845Y-102022652D01*
X102804884Y-101998853D01*
X102801284Y-101974585D01*
X102800080Y-101950081D01*
X102800080Y-101300079D01*
X102801284Y-101275575D01*
X102804884Y-101251307D01*
X102810845Y-101227508D01*
X102819110Y-101204409D01*
X102829600Y-101182230D01*
X102842212Y-101161187D01*
X102856827Y-101141481D01*
X102873303Y-101123303D01*
X102891481Y-101106827D01*
X102911187Y-101092212D01*
X102932230Y-101079600D01*
X102954409Y-101069110D01*
X102977508Y-101060845D01*
X103001307Y-101054884D01*
X103025575Y-101051284D01*
X103050079Y-101050080D01*
X103950081Y-101050080D01*
X103974585Y-101051284D01*
X103974585Y-101051284D01*
G37*
D12*
X103500080Y-101625080D03*
D11*
G36*
X103974585Y-99001284D02*
G01*
X103998853Y-99004884D01*
X104022652Y-99010845D01*
X104045751Y-99019110D01*
X104067930Y-99029600D01*
X104088973Y-99042212D01*
X104108679Y-99056827D01*
X104126857Y-99073303D01*
X104143333Y-99091481D01*
X104157948Y-99111187D01*
X104170560Y-99132230D01*
X104181050Y-99154409D01*
X104189315Y-99177508D01*
X104195276Y-99201307D01*
X104198876Y-99225575D01*
X104200080Y-99250079D01*
X104200080Y-99900081D01*
X104198876Y-99924585D01*
X104195276Y-99948853D01*
X104189315Y-99972652D01*
X104181050Y-99995751D01*
X104170560Y-100017930D01*
X104157948Y-100038973D01*
X104143333Y-100058679D01*
X104126857Y-100076857D01*
X104108679Y-100093333D01*
X104088973Y-100107948D01*
X104067930Y-100120560D01*
X104045751Y-100131050D01*
X104022652Y-100139315D01*
X103998853Y-100145276D01*
X103974585Y-100148876D01*
X103950081Y-100150080D01*
X103050079Y-100150080D01*
X103025575Y-100148876D01*
X103001307Y-100145276D01*
X102977508Y-100139315D01*
X102954409Y-100131050D01*
X102932230Y-100120560D01*
X102911187Y-100107948D01*
X102891481Y-100093333D01*
X102873303Y-100076857D01*
X102856827Y-100058679D01*
X102842212Y-100038973D01*
X102829600Y-100017930D01*
X102819110Y-99995751D01*
X102810845Y-99972652D01*
X102804884Y-99948853D01*
X102801284Y-99924585D01*
X102800080Y-99900081D01*
X102800080Y-99250079D01*
X102801284Y-99225575D01*
X102804884Y-99201307D01*
X102810845Y-99177508D01*
X102819110Y-99154409D01*
X102829600Y-99132230D01*
X102842212Y-99111187D01*
X102856827Y-99091481D01*
X102873303Y-99073303D01*
X102891481Y-99056827D01*
X102911187Y-99042212D01*
X102932230Y-99029600D01*
X102954409Y-99019110D01*
X102977508Y-99010845D01*
X103001307Y-99004884D01*
X103025575Y-99001284D01*
X103050079Y-99000080D01*
X103950081Y-99000080D01*
X103974585Y-99001284D01*
X103974585Y-99001284D01*
G37*
D12*
X103500080Y-99575080D03*
D11*
G36*
X111224585Y-91101284D02*
G01*
X111248853Y-91104884D01*
X111272652Y-91110845D01*
X111295751Y-91119110D01*
X111317930Y-91129600D01*
X111338973Y-91142212D01*
X111358679Y-91156827D01*
X111376857Y-91173303D01*
X111393333Y-91191481D01*
X111407948Y-91211187D01*
X111420560Y-91232230D01*
X111431050Y-91254409D01*
X111439315Y-91277508D01*
X111445276Y-91301307D01*
X111448876Y-91325575D01*
X111450080Y-91350079D01*
X111450080Y-92250081D01*
X111448876Y-92274585D01*
X111445276Y-92298853D01*
X111439315Y-92322652D01*
X111431050Y-92345751D01*
X111420560Y-92367930D01*
X111407948Y-92388973D01*
X111393333Y-92408679D01*
X111376857Y-92426857D01*
X111358679Y-92443333D01*
X111338973Y-92457948D01*
X111317930Y-92470560D01*
X111295751Y-92481050D01*
X111272652Y-92489315D01*
X111248853Y-92495276D01*
X111224585Y-92498876D01*
X111200081Y-92500080D01*
X110550079Y-92500080D01*
X110525575Y-92498876D01*
X110501307Y-92495276D01*
X110477508Y-92489315D01*
X110454409Y-92481050D01*
X110432230Y-92470560D01*
X110411187Y-92457948D01*
X110391481Y-92443333D01*
X110373303Y-92426857D01*
X110356827Y-92408679D01*
X110342212Y-92388973D01*
X110329600Y-92367930D01*
X110319110Y-92345751D01*
X110310845Y-92322652D01*
X110304884Y-92298853D01*
X110301284Y-92274585D01*
X110300080Y-92250081D01*
X110300080Y-91350079D01*
X110301284Y-91325575D01*
X110304884Y-91301307D01*
X110310845Y-91277508D01*
X110319110Y-91254409D01*
X110329600Y-91232230D01*
X110342212Y-91211187D01*
X110356827Y-91191481D01*
X110373303Y-91173303D01*
X110391481Y-91156827D01*
X110411187Y-91142212D01*
X110432230Y-91129600D01*
X110454409Y-91119110D01*
X110477508Y-91110845D01*
X110501307Y-91104884D01*
X110525575Y-91101284D01*
X110550079Y-91100080D01*
X111200081Y-91100080D01*
X111224585Y-91101284D01*
X111224585Y-91101284D01*
G37*
D12*
X110875080Y-91800080D03*
D11*
G36*
X113274585Y-91101284D02*
G01*
X113298853Y-91104884D01*
X113322652Y-91110845D01*
X113345751Y-91119110D01*
X113367930Y-91129600D01*
X113388973Y-91142212D01*
X113408679Y-91156827D01*
X113426857Y-91173303D01*
X113443333Y-91191481D01*
X113457948Y-91211187D01*
X113470560Y-91232230D01*
X113481050Y-91254409D01*
X113489315Y-91277508D01*
X113495276Y-91301307D01*
X113498876Y-91325575D01*
X113500080Y-91350079D01*
X113500080Y-92250081D01*
X113498876Y-92274585D01*
X113495276Y-92298853D01*
X113489315Y-92322652D01*
X113481050Y-92345751D01*
X113470560Y-92367930D01*
X113457948Y-92388973D01*
X113443333Y-92408679D01*
X113426857Y-92426857D01*
X113408679Y-92443333D01*
X113388973Y-92457948D01*
X113367930Y-92470560D01*
X113345751Y-92481050D01*
X113322652Y-92489315D01*
X113298853Y-92495276D01*
X113274585Y-92498876D01*
X113250081Y-92500080D01*
X112600079Y-92500080D01*
X112575575Y-92498876D01*
X112551307Y-92495276D01*
X112527508Y-92489315D01*
X112504409Y-92481050D01*
X112482230Y-92470560D01*
X112461187Y-92457948D01*
X112441481Y-92443333D01*
X112423303Y-92426857D01*
X112406827Y-92408679D01*
X112392212Y-92388973D01*
X112379600Y-92367930D01*
X112369110Y-92345751D01*
X112360845Y-92322652D01*
X112354884Y-92298853D01*
X112351284Y-92274585D01*
X112350080Y-92250081D01*
X112350080Y-91350079D01*
X112351284Y-91325575D01*
X112354884Y-91301307D01*
X112360845Y-91277508D01*
X112369110Y-91254409D01*
X112379600Y-91232230D01*
X112392212Y-91211187D01*
X112406827Y-91191481D01*
X112423303Y-91173303D01*
X112441481Y-91156827D01*
X112461187Y-91142212D01*
X112482230Y-91129600D01*
X112504409Y-91119110D01*
X112527508Y-91110845D01*
X112551307Y-91104884D01*
X112575575Y-91101284D01*
X112600079Y-91100080D01*
X113250081Y-91100080D01*
X113274585Y-91101284D01*
X113274585Y-91101284D01*
G37*
D12*
X112925080Y-91800080D03*
D11*
G36*
X107974585Y-89201284D02*
G01*
X107998853Y-89204884D01*
X108022652Y-89210845D01*
X108045751Y-89219110D01*
X108067930Y-89229600D01*
X108088973Y-89242212D01*
X108108679Y-89256827D01*
X108126857Y-89273303D01*
X108143333Y-89291481D01*
X108157948Y-89311187D01*
X108170560Y-89332230D01*
X108181050Y-89354409D01*
X108189315Y-89377508D01*
X108195276Y-89401307D01*
X108198876Y-89425575D01*
X108200080Y-89450079D01*
X108200080Y-90350081D01*
X108198876Y-90374585D01*
X108195276Y-90398853D01*
X108189315Y-90422652D01*
X108181050Y-90445751D01*
X108170560Y-90467930D01*
X108157948Y-90488973D01*
X108143333Y-90508679D01*
X108126857Y-90526857D01*
X108108679Y-90543333D01*
X108088973Y-90557948D01*
X108067930Y-90570560D01*
X108045751Y-90581050D01*
X108022652Y-90589315D01*
X107998853Y-90595276D01*
X107974585Y-90598876D01*
X107950081Y-90600080D01*
X107300079Y-90600080D01*
X107275575Y-90598876D01*
X107251307Y-90595276D01*
X107227508Y-90589315D01*
X107204409Y-90581050D01*
X107182230Y-90570560D01*
X107161187Y-90557948D01*
X107141481Y-90543333D01*
X107123303Y-90526857D01*
X107106827Y-90508679D01*
X107092212Y-90488973D01*
X107079600Y-90467930D01*
X107069110Y-90445751D01*
X107060845Y-90422652D01*
X107054884Y-90398853D01*
X107051284Y-90374585D01*
X107050080Y-90350081D01*
X107050080Y-89450079D01*
X107051284Y-89425575D01*
X107054884Y-89401307D01*
X107060845Y-89377508D01*
X107069110Y-89354409D01*
X107079600Y-89332230D01*
X107092212Y-89311187D01*
X107106827Y-89291481D01*
X107123303Y-89273303D01*
X107141481Y-89256827D01*
X107161187Y-89242212D01*
X107182230Y-89229600D01*
X107204409Y-89219110D01*
X107227508Y-89210845D01*
X107251307Y-89204884D01*
X107275575Y-89201284D01*
X107300079Y-89200080D01*
X107950081Y-89200080D01*
X107974585Y-89201284D01*
X107974585Y-89201284D01*
G37*
D12*
X107625080Y-89900080D03*
D11*
G36*
X110024585Y-89201284D02*
G01*
X110048853Y-89204884D01*
X110072652Y-89210845D01*
X110095751Y-89219110D01*
X110117930Y-89229600D01*
X110138973Y-89242212D01*
X110158679Y-89256827D01*
X110176857Y-89273303D01*
X110193333Y-89291481D01*
X110207948Y-89311187D01*
X110220560Y-89332230D01*
X110231050Y-89354409D01*
X110239315Y-89377508D01*
X110245276Y-89401307D01*
X110248876Y-89425575D01*
X110250080Y-89450079D01*
X110250080Y-90350081D01*
X110248876Y-90374585D01*
X110245276Y-90398853D01*
X110239315Y-90422652D01*
X110231050Y-90445751D01*
X110220560Y-90467930D01*
X110207948Y-90488973D01*
X110193333Y-90508679D01*
X110176857Y-90526857D01*
X110158679Y-90543333D01*
X110138973Y-90557948D01*
X110117930Y-90570560D01*
X110095751Y-90581050D01*
X110072652Y-90589315D01*
X110048853Y-90595276D01*
X110024585Y-90598876D01*
X110000081Y-90600080D01*
X109350079Y-90600080D01*
X109325575Y-90598876D01*
X109301307Y-90595276D01*
X109277508Y-90589315D01*
X109254409Y-90581050D01*
X109232230Y-90570560D01*
X109211187Y-90557948D01*
X109191481Y-90543333D01*
X109173303Y-90526857D01*
X109156827Y-90508679D01*
X109142212Y-90488973D01*
X109129600Y-90467930D01*
X109119110Y-90445751D01*
X109110845Y-90422652D01*
X109104884Y-90398853D01*
X109101284Y-90374585D01*
X109100080Y-90350081D01*
X109100080Y-89450079D01*
X109101284Y-89425575D01*
X109104884Y-89401307D01*
X109110845Y-89377508D01*
X109119110Y-89354409D01*
X109129600Y-89332230D01*
X109142212Y-89311187D01*
X109156827Y-89291481D01*
X109173303Y-89273303D01*
X109191481Y-89256827D01*
X109211187Y-89242212D01*
X109232230Y-89229600D01*
X109254409Y-89219110D01*
X109277508Y-89210845D01*
X109301307Y-89204884D01*
X109325575Y-89201284D01*
X109350079Y-89200080D01*
X110000081Y-89200080D01*
X110024585Y-89201284D01*
X110024585Y-89201284D01*
G37*
D12*
X109675080Y-89900080D03*
D11*
G36*
X115224585Y-88401284D02*
G01*
X115248853Y-88404884D01*
X115272652Y-88410845D01*
X115295751Y-88419110D01*
X115317930Y-88429600D01*
X115338973Y-88442212D01*
X115358679Y-88456827D01*
X115376857Y-88473303D01*
X115393333Y-88491481D01*
X115407948Y-88511187D01*
X115420560Y-88532230D01*
X115431050Y-88554409D01*
X115439315Y-88577508D01*
X115445276Y-88601307D01*
X115448876Y-88625575D01*
X115450080Y-88650079D01*
X115450080Y-89550081D01*
X115448876Y-89574585D01*
X115445276Y-89598853D01*
X115439315Y-89622652D01*
X115431050Y-89645751D01*
X115420560Y-89667930D01*
X115407948Y-89688973D01*
X115393333Y-89708679D01*
X115376857Y-89726857D01*
X115358679Y-89743333D01*
X115338973Y-89757948D01*
X115317930Y-89770560D01*
X115295751Y-89781050D01*
X115272652Y-89789315D01*
X115248853Y-89795276D01*
X115224585Y-89798876D01*
X115200081Y-89800080D01*
X114550079Y-89800080D01*
X114525575Y-89798876D01*
X114501307Y-89795276D01*
X114477508Y-89789315D01*
X114454409Y-89781050D01*
X114432230Y-89770560D01*
X114411187Y-89757948D01*
X114391481Y-89743333D01*
X114373303Y-89726857D01*
X114356827Y-89708679D01*
X114342212Y-89688973D01*
X114329600Y-89667930D01*
X114319110Y-89645751D01*
X114310845Y-89622652D01*
X114304884Y-89598853D01*
X114301284Y-89574585D01*
X114300080Y-89550081D01*
X114300080Y-88650079D01*
X114301284Y-88625575D01*
X114304884Y-88601307D01*
X114310845Y-88577508D01*
X114319110Y-88554409D01*
X114329600Y-88532230D01*
X114342212Y-88511187D01*
X114356827Y-88491481D01*
X114373303Y-88473303D01*
X114391481Y-88456827D01*
X114411187Y-88442212D01*
X114432230Y-88429600D01*
X114454409Y-88419110D01*
X114477508Y-88410845D01*
X114501307Y-88404884D01*
X114525575Y-88401284D01*
X114550079Y-88400080D01*
X115200081Y-88400080D01*
X115224585Y-88401284D01*
X115224585Y-88401284D01*
G37*
D12*
X114875080Y-89100080D03*
D11*
G36*
X113174585Y-88401284D02*
G01*
X113198853Y-88404884D01*
X113222652Y-88410845D01*
X113245751Y-88419110D01*
X113267930Y-88429600D01*
X113288973Y-88442212D01*
X113308679Y-88456827D01*
X113326857Y-88473303D01*
X113343333Y-88491481D01*
X113357948Y-88511187D01*
X113370560Y-88532230D01*
X113381050Y-88554409D01*
X113389315Y-88577508D01*
X113395276Y-88601307D01*
X113398876Y-88625575D01*
X113400080Y-88650079D01*
X113400080Y-89550081D01*
X113398876Y-89574585D01*
X113395276Y-89598853D01*
X113389315Y-89622652D01*
X113381050Y-89645751D01*
X113370560Y-89667930D01*
X113357948Y-89688973D01*
X113343333Y-89708679D01*
X113326857Y-89726857D01*
X113308679Y-89743333D01*
X113288973Y-89757948D01*
X113267930Y-89770560D01*
X113245751Y-89781050D01*
X113222652Y-89789315D01*
X113198853Y-89795276D01*
X113174585Y-89798876D01*
X113150081Y-89800080D01*
X112500079Y-89800080D01*
X112475575Y-89798876D01*
X112451307Y-89795276D01*
X112427508Y-89789315D01*
X112404409Y-89781050D01*
X112382230Y-89770560D01*
X112361187Y-89757948D01*
X112341481Y-89743333D01*
X112323303Y-89726857D01*
X112306827Y-89708679D01*
X112292212Y-89688973D01*
X112279600Y-89667930D01*
X112269110Y-89645751D01*
X112260845Y-89622652D01*
X112254884Y-89598853D01*
X112251284Y-89574585D01*
X112250080Y-89550081D01*
X112250080Y-88650079D01*
X112251284Y-88625575D01*
X112254884Y-88601307D01*
X112260845Y-88577508D01*
X112269110Y-88554409D01*
X112279600Y-88532230D01*
X112292212Y-88511187D01*
X112306827Y-88491481D01*
X112323303Y-88473303D01*
X112341481Y-88456827D01*
X112361187Y-88442212D01*
X112382230Y-88429600D01*
X112404409Y-88419110D01*
X112427508Y-88410845D01*
X112451307Y-88404884D01*
X112475575Y-88401284D01*
X112500079Y-88400080D01*
X113150081Y-88400080D01*
X113174585Y-88401284D01*
X113174585Y-88401284D01*
G37*
D12*
X112825080Y-89100080D03*
D11*
G36*
X105924585Y-85151284D02*
G01*
X105948853Y-85154884D01*
X105972652Y-85160845D01*
X105995751Y-85169110D01*
X106017930Y-85179600D01*
X106038973Y-85192212D01*
X106058679Y-85206827D01*
X106076857Y-85223303D01*
X106093333Y-85241481D01*
X106107948Y-85261187D01*
X106120560Y-85282230D01*
X106131050Y-85304409D01*
X106139315Y-85327508D01*
X106145276Y-85351307D01*
X106148876Y-85375575D01*
X106150080Y-85400079D01*
X106150080Y-86300081D01*
X106148876Y-86324585D01*
X106145276Y-86348853D01*
X106139315Y-86372652D01*
X106131050Y-86395751D01*
X106120560Y-86417930D01*
X106107948Y-86438973D01*
X106093333Y-86458679D01*
X106076857Y-86476857D01*
X106058679Y-86493333D01*
X106038973Y-86507948D01*
X106017930Y-86520560D01*
X105995751Y-86531050D01*
X105972652Y-86539315D01*
X105948853Y-86545276D01*
X105924585Y-86548876D01*
X105900081Y-86550080D01*
X105250079Y-86550080D01*
X105225575Y-86548876D01*
X105201307Y-86545276D01*
X105177508Y-86539315D01*
X105154409Y-86531050D01*
X105132230Y-86520560D01*
X105111187Y-86507948D01*
X105091481Y-86493333D01*
X105073303Y-86476857D01*
X105056827Y-86458679D01*
X105042212Y-86438973D01*
X105029600Y-86417930D01*
X105019110Y-86395751D01*
X105010845Y-86372652D01*
X105004884Y-86348853D01*
X105001284Y-86324585D01*
X105000080Y-86300081D01*
X105000080Y-85400079D01*
X105001284Y-85375575D01*
X105004884Y-85351307D01*
X105010845Y-85327508D01*
X105019110Y-85304409D01*
X105029600Y-85282230D01*
X105042212Y-85261187D01*
X105056827Y-85241481D01*
X105073303Y-85223303D01*
X105091481Y-85206827D01*
X105111187Y-85192212D01*
X105132230Y-85179600D01*
X105154409Y-85169110D01*
X105177508Y-85160845D01*
X105201307Y-85154884D01*
X105225575Y-85151284D01*
X105250079Y-85150080D01*
X105900081Y-85150080D01*
X105924585Y-85151284D01*
X105924585Y-85151284D01*
G37*
D12*
X105575080Y-85850080D03*
D11*
G36*
X103874585Y-85151284D02*
G01*
X103898853Y-85154884D01*
X103922652Y-85160845D01*
X103945751Y-85169110D01*
X103967930Y-85179600D01*
X103988973Y-85192212D01*
X104008679Y-85206827D01*
X104026857Y-85223303D01*
X104043333Y-85241481D01*
X104057948Y-85261187D01*
X104070560Y-85282230D01*
X104081050Y-85304409D01*
X104089315Y-85327508D01*
X104095276Y-85351307D01*
X104098876Y-85375575D01*
X104100080Y-85400079D01*
X104100080Y-86300081D01*
X104098876Y-86324585D01*
X104095276Y-86348853D01*
X104089315Y-86372652D01*
X104081050Y-86395751D01*
X104070560Y-86417930D01*
X104057948Y-86438973D01*
X104043333Y-86458679D01*
X104026857Y-86476857D01*
X104008679Y-86493333D01*
X103988973Y-86507948D01*
X103967930Y-86520560D01*
X103945751Y-86531050D01*
X103922652Y-86539315D01*
X103898853Y-86545276D01*
X103874585Y-86548876D01*
X103850081Y-86550080D01*
X103200079Y-86550080D01*
X103175575Y-86548876D01*
X103151307Y-86545276D01*
X103127508Y-86539315D01*
X103104409Y-86531050D01*
X103082230Y-86520560D01*
X103061187Y-86507948D01*
X103041481Y-86493333D01*
X103023303Y-86476857D01*
X103006827Y-86458679D01*
X102992212Y-86438973D01*
X102979600Y-86417930D01*
X102969110Y-86395751D01*
X102960845Y-86372652D01*
X102954884Y-86348853D01*
X102951284Y-86324585D01*
X102950080Y-86300081D01*
X102950080Y-85400079D01*
X102951284Y-85375575D01*
X102954884Y-85351307D01*
X102960845Y-85327508D01*
X102969110Y-85304409D01*
X102979600Y-85282230D01*
X102992212Y-85261187D01*
X103006827Y-85241481D01*
X103023303Y-85223303D01*
X103041481Y-85206827D01*
X103061187Y-85192212D01*
X103082230Y-85179600D01*
X103104409Y-85169110D01*
X103127508Y-85160845D01*
X103151307Y-85154884D01*
X103175575Y-85151284D01*
X103200079Y-85150080D01*
X103850081Y-85150080D01*
X103874585Y-85151284D01*
X103874585Y-85151284D01*
G37*
D12*
X103525080Y-85850080D03*
D11*
G36*
X118424585Y-108001284D02*
G01*
X118448853Y-108004884D01*
X118472652Y-108010845D01*
X118495751Y-108019110D01*
X118517930Y-108029600D01*
X118538973Y-108042212D01*
X118558679Y-108056827D01*
X118576857Y-108073303D01*
X118593333Y-108091481D01*
X118607948Y-108111187D01*
X118620560Y-108132230D01*
X118631050Y-108154409D01*
X118639315Y-108177508D01*
X118645276Y-108201307D01*
X118648876Y-108225575D01*
X118650080Y-108250079D01*
X118650080Y-108900081D01*
X118648876Y-108924585D01*
X118645276Y-108948853D01*
X118639315Y-108972652D01*
X118631050Y-108995751D01*
X118620560Y-109017930D01*
X118607948Y-109038973D01*
X118593333Y-109058679D01*
X118576857Y-109076857D01*
X118558679Y-109093333D01*
X118538973Y-109107948D01*
X118517930Y-109120560D01*
X118495751Y-109131050D01*
X118472652Y-109139315D01*
X118448853Y-109145276D01*
X118424585Y-109148876D01*
X118400081Y-109150080D01*
X117500079Y-109150080D01*
X117475575Y-109148876D01*
X117451307Y-109145276D01*
X117427508Y-109139315D01*
X117404409Y-109131050D01*
X117382230Y-109120560D01*
X117361187Y-109107948D01*
X117341481Y-109093333D01*
X117323303Y-109076857D01*
X117306827Y-109058679D01*
X117292212Y-109038973D01*
X117279600Y-109017930D01*
X117269110Y-108995751D01*
X117260845Y-108972652D01*
X117254884Y-108948853D01*
X117251284Y-108924585D01*
X117250080Y-108900081D01*
X117250080Y-108250079D01*
X117251284Y-108225575D01*
X117254884Y-108201307D01*
X117260845Y-108177508D01*
X117269110Y-108154409D01*
X117279600Y-108132230D01*
X117292212Y-108111187D01*
X117306827Y-108091481D01*
X117323303Y-108073303D01*
X117341481Y-108056827D01*
X117361187Y-108042212D01*
X117382230Y-108029600D01*
X117404409Y-108019110D01*
X117427508Y-108010845D01*
X117451307Y-108004884D01*
X117475575Y-108001284D01*
X117500079Y-108000080D01*
X118400081Y-108000080D01*
X118424585Y-108001284D01*
X118424585Y-108001284D01*
G37*
D12*
X117950080Y-108575080D03*
D11*
G36*
X118424585Y-105951284D02*
G01*
X118448853Y-105954884D01*
X118472652Y-105960845D01*
X118495751Y-105969110D01*
X118517930Y-105979600D01*
X118538973Y-105992212D01*
X118558679Y-106006827D01*
X118576857Y-106023303D01*
X118593333Y-106041481D01*
X118607948Y-106061187D01*
X118620560Y-106082230D01*
X118631050Y-106104409D01*
X118639315Y-106127508D01*
X118645276Y-106151307D01*
X118648876Y-106175575D01*
X118650080Y-106200079D01*
X118650080Y-106850081D01*
X118648876Y-106874585D01*
X118645276Y-106898853D01*
X118639315Y-106922652D01*
X118631050Y-106945751D01*
X118620560Y-106967930D01*
X118607948Y-106988973D01*
X118593333Y-107008679D01*
X118576857Y-107026857D01*
X118558679Y-107043333D01*
X118538973Y-107057948D01*
X118517930Y-107070560D01*
X118495751Y-107081050D01*
X118472652Y-107089315D01*
X118448853Y-107095276D01*
X118424585Y-107098876D01*
X118400081Y-107100080D01*
X117500079Y-107100080D01*
X117475575Y-107098876D01*
X117451307Y-107095276D01*
X117427508Y-107089315D01*
X117404409Y-107081050D01*
X117382230Y-107070560D01*
X117361187Y-107057948D01*
X117341481Y-107043333D01*
X117323303Y-107026857D01*
X117306827Y-107008679D01*
X117292212Y-106988973D01*
X117279600Y-106967930D01*
X117269110Y-106945751D01*
X117260845Y-106922652D01*
X117254884Y-106898853D01*
X117251284Y-106874585D01*
X117250080Y-106850081D01*
X117250080Y-106200079D01*
X117251284Y-106175575D01*
X117254884Y-106151307D01*
X117260845Y-106127508D01*
X117269110Y-106104409D01*
X117279600Y-106082230D01*
X117292212Y-106061187D01*
X117306827Y-106041481D01*
X117323303Y-106023303D01*
X117341481Y-106006827D01*
X117361187Y-105992212D01*
X117382230Y-105979600D01*
X117404409Y-105969110D01*
X117427508Y-105960845D01*
X117451307Y-105954884D01*
X117475575Y-105951284D01*
X117500079Y-105950080D01*
X118400081Y-105950080D01*
X118424585Y-105951284D01*
X118424585Y-105951284D01*
G37*
D12*
X117950080Y-106525080D03*
D11*
G36*
X110024585Y-107651284D02*
G01*
X110048853Y-107654884D01*
X110072652Y-107660845D01*
X110095751Y-107669110D01*
X110117930Y-107679600D01*
X110138973Y-107692212D01*
X110158679Y-107706827D01*
X110176857Y-107723303D01*
X110193333Y-107741481D01*
X110207948Y-107761187D01*
X110220560Y-107782230D01*
X110231050Y-107804409D01*
X110239315Y-107827508D01*
X110245276Y-107851307D01*
X110248876Y-107875575D01*
X110250080Y-107900079D01*
X110250080Y-108800081D01*
X110248876Y-108824585D01*
X110245276Y-108848853D01*
X110239315Y-108872652D01*
X110231050Y-108895751D01*
X110220560Y-108917930D01*
X110207948Y-108938973D01*
X110193333Y-108958679D01*
X110176857Y-108976857D01*
X110158679Y-108993333D01*
X110138973Y-109007948D01*
X110117930Y-109020560D01*
X110095751Y-109031050D01*
X110072652Y-109039315D01*
X110048853Y-109045276D01*
X110024585Y-109048876D01*
X110000081Y-109050080D01*
X109350079Y-109050080D01*
X109325575Y-109048876D01*
X109301307Y-109045276D01*
X109277508Y-109039315D01*
X109254409Y-109031050D01*
X109232230Y-109020560D01*
X109211187Y-109007948D01*
X109191481Y-108993333D01*
X109173303Y-108976857D01*
X109156827Y-108958679D01*
X109142212Y-108938973D01*
X109129600Y-108917930D01*
X109119110Y-108895751D01*
X109110845Y-108872652D01*
X109104884Y-108848853D01*
X109101284Y-108824585D01*
X109100080Y-108800081D01*
X109100080Y-107900079D01*
X109101284Y-107875575D01*
X109104884Y-107851307D01*
X109110845Y-107827508D01*
X109119110Y-107804409D01*
X109129600Y-107782230D01*
X109142212Y-107761187D01*
X109156827Y-107741481D01*
X109173303Y-107723303D01*
X109191481Y-107706827D01*
X109211187Y-107692212D01*
X109232230Y-107679600D01*
X109254409Y-107669110D01*
X109277508Y-107660845D01*
X109301307Y-107654884D01*
X109325575Y-107651284D01*
X109350079Y-107650080D01*
X110000081Y-107650080D01*
X110024585Y-107651284D01*
X110024585Y-107651284D01*
G37*
D12*
X109675080Y-108350080D03*
D11*
G36*
X107974585Y-107651284D02*
G01*
X107998853Y-107654884D01*
X108022652Y-107660845D01*
X108045751Y-107669110D01*
X108067930Y-107679600D01*
X108088973Y-107692212D01*
X108108679Y-107706827D01*
X108126857Y-107723303D01*
X108143333Y-107741481D01*
X108157948Y-107761187D01*
X108170560Y-107782230D01*
X108181050Y-107804409D01*
X108189315Y-107827508D01*
X108195276Y-107851307D01*
X108198876Y-107875575D01*
X108200080Y-107900079D01*
X108200080Y-108800081D01*
X108198876Y-108824585D01*
X108195276Y-108848853D01*
X108189315Y-108872652D01*
X108181050Y-108895751D01*
X108170560Y-108917930D01*
X108157948Y-108938973D01*
X108143333Y-108958679D01*
X108126857Y-108976857D01*
X108108679Y-108993333D01*
X108088973Y-109007948D01*
X108067930Y-109020560D01*
X108045751Y-109031050D01*
X108022652Y-109039315D01*
X107998853Y-109045276D01*
X107974585Y-109048876D01*
X107950081Y-109050080D01*
X107300079Y-109050080D01*
X107275575Y-109048876D01*
X107251307Y-109045276D01*
X107227508Y-109039315D01*
X107204409Y-109031050D01*
X107182230Y-109020560D01*
X107161187Y-109007948D01*
X107141481Y-108993333D01*
X107123303Y-108976857D01*
X107106827Y-108958679D01*
X107092212Y-108938973D01*
X107079600Y-108917930D01*
X107069110Y-108895751D01*
X107060845Y-108872652D01*
X107054884Y-108848853D01*
X107051284Y-108824585D01*
X107050080Y-108800081D01*
X107050080Y-107900079D01*
X107051284Y-107875575D01*
X107054884Y-107851307D01*
X107060845Y-107827508D01*
X107069110Y-107804409D01*
X107079600Y-107782230D01*
X107092212Y-107761187D01*
X107106827Y-107741481D01*
X107123303Y-107723303D01*
X107141481Y-107706827D01*
X107161187Y-107692212D01*
X107182230Y-107679600D01*
X107204409Y-107669110D01*
X107227508Y-107660845D01*
X107251307Y-107654884D01*
X107275575Y-107651284D01*
X107300079Y-107650080D01*
X107950081Y-107650080D01*
X107974585Y-107651284D01*
X107974585Y-107651284D01*
G37*
D12*
X107625080Y-108350080D03*
D11*
G36*
X104374585Y-90851284D02*
G01*
X104398853Y-90854884D01*
X104422652Y-90860845D01*
X104445751Y-90869110D01*
X104467930Y-90879600D01*
X104488973Y-90892212D01*
X104508679Y-90906827D01*
X104526857Y-90923303D01*
X104543333Y-90941481D01*
X104557948Y-90961187D01*
X104570560Y-90982230D01*
X104581050Y-91004409D01*
X104589315Y-91027508D01*
X104595276Y-91051307D01*
X104598876Y-91075575D01*
X104600080Y-91100079D01*
X104600080Y-91750081D01*
X104598876Y-91774585D01*
X104595276Y-91798853D01*
X104589315Y-91822652D01*
X104581050Y-91845751D01*
X104570560Y-91867930D01*
X104557948Y-91888973D01*
X104543333Y-91908679D01*
X104526857Y-91926857D01*
X104508679Y-91943333D01*
X104488973Y-91957948D01*
X104467930Y-91970560D01*
X104445751Y-91981050D01*
X104422652Y-91989315D01*
X104398853Y-91995276D01*
X104374585Y-91998876D01*
X104350081Y-92000080D01*
X103450079Y-92000080D01*
X103425575Y-91998876D01*
X103401307Y-91995276D01*
X103377508Y-91989315D01*
X103354409Y-91981050D01*
X103332230Y-91970560D01*
X103311187Y-91957948D01*
X103291481Y-91943333D01*
X103273303Y-91926857D01*
X103256827Y-91908679D01*
X103242212Y-91888973D01*
X103229600Y-91867930D01*
X103219110Y-91845751D01*
X103210845Y-91822652D01*
X103204884Y-91798853D01*
X103201284Y-91774585D01*
X103200080Y-91750081D01*
X103200080Y-91100079D01*
X103201284Y-91075575D01*
X103204884Y-91051307D01*
X103210845Y-91027508D01*
X103219110Y-91004409D01*
X103229600Y-90982230D01*
X103242212Y-90961187D01*
X103256827Y-90941481D01*
X103273303Y-90923303D01*
X103291481Y-90906827D01*
X103311187Y-90892212D01*
X103332230Y-90879600D01*
X103354409Y-90869110D01*
X103377508Y-90860845D01*
X103401307Y-90854884D01*
X103425575Y-90851284D01*
X103450079Y-90850080D01*
X104350081Y-90850080D01*
X104374585Y-90851284D01*
X104374585Y-90851284D01*
G37*
D12*
X103900080Y-91425080D03*
D11*
G36*
X104374585Y-92901284D02*
G01*
X104398853Y-92904884D01*
X104422652Y-92910845D01*
X104445751Y-92919110D01*
X104467930Y-92929600D01*
X104488973Y-92942212D01*
X104508679Y-92956827D01*
X104526857Y-92973303D01*
X104543333Y-92991481D01*
X104557948Y-93011187D01*
X104570560Y-93032230D01*
X104581050Y-93054409D01*
X104589315Y-93077508D01*
X104595276Y-93101307D01*
X104598876Y-93125575D01*
X104600080Y-93150079D01*
X104600080Y-93800081D01*
X104598876Y-93824585D01*
X104595276Y-93848853D01*
X104589315Y-93872652D01*
X104581050Y-93895751D01*
X104570560Y-93917930D01*
X104557948Y-93938973D01*
X104543333Y-93958679D01*
X104526857Y-93976857D01*
X104508679Y-93993333D01*
X104488973Y-94007948D01*
X104467930Y-94020560D01*
X104445751Y-94031050D01*
X104422652Y-94039315D01*
X104398853Y-94045276D01*
X104374585Y-94048876D01*
X104350081Y-94050080D01*
X103450079Y-94050080D01*
X103425575Y-94048876D01*
X103401307Y-94045276D01*
X103377508Y-94039315D01*
X103354409Y-94031050D01*
X103332230Y-94020560D01*
X103311187Y-94007948D01*
X103291481Y-93993333D01*
X103273303Y-93976857D01*
X103256827Y-93958679D01*
X103242212Y-93938973D01*
X103229600Y-93917930D01*
X103219110Y-93895751D01*
X103210845Y-93872652D01*
X103204884Y-93848853D01*
X103201284Y-93824585D01*
X103200080Y-93800081D01*
X103200080Y-93150079D01*
X103201284Y-93125575D01*
X103204884Y-93101307D01*
X103210845Y-93077508D01*
X103219110Y-93054409D01*
X103229600Y-93032230D01*
X103242212Y-93011187D01*
X103256827Y-92991481D01*
X103273303Y-92973303D01*
X103291481Y-92956827D01*
X103311187Y-92942212D01*
X103332230Y-92929600D01*
X103354409Y-92919110D01*
X103377508Y-92910845D01*
X103401307Y-92904884D01*
X103425575Y-92901284D01*
X103450079Y-92900080D01*
X104350081Y-92900080D01*
X104374585Y-92901284D01*
X104374585Y-92901284D01*
G37*
D12*
X103900080Y-93475080D03*
D13*
X115550080Y-94450080D03*
X114750080Y-94450080D03*
X113950080Y-94450080D03*
X113150080Y-94450080D03*
X112350080Y-94450080D03*
X111550080Y-94450080D03*
X110750080Y-94450080D03*
X109950080Y-94450080D03*
X109150080Y-94450080D03*
X108350080Y-94450080D03*
X107550080Y-94450080D03*
D14*
X105850080Y-96150080D03*
X105850080Y-96950080D03*
X105850080Y-97750080D03*
X105850080Y-98550080D03*
X105850080Y-99350080D03*
X105850080Y-100150080D03*
X105850080Y-100950080D03*
X105850080Y-101750080D03*
X105850080Y-102550080D03*
X105850080Y-103350080D03*
X105850080Y-104150080D03*
D13*
X107550080Y-105850080D03*
X108350080Y-105850080D03*
X109150080Y-105850080D03*
X109950080Y-105850080D03*
X110750080Y-105850080D03*
X111550080Y-105850080D03*
X112350080Y-105850080D03*
X113150080Y-105850080D03*
X113950080Y-105850080D03*
X114750080Y-105850080D03*
X115550080Y-105850080D03*
D14*
X117250080Y-104150080D03*
X117250080Y-103350080D03*
X117250080Y-102550080D03*
X117250080Y-101750080D03*
X117250080Y-100950080D03*
X117250080Y-100150080D03*
X117250080Y-99350080D03*
X117250080Y-98550080D03*
X117250080Y-97750080D03*
X117250080Y-96950080D03*
X117250080Y-96150080D03*
D15*
X109800080Y-87350080D03*
X108600080Y-87350080D03*
X107400080Y-87350080D03*
D16*
X113300080Y-86900080D03*
D17*
X118000080Y-108650080D03*
X116800080Y-100150080D03*
X100900080Y-99500080D03*
X106350080Y-100950080D03*
X103850080Y-101850080D03*
X103700080Y-95900080D03*
X103750080Y-97450080D03*
X102050080Y-97850080D03*
X111000080Y-99400080D03*
X113950080Y-101050080D03*
X112500080Y-101050080D03*
X111000080Y-101050080D03*
X101650080Y-109300080D03*
X101650080Y-110250080D03*
X109700080Y-109950080D03*
X113750080Y-109950080D03*
X101900080Y-103700080D03*
X112450080Y-99350080D03*
X113900080Y-99350080D03*
X116900080Y-105250080D03*
X111000080Y-102650080D03*
X112500080Y-102650080D03*
X113950080Y-102650080D03*
X103550080Y-93625080D03*
X107600080Y-97300080D03*
X103550080Y-86000080D03*
X115550080Y-94900080D03*
X114750080Y-94900080D03*
X113950080Y-94900080D03*
X108350080Y-101850080D03*
X109095526Y-100250080D03*
X117800080Y-91400080D03*
X105900080Y-95050080D03*
X106350080Y-96950080D03*
X104300080Y-104000080D03*
X101400080Y-101400080D03*
X106350080Y-97750080D03*
X100500080Y-102600080D03*
X106350080Y-98550080D03*
X100604080Y-103596080D03*
X106350080Y-99350080D03*
X106350080Y-96150080D03*
X116800080Y-97750080D03*
D18*
X99868080Y-99532080D02*
X97900080Y-99532080D01*
X97900080Y-99532080D02*
X101118080Y-99532080D01*
D19*
X104175080Y-100950080D02*
X105850080Y-100950080D01*
X103500080Y-101625080D02*
X103500080Y-101625080D01*
X105850080Y-100950080D02*
X105850080Y-100950080D01*
X103500080Y-101625080D02*
X104175080Y-100950080D01*
D18*
X101407080Y-99532080D02*
X97900080Y-99532080D01*
X103500080Y-101625080D02*
X101407080Y-99532080D01*
X111550080Y-92625080D02*
X110725080Y-91800080D01*
X111550080Y-94450080D02*
X111550080Y-92625080D01*
D19*
X111550080Y-106900080D02*
X111550080Y-105850080D01*
X110100080Y-108350080D02*
X111550080Y-106900080D01*
X109275080Y-108350080D02*
X110100080Y-108350080D01*
D18*
X103550080Y-94300080D02*
X103550080Y-93625080D01*
X103550080Y-94392556D02*
X103550080Y-94300080D01*
X100442556Y-97500080D02*
X103550080Y-94392556D01*
X97900080Y-97500080D02*
X100442556Y-97500080D01*
X103550080Y-93625080D02*
X103550080Y-93625080D01*
D19*
X118300080Y-100950080D02*
X117250080Y-100950080D01*
X118302481Y-100952481D02*
X118300080Y-100950080D01*
X118302481Y-105497679D02*
X118302481Y-100952481D01*
X117950080Y-105850080D02*
X118302481Y-105497679D01*
X117950080Y-106525080D02*
X117950080Y-105850080D01*
X104075080Y-100150080D02*
X105850080Y-100150080D01*
X103500080Y-99575080D02*
X104075080Y-100150080D01*
X106900080Y-100150080D02*
X107600080Y-99450080D01*
X105850080Y-100150080D02*
X106900080Y-100150080D01*
X107600080Y-99450080D02*
X107600080Y-97300080D01*
X107600080Y-97300080D02*
X107600080Y-97300080D01*
X107600080Y-99450080D02*
X107600080Y-103300080D01*
X107600080Y-103300080D02*
X108650080Y-104350080D01*
X110750080Y-104800080D02*
X110750080Y-105850080D01*
X110300080Y-104350080D02*
X110750080Y-104800080D01*
X108650080Y-104350080D02*
X110300080Y-104350080D01*
X114950080Y-104350080D02*
X115600080Y-103700080D01*
X115600080Y-103700080D02*
X115600080Y-101500080D01*
X116150080Y-100950080D02*
X117250080Y-100950080D01*
X115600080Y-101500080D02*
X116150080Y-100950080D01*
X115600080Y-101500080D02*
X115600080Y-97000080D01*
X115600080Y-97000080D02*
X114750080Y-96150080D01*
X114750080Y-96150080D02*
X112900080Y-96150080D01*
X112350080Y-95600080D02*
X112350080Y-94450080D01*
X112900080Y-96150080D02*
X112350080Y-95600080D01*
D20*
X112350080Y-92225080D02*
X112775080Y-91800080D01*
X112350080Y-94450080D02*
X112350080Y-92225080D01*
X112825080Y-91750080D02*
X112775080Y-91800080D01*
X112825080Y-89100080D02*
X112825080Y-91750080D01*
D19*
X111900080Y-104350080D02*
X111850080Y-104350080D01*
X112350080Y-104800080D02*
X111900080Y-104350080D01*
X112350080Y-105850080D02*
X112350080Y-104800080D01*
X110300080Y-104350080D02*
X111850080Y-104350080D01*
X111850080Y-104350080D02*
X114950080Y-104350080D01*
D20*
X110750080Y-106850080D02*
X110750080Y-105850080D01*
X110722679Y-106877481D02*
X110750080Y-106850080D01*
X108697679Y-106877481D02*
X110722679Y-106877481D01*
X107225080Y-108350080D02*
X108697679Y-106877481D01*
D19*
X110750080Y-106900080D02*
X110750080Y-105850080D01*
X110747679Y-106902481D02*
X110750080Y-106900080D01*
X107225080Y-108350080D02*
X108672679Y-106902481D01*
X108672679Y-106902481D02*
X110747679Y-106902481D01*
D20*
X113900080Y-88125080D02*
X114875080Y-89100080D01*
X113900080Y-86800080D02*
X113900080Y-88125080D01*
X114875080Y-89900080D02*
X114875080Y-89100080D01*
X114875080Y-91725080D02*
X114875080Y-89900080D01*
X113150080Y-93450080D02*
X114875080Y-91725080D01*
X113150080Y-94450080D02*
X113150080Y-93450080D01*
X108350080Y-101425816D02*
X108350080Y-94450080D01*
X108350080Y-101850080D02*
X108350080Y-101425816D01*
X109150080Y-100195526D02*
X109095526Y-100250080D01*
X109150080Y-94450080D02*
X109150080Y-100195526D01*
X117250080Y-95625080D02*
X117100080Y-95475080D01*
X117250080Y-96150080D02*
X117250080Y-95625080D01*
X117100080Y-95475080D02*
X117100080Y-92100080D01*
X117100080Y-92100080D02*
X117800080Y-91400080D01*
X117800080Y-91400080D02*
X117800080Y-91400080D01*
D19*
X109875080Y-105975080D02*
X110000080Y-105850080D01*
D20*
X97900080Y-105628080D02*
X101517954Y-105628080D01*
X104595954Y-102550080D02*
X105850080Y-102550080D01*
X101517954Y-105628080D02*
X104595954Y-102550080D01*
X106950080Y-95050080D02*
X107550080Y-94450080D01*
X105900080Y-95050080D02*
X106950080Y-95050080D01*
X104300080Y-104000080D02*
X104300080Y-104000080D01*
X100640080Y-107660080D02*
X104300080Y-104000080D01*
X97900080Y-107660080D02*
X100640080Y-107660080D01*
X99650080Y-101564080D02*
X99814080Y-101400080D01*
X97900080Y-101564080D02*
X99650080Y-101564080D01*
X99814080Y-101400080D02*
X101400080Y-101400080D01*
X101400080Y-101400080D02*
X101400080Y-101400080D01*
X100604080Y-103596080D02*
X100604080Y-103596080D01*
X100604080Y-103596080D02*
X97900080Y-103596080D01*
X110750080Y-93450080D02*
X108800080Y-91500080D01*
X110750080Y-94450080D02*
X110750080Y-93450080D01*
X108800080Y-90775080D02*
X109675080Y-89900080D01*
X108800080Y-91500080D02*
X108800080Y-90775080D01*
X109675080Y-87475080D02*
X109800080Y-87350080D01*
X109675080Y-89900080D02*
X109675080Y-87475080D01*
X107625080Y-90700080D02*
X107625080Y-89900080D01*
X107625080Y-91125080D02*
X107625080Y-90700080D01*
X109950080Y-93450080D02*
X107625080Y-91125080D01*
X109950080Y-94450080D02*
X109950080Y-93450080D01*
X107625080Y-87575080D02*
X107400080Y-87350080D01*
X107625080Y-89900080D02*
X107625080Y-87575080D01*
D21*
G36*
X104744816Y-104780344D02*
G01*
X104820951Y-104842826D01*
X104907813Y-104889255D01*
X105002063Y-104917845D01*
X105100080Y-104927499D01*
X106600080Y-104927499D01*
X106698097Y-104917845D01*
X106792347Y-104889255D01*
X106832215Y-104867945D01*
X106810905Y-104907813D01*
X106782315Y-105002063D01*
X106772661Y-105100080D01*
X106772661Y-106600080D01*
X106782315Y-106698097D01*
X106810905Y-106792347D01*
X106857334Y-106879209D01*
X106919816Y-106955344D01*
X106995951Y-107017826D01*
X107082813Y-107064255D01*
X107177063Y-107092845D01*
X107275080Y-107102499D01*
X107553422Y-107102499D01*
X107508260Y-107147661D01*
X107300079Y-107147661D01*
X107153290Y-107162119D01*
X107012141Y-107204935D01*
X106882058Y-107274466D01*
X106768039Y-107368039D01*
X106674466Y-107482058D01*
X106604935Y-107612141D01*
X106562119Y-107753290D01*
X106547661Y-107900079D01*
X106547661Y-108800081D01*
X106562119Y-108946870D01*
X106604935Y-109088019D01*
X106674466Y-109218102D01*
X106768039Y-109332121D01*
X106882058Y-109425694D01*
X107012141Y-109495225D01*
X107153290Y-109538041D01*
X107300079Y-109552499D01*
X107950081Y-109552499D01*
X108096870Y-109538041D01*
X108238019Y-109495225D01*
X108368102Y-109425694D01*
X108482121Y-109332121D01*
X108575694Y-109218102D01*
X108609414Y-109155017D01*
X108635905Y-109242347D01*
X108682334Y-109329209D01*
X108744816Y-109405344D01*
X108820951Y-109467826D01*
X108907813Y-109514255D01*
X109002063Y-109542845D01*
X109100080Y-109552499D01*
X109450080Y-109550080D01*
X109575080Y-109425080D01*
X109575080Y-108450080D01*
X109775080Y-108450080D01*
X109775080Y-109425080D01*
X109900080Y-109550080D01*
X110250080Y-109552499D01*
X110348097Y-109542845D01*
X110442347Y-109514255D01*
X110529209Y-109467826D01*
X110605344Y-109405344D01*
X110667826Y-109329209D01*
X110714255Y-109242347D01*
X110742243Y-109150080D01*
X116747661Y-109150080D01*
X116757315Y-109248097D01*
X116785905Y-109342347D01*
X116832334Y-109429209D01*
X116894816Y-109505344D01*
X116970951Y-109567826D01*
X117057813Y-109614255D01*
X117152063Y-109642845D01*
X117250080Y-109652499D01*
X117725080Y-109650080D01*
X117850080Y-109525080D01*
X117850080Y-108675080D01*
X116875080Y-108675080D01*
X116750080Y-108800080D01*
X116747661Y-109150080D01*
X110742243Y-109150080D01*
X110742845Y-109148097D01*
X110752499Y-109050080D01*
X110750080Y-108575080D01*
X110625080Y-108450080D01*
X109775080Y-108450080D01*
X109575080Y-108450080D01*
X109555080Y-108450080D01*
X109555080Y-108250080D01*
X109575080Y-108250080D01*
X109575080Y-108230080D01*
X109775080Y-108230080D01*
X109775080Y-108250080D01*
X110625080Y-108250080D01*
X110750080Y-108125080D01*
X110752499Y-107650080D01*
X110743152Y-107555179D01*
X110747679Y-107555625D01*
X110779600Y-107552481D01*
X110779611Y-107552481D01*
X110875101Y-107543076D01*
X110997627Y-107505908D01*
X111110547Y-107445551D01*
X111209522Y-107364324D01*
X111210604Y-107363005D01*
X111211923Y-107361923D01*
X111293150Y-107262948D01*
X111353507Y-107150028D01*
X111387634Y-107037526D01*
X111450080Y-106975080D01*
X111450080Y-106865638D01*
X111489255Y-106792347D01*
X111517845Y-106698097D01*
X111527499Y-106600080D01*
X111527499Y-105730080D01*
X111572661Y-105730080D01*
X111572661Y-106600080D01*
X111582315Y-106698097D01*
X111610905Y-106792347D01*
X111650080Y-106865638D01*
X111650080Y-106975080D01*
X111775080Y-107100080D01*
X111825080Y-107102499D01*
X111923097Y-107092845D01*
X111950080Y-107084660D01*
X111977063Y-107092845D01*
X112075080Y-107102499D01*
X112625080Y-107102499D01*
X112723097Y-107092845D01*
X112750080Y-107084660D01*
X112777063Y-107092845D01*
X112875080Y-107102499D01*
X113425080Y-107102499D01*
X113523097Y-107092845D01*
X113550080Y-107084660D01*
X113577063Y-107092845D01*
X113675080Y-107102499D01*
X114225080Y-107102499D01*
X114323097Y-107092845D01*
X114350080Y-107084660D01*
X114377063Y-107092845D01*
X114475080Y-107102499D01*
X115025080Y-107102499D01*
X115123097Y-107092845D01*
X115150080Y-107084660D01*
X115177063Y-107092845D01*
X115275080Y-107102499D01*
X115825080Y-107102499D01*
X115923097Y-107092845D01*
X116017347Y-107064255D01*
X116104209Y-107017826D01*
X116180344Y-106955344D01*
X116242826Y-106879209D01*
X116289255Y-106792347D01*
X116317845Y-106698097D01*
X116327499Y-106600080D01*
X116327499Y-105100080D01*
X116317845Y-105002063D01*
X116289255Y-104907813D01*
X116267945Y-104867945D01*
X116307813Y-104889255D01*
X116402063Y-104917845D01*
X116500080Y-104927499D01*
X117652481Y-104927499D01*
X117652481Y-105228441D01*
X117513038Y-105367884D01*
X117488238Y-105388237D01*
X117467885Y-105413037D01*
X117467882Y-105413040D01*
X117434139Y-105454156D01*
X117353290Y-105462119D01*
X117212141Y-105504935D01*
X117082058Y-105574466D01*
X116968039Y-105668039D01*
X116874466Y-105782058D01*
X116804935Y-105912141D01*
X116762119Y-106053290D01*
X116747661Y-106200079D01*
X116747661Y-106850081D01*
X116762119Y-106996870D01*
X116804935Y-107138019D01*
X116874466Y-107268102D01*
X116968039Y-107382121D01*
X117082058Y-107475694D01*
X117145143Y-107509414D01*
X117057813Y-107535905D01*
X116970951Y-107582334D01*
X116894816Y-107644816D01*
X116832334Y-107720951D01*
X116785905Y-107807813D01*
X116757315Y-107902063D01*
X116747661Y-108000080D01*
X116750080Y-108350080D01*
X116875080Y-108475080D01*
X117850080Y-108475080D01*
X117850080Y-108455080D01*
X118050080Y-108455080D01*
X118050080Y-108475080D01*
X118070080Y-108475080D01*
X118070080Y-108675080D01*
X118050080Y-108675080D01*
X118050080Y-109525080D01*
X118175080Y-109650080D01*
X118650080Y-109652499D01*
X118748097Y-109642845D01*
X118842347Y-109614255D01*
X118925080Y-109570033D01*
X118925080Y-110925080D01*
X101075080Y-110925080D01*
X101075080Y-108428326D01*
X101077862Y-108400080D01*
X101066760Y-108287360D01*
X101033881Y-108178972D01*
X101021416Y-108155652D01*
X101084160Y-108104160D01*
X101103738Y-108080304D01*
X104385228Y-104798816D01*
X104533431Y-104769337D01*
X104679022Y-104709031D01*
X104683717Y-104705894D01*
X104744816Y-104780344D01*
X104744816Y-104780344D01*
G37*
X104744816Y-104780344D02*
X104820951Y-104842826D01*
X104907813Y-104889255D01*
X105002063Y-104917845D01*
X105100080Y-104927499D01*
X106600080Y-104927499D01*
X106698097Y-104917845D01*
X106792347Y-104889255D01*
X106832215Y-104867945D01*
X106810905Y-104907813D01*
X106782315Y-105002063D01*
X106772661Y-105100080D01*
X106772661Y-106600080D01*
X106782315Y-106698097D01*
X106810905Y-106792347D01*
X106857334Y-106879209D01*
X106919816Y-106955344D01*
X106995951Y-107017826D01*
X107082813Y-107064255D01*
X107177063Y-107092845D01*
X107275080Y-107102499D01*
X107553422Y-107102499D01*
X107508260Y-107147661D01*
X107300079Y-107147661D01*
X107153290Y-107162119D01*
X107012141Y-107204935D01*
X106882058Y-107274466D01*
X106768039Y-107368039D01*
X106674466Y-107482058D01*
X106604935Y-107612141D01*
X106562119Y-107753290D01*
X106547661Y-107900079D01*
X106547661Y-108800081D01*
X106562119Y-108946870D01*
X106604935Y-109088019D01*
X106674466Y-109218102D01*
X106768039Y-109332121D01*
X106882058Y-109425694D01*
X107012141Y-109495225D01*
X107153290Y-109538041D01*
X107300079Y-109552499D01*
X107950081Y-109552499D01*
X108096870Y-109538041D01*
X108238019Y-109495225D01*
X108368102Y-109425694D01*
X108482121Y-109332121D01*
X108575694Y-109218102D01*
X108609414Y-109155017D01*
X108635905Y-109242347D01*
X108682334Y-109329209D01*
X108744816Y-109405344D01*
X108820951Y-109467826D01*
X108907813Y-109514255D01*
X109002063Y-109542845D01*
X109100080Y-109552499D01*
X109450080Y-109550080D01*
X109575080Y-109425080D01*
X109575080Y-108450080D01*
X109775080Y-108450080D01*
X109775080Y-109425080D01*
X109900080Y-109550080D01*
X110250080Y-109552499D01*
X110348097Y-109542845D01*
X110442347Y-109514255D01*
X110529209Y-109467826D01*
X110605344Y-109405344D01*
X110667826Y-109329209D01*
X110714255Y-109242347D01*
X110742243Y-109150080D01*
X116747661Y-109150080D01*
X116757315Y-109248097D01*
X116785905Y-109342347D01*
X116832334Y-109429209D01*
X116894816Y-109505344D01*
X116970951Y-109567826D01*
X117057813Y-109614255D01*
X117152063Y-109642845D01*
X117250080Y-109652499D01*
X117725080Y-109650080D01*
X117850080Y-109525080D01*
X117850080Y-108675080D01*
X116875080Y-108675080D01*
X116750080Y-108800080D01*
X116747661Y-109150080D01*
X110742243Y-109150080D01*
X110742845Y-109148097D01*
X110752499Y-109050080D01*
X110750080Y-108575080D01*
X110625080Y-108450080D01*
X109775080Y-108450080D01*
X109575080Y-108450080D01*
X109555080Y-108450080D01*
X109555080Y-108250080D01*
X109575080Y-108250080D01*
X109575080Y-108230080D01*
X109775080Y-108230080D01*
X109775080Y-108250080D01*
X110625080Y-108250080D01*
X110750080Y-108125080D01*
X110752499Y-107650080D01*
X110743152Y-107555179D01*
X110747679Y-107555625D01*
X110779600Y-107552481D01*
X110779611Y-107552481D01*
X110875101Y-107543076D01*
X110997627Y-107505908D01*
X111110547Y-107445551D01*
X111209522Y-107364324D01*
X111210604Y-107363005D01*
X111211923Y-107361923D01*
X111293150Y-107262948D01*
X111353507Y-107150028D01*
X111387634Y-107037526D01*
X111450080Y-106975080D01*
X111450080Y-106865638D01*
X111489255Y-106792347D01*
X111517845Y-106698097D01*
X111527499Y-106600080D01*
X111527499Y-105730080D01*
X111572661Y-105730080D01*
X111572661Y-106600080D01*
X111582315Y-106698097D01*
X111610905Y-106792347D01*
X111650080Y-106865638D01*
X111650080Y-106975080D01*
X111775080Y-107100080D01*
X111825080Y-107102499D01*
X111923097Y-107092845D01*
X111950080Y-107084660D01*
X111977063Y-107092845D01*
X112075080Y-107102499D01*
X112625080Y-107102499D01*
X112723097Y-107092845D01*
X112750080Y-107084660D01*
X112777063Y-107092845D01*
X112875080Y-107102499D01*
X113425080Y-107102499D01*
X113523097Y-107092845D01*
X113550080Y-107084660D01*
X113577063Y-107092845D01*
X113675080Y-107102499D01*
X114225080Y-107102499D01*
X114323097Y-107092845D01*
X114350080Y-107084660D01*
X114377063Y-107092845D01*
X114475080Y-107102499D01*
X115025080Y-107102499D01*
X115123097Y-107092845D01*
X115150080Y-107084660D01*
X115177063Y-107092845D01*
X115275080Y-107102499D01*
X115825080Y-107102499D01*
X115923097Y-107092845D01*
X116017347Y-107064255D01*
X116104209Y-107017826D01*
X116180344Y-106955344D01*
X116242826Y-106879209D01*
X116289255Y-106792347D01*
X116317845Y-106698097D01*
X116327499Y-106600080D01*
X116327499Y-105100080D01*
X116317845Y-105002063D01*
X116289255Y-104907813D01*
X116267945Y-104867945D01*
X116307813Y-104889255D01*
X116402063Y-104917845D01*
X116500080Y-104927499D01*
X117652481Y-104927499D01*
X117652481Y-105228441D01*
X117513038Y-105367884D01*
X117488238Y-105388237D01*
X117467885Y-105413037D01*
X117467882Y-105413040D01*
X117434139Y-105454156D01*
X117353290Y-105462119D01*
X117212141Y-105504935D01*
X117082058Y-105574466D01*
X116968039Y-105668039D01*
X116874466Y-105782058D01*
X116804935Y-105912141D01*
X116762119Y-106053290D01*
X116747661Y-106200079D01*
X116747661Y-106850081D01*
X116762119Y-106996870D01*
X116804935Y-107138019D01*
X116874466Y-107268102D01*
X116968039Y-107382121D01*
X117082058Y-107475694D01*
X117145143Y-107509414D01*
X117057813Y-107535905D01*
X116970951Y-107582334D01*
X116894816Y-107644816D01*
X116832334Y-107720951D01*
X116785905Y-107807813D01*
X116757315Y-107902063D01*
X116747661Y-108000080D01*
X116750080Y-108350080D01*
X116875080Y-108475080D01*
X117850080Y-108475080D01*
X117850080Y-108455080D01*
X118050080Y-108455080D01*
X118050080Y-108475080D01*
X118070080Y-108475080D01*
X118070080Y-108675080D01*
X118050080Y-108675080D01*
X118050080Y-109525080D01*
X118175080Y-109650080D01*
X118650080Y-109652499D01*
X118748097Y-109642845D01*
X118842347Y-109614255D01*
X118925080Y-109570033D01*
X118925080Y-110925080D01*
X101075080Y-110925080D01*
X101075080Y-108428326D01*
X101077862Y-108400080D01*
X101066760Y-108287360D01*
X101033881Y-108178972D01*
X101021416Y-108155652D01*
X101084160Y-108104160D01*
X101103738Y-108080304D01*
X104385228Y-104798816D01*
X104533431Y-104769337D01*
X104679022Y-104709031D01*
X104683717Y-104705894D01*
X104744816Y-104780344D01*
G36*
X118925080Y-100765736D02*
G01*
X118905908Y-100702533D01*
X118845551Y-100589613D01*
X118764324Y-100490638D01*
X118763005Y-100489556D01*
X118761923Y-100488237D01*
X118662948Y-100407010D01*
X118550028Y-100346653D01*
X118437526Y-100312526D01*
X118375080Y-100250080D01*
X118265638Y-100250080D01*
X118192347Y-100210905D01*
X118098097Y-100182315D01*
X118000080Y-100172661D01*
X117130080Y-100172661D01*
X117130080Y-100127499D01*
X118000080Y-100127499D01*
X118098097Y-100117845D01*
X118192347Y-100089255D01*
X118265638Y-100050080D01*
X118375080Y-100050080D01*
X118500080Y-99925080D01*
X118502499Y-99875080D01*
X118492845Y-99777063D01*
X118484660Y-99750080D01*
X118492845Y-99723097D01*
X118502499Y-99625080D01*
X118502499Y-99075080D01*
X118492845Y-98977063D01*
X118484660Y-98950080D01*
X118492845Y-98923097D01*
X118502499Y-98825080D01*
X118502499Y-98275080D01*
X118492845Y-98177063D01*
X118484660Y-98150080D01*
X118492845Y-98123097D01*
X118502499Y-98025080D01*
X118502499Y-97475080D01*
X118492845Y-97377063D01*
X118484660Y-97350080D01*
X118492845Y-97323097D01*
X118502499Y-97225080D01*
X118502499Y-96675080D01*
X118492845Y-96577063D01*
X118484660Y-96550080D01*
X118492845Y-96523097D01*
X118502499Y-96425080D01*
X118502499Y-95875080D01*
X118492845Y-95777063D01*
X118464255Y-95682813D01*
X118417826Y-95595951D01*
X118355344Y-95519816D01*
X118279209Y-95457334D01*
X118192347Y-95410905D01*
X118098097Y-95382315D01*
X118000080Y-95372661D01*
X117823839Y-95372661D01*
X117772263Y-95276169D01*
X117725080Y-95218676D01*
X117725080Y-92358963D01*
X117885227Y-92198816D01*
X118033431Y-92169337D01*
X118179022Y-92109031D01*
X118310050Y-92021481D01*
X118421481Y-91910050D01*
X118509031Y-91779022D01*
X118569337Y-91633431D01*
X118600080Y-91478873D01*
X118600080Y-91321287D01*
X118569337Y-91166729D01*
X118509031Y-91021138D01*
X118421481Y-90890110D01*
X118310050Y-90778679D01*
X118179022Y-90691129D01*
X118033431Y-90630823D01*
X117878873Y-90600080D01*
X117721287Y-90600080D01*
X117566729Y-90630823D01*
X117421138Y-90691129D01*
X117290110Y-90778679D01*
X117178679Y-90890110D01*
X117091129Y-91021138D01*
X117030823Y-91166729D01*
X117001344Y-91314933D01*
X116679851Y-91636427D01*
X116656001Y-91656000D01*
X116599308Y-91725081D01*
X116577898Y-91751169D01*
X116519862Y-91859746D01*
X116484124Y-91977559D01*
X116472057Y-92100080D01*
X116475081Y-92130784D01*
X116475080Y-95375123D01*
X116402063Y-95382315D01*
X116307813Y-95410905D01*
X116267945Y-95432215D01*
X116289255Y-95392347D01*
X116317845Y-95298097D01*
X116327499Y-95200080D01*
X116327499Y-95092397D01*
X116350080Y-94978873D01*
X116350080Y-94821287D01*
X116327499Y-94707763D01*
X116327499Y-93700080D01*
X116317845Y-93602063D01*
X116289255Y-93507813D01*
X116242826Y-93420951D01*
X116180344Y-93344816D01*
X116104209Y-93282334D01*
X116017347Y-93235905D01*
X115923097Y-93207315D01*
X115825080Y-93197661D01*
X115275080Y-93197661D01*
X115177063Y-93207315D01*
X115150080Y-93215500D01*
X115123097Y-93207315D01*
X115025080Y-93197661D01*
X114475080Y-93197661D01*
X114377063Y-93207315D01*
X114350080Y-93215500D01*
X114323097Y-93207315D01*
X114280885Y-93203157D01*
X115295316Y-92188728D01*
X115319160Y-92169160D01*
X115362757Y-92116037D01*
X115397262Y-92073993D01*
X115455298Y-91965416D01*
X115461746Y-91944160D01*
X115491037Y-91847601D01*
X115500080Y-91755784D01*
X115500080Y-91755775D01*
X115503103Y-91725081D01*
X115500080Y-91694387D01*
X115500080Y-90238778D01*
X115618102Y-90175694D01*
X115732121Y-90082121D01*
X115825694Y-89968102D01*
X115895225Y-89838019D01*
X115938041Y-89696870D01*
X115952499Y-89550081D01*
X115952499Y-88650079D01*
X115938041Y-88503290D01*
X115895225Y-88362141D01*
X115825694Y-88232058D01*
X115732121Y-88118039D01*
X115618102Y-88024466D01*
X115488019Y-87954935D01*
X115346870Y-87912119D01*
X115200081Y-87897661D01*
X114556543Y-87897661D01*
X114525080Y-87866198D01*
X114525080Y-87846759D01*
X114579209Y-87817826D01*
X114655344Y-87755344D01*
X114717826Y-87679209D01*
X114764255Y-87592347D01*
X114792845Y-87498097D01*
X114802499Y-87400080D01*
X114802499Y-86400080D01*
X114792845Y-86302063D01*
X114764255Y-86207813D01*
X114717826Y-86120951D01*
X114655344Y-86044816D01*
X114579209Y-85982334D01*
X114492347Y-85935905D01*
X114398097Y-85907315D01*
X114300080Y-85897661D01*
X112300080Y-85897661D01*
X112202063Y-85907315D01*
X112107813Y-85935905D01*
X112020951Y-85982334D01*
X111944816Y-86044816D01*
X111882334Y-86120951D01*
X111835905Y-86207813D01*
X111807315Y-86302063D01*
X111797661Y-86400080D01*
X111797661Y-87400080D01*
X111807315Y-87498097D01*
X111835905Y-87592347D01*
X111882334Y-87679209D01*
X111944816Y-87755344D01*
X112020951Y-87817826D01*
X112107813Y-87864255D01*
X112202063Y-87892845D01*
X112300080Y-87902499D01*
X112450960Y-87902499D01*
X112353290Y-87912119D01*
X112212141Y-87954935D01*
X112082058Y-88024466D01*
X111968039Y-88118039D01*
X111874466Y-88232058D01*
X111804935Y-88362141D01*
X111762119Y-88503290D01*
X111747661Y-88650079D01*
X111747661Y-89550081D01*
X111762119Y-89696870D01*
X111804935Y-89838019D01*
X111874466Y-89968102D01*
X111968039Y-90082121D01*
X112082058Y-90175694D01*
X112200080Y-90238778D01*
X112200081Y-90714833D01*
X112182058Y-90724466D01*
X112068039Y-90818039D01*
X111974466Y-90932058D01*
X111940746Y-90995143D01*
X111914255Y-90907813D01*
X111867826Y-90820951D01*
X111805344Y-90744816D01*
X111729209Y-90682334D01*
X111642347Y-90635905D01*
X111548097Y-90607315D01*
X111450080Y-90597661D01*
X111100080Y-90600080D01*
X110975080Y-90725080D01*
X110975080Y-91700080D01*
X110995080Y-91700080D01*
X110995080Y-91900080D01*
X110975080Y-91900080D01*
X110975080Y-91920080D01*
X110775080Y-91920080D01*
X110775080Y-91900080D01*
X110755080Y-91900080D01*
X110755080Y-91700080D01*
X110775080Y-91700080D01*
X110775080Y-90725080D01*
X110692715Y-90642715D01*
X110695225Y-90638019D01*
X110738041Y-90496870D01*
X110752499Y-90350081D01*
X110752499Y-89450079D01*
X110738041Y-89303290D01*
X110695225Y-89162141D01*
X110625694Y-89032058D01*
X110532121Y-88918039D01*
X110418102Y-88824466D01*
X110329091Y-88776889D01*
X110355344Y-88755344D01*
X110417826Y-88679209D01*
X110464255Y-88592347D01*
X110492845Y-88498097D01*
X110502499Y-88400080D01*
X110502499Y-86300080D01*
X110492845Y-86202063D01*
X110464255Y-86107813D01*
X110417826Y-86020951D01*
X110355344Y-85944816D01*
X110279209Y-85882334D01*
X110192347Y-85835905D01*
X110098097Y-85807315D01*
X110000080Y-85797661D01*
X109600080Y-85797661D01*
X109502063Y-85807315D01*
X109407813Y-85835905D01*
X109320951Y-85882334D01*
X109244816Y-85944816D01*
X109199963Y-85999470D01*
X109158743Y-85948248D01*
X109083213Y-85885037D01*
X108996802Y-85837775D01*
X108902830Y-85808280D01*
X108825080Y-85800080D01*
X108700080Y-85925080D01*
X108700080Y-87250080D01*
X108720080Y-87250080D01*
X108720080Y-87450080D01*
X108700080Y-87450080D01*
X108700080Y-88775080D01*
X108825080Y-88900080D01*
X108842111Y-88898284D01*
X108818039Y-88918039D01*
X108724466Y-89032058D01*
X108654935Y-89162141D01*
X108650080Y-89178146D01*
X108645225Y-89162141D01*
X108575694Y-89032058D01*
X108482121Y-88918039D01*
X108413465Y-88861695D01*
X108500080Y-88775080D01*
X108500080Y-87450080D01*
X108480080Y-87450080D01*
X108480080Y-87250080D01*
X108500080Y-87250080D01*
X108500080Y-85925080D01*
X108375080Y-85800080D01*
X108297330Y-85808280D01*
X108203358Y-85837775D01*
X108116947Y-85885037D01*
X108041417Y-85948248D01*
X108000197Y-85999470D01*
X107955344Y-85944816D01*
X107879209Y-85882334D01*
X107792347Y-85835905D01*
X107698097Y-85807315D01*
X107600080Y-85797661D01*
X107200080Y-85797661D01*
X107102063Y-85807315D01*
X107007813Y-85835905D01*
X106920951Y-85882334D01*
X106844816Y-85944816D01*
X106782334Y-86020951D01*
X106735905Y-86107813D01*
X106707315Y-86202063D01*
X106697661Y-86300080D01*
X106697661Y-88400080D01*
X106707315Y-88498097D01*
X106735905Y-88592347D01*
X106782334Y-88679209D01*
X106844816Y-88755344D01*
X106910511Y-88809258D01*
X106882058Y-88824466D01*
X106768039Y-88918039D01*
X106674466Y-89032058D01*
X106604935Y-89162141D01*
X106562119Y-89303290D01*
X106547661Y-89450079D01*
X106547661Y-90350081D01*
X106562119Y-90496870D01*
X106604935Y-90638019D01*
X106674466Y-90768102D01*
X106768039Y-90882121D01*
X106882058Y-90975694D01*
X107000080Y-91038778D01*
X107000080Y-91094386D01*
X106997057Y-91125080D01*
X107000080Y-91155774D01*
X107000080Y-91155783D01*
X107009123Y-91247600D01*
X107044861Y-91365413D01*
X107102897Y-91473990D01*
X107181000Y-91569160D01*
X107204856Y-91588738D01*
X108819274Y-93203157D01*
X108777063Y-93207315D01*
X108750080Y-93215500D01*
X108723097Y-93207315D01*
X108625080Y-93197661D01*
X108075080Y-93197661D01*
X107977063Y-93207315D01*
X107950080Y-93215500D01*
X107923097Y-93207315D01*
X107825080Y-93197661D01*
X107275080Y-93197661D01*
X107177063Y-93207315D01*
X107082813Y-93235905D01*
X106995951Y-93282334D01*
X106919816Y-93344816D01*
X106857334Y-93420951D01*
X106810905Y-93507813D01*
X106782315Y-93602063D01*
X106772661Y-93700080D01*
X106772661Y-94343617D01*
X106691198Y-94425080D01*
X106404664Y-94425080D01*
X106279022Y-94341129D01*
X106133431Y-94280823D01*
X105978873Y-94250080D01*
X105821287Y-94250080D01*
X105666729Y-94280823D01*
X105521138Y-94341129D01*
X105390110Y-94428679D01*
X105278679Y-94540110D01*
X105191129Y-94671138D01*
X105130823Y-94816729D01*
X105100080Y-94971287D01*
X105100080Y-95128873D01*
X105130823Y-95283431D01*
X105167783Y-95372661D01*
X105100080Y-95372661D01*
X105002063Y-95382315D01*
X104907813Y-95410905D01*
X104820951Y-95457334D01*
X104744816Y-95519816D01*
X104682334Y-95595951D01*
X104635905Y-95682813D01*
X104607315Y-95777063D01*
X104597661Y-95875080D01*
X104597661Y-96425080D01*
X104607315Y-96523097D01*
X104615500Y-96550080D01*
X104607315Y-96577063D01*
X104597661Y-96675080D01*
X104597661Y-97225080D01*
X104607315Y-97323097D01*
X104615500Y-97350080D01*
X104607315Y-97377063D01*
X104597661Y-97475080D01*
X104597661Y-98025080D01*
X104607315Y-98123097D01*
X104615500Y-98150080D01*
X104607315Y-98177063D01*
X104597661Y-98275080D01*
X104597661Y-98825080D01*
X104603466Y-98884015D01*
X104575694Y-98832058D01*
X104482121Y-98718039D01*
X104368102Y-98624466D01*
X104238019Y-98554935D01*
X104096870Y-98512119D01*
X103950081Y-98497661D01*
X103050079Y-98497661D01*
X102903290Y-98512119D01*
X102762141Y-98554935D01*
X102632058Y-98624466D01*
X102518039Y-98718039D01*
X102424466Y-98832058D01*
X102354935Y-98962141D01*
X102312119Y-99103290D01*
X102297661Y-99250079D01*
X102297661Y-99900081D01*
X102312119Y-100046870D01*
X102354935Y-100188019D01*
X102424466Y-100318102D01*
X102518039Y-100432121D01*
X102632058Y-100525694D01*
X102695143Y-100559414D01*
X102607813Y-100585905D01*
X102520951Y-100632334D01*
X102444816Y-100694816D01*
X102382334Y-100770951D01*
X102335905Y-100857813D01*
X102307315Y-100952063D01*
X102297661Y-101050080D01*
X102300080Y-101400080D01*
X102425080Y-101525080D01*
X103400080Y-101525080D01*
X103400080Y-101505080D01*
X103600080Y-101505080D01*
X103600080Y-101525080D01*
X103620080Y-101525080D01*
X103620080Y-101725080D01*
X103600080Y-101725080D01*
X103600080Y-102575080D01*
X103643576Y-102618576D01*
X101259072Y-105003080D01*
X100567265Y-105003080D01*
X100568216Y-104396080D01*
X100682873Y-104396080D01*
X100837431Y-104365337D01*
X100983022Y-104305031D01*
X101114050Y-104217481D01*
X101225481Y-104106050D01*
X101313031Y-103975022D01*
X101373337Y-103829431D01*
X101404080Y-103674873D01*
X101404080Y-103517287D01*
X101373337Y-103362729D01*
X101313031Y-103217138D01*
X101225481Y-103086110D01*
X101172727Y-103033356D01*
X101209031Y-102979022D01*
X101269337Y-102833431D01*
X101300080Y-102678873D01*
X101300080Y-102521287D01*
X101269337Y-102366729D01*
X101209031Y-102221138D01*
X101175597Y-102171101D01*
X101321287Y-102200080D01*
X101478873Y-102200080D01*
X102297661Y-102200080D01*
X102307315Y-102298097D01*
X102335905Y-102392347D01*
X102382334Y-102479209D01*
X102444816Y-102555344D01*
X102520951Y-102617826D01*
X102607813Y-102664255D01*
X102702063Y-102692845D01*
X102800080Y-102702499D01*
X103275080Y-102700080D01*
X103400080Y-102575080D01*
X103400080Y-101725080D01*
X102425080Y-101725080D01*
X102300080Y-101850080D01*
X102297661Y-102200080D01*
X101478873Y-102200080D01*
X101633431Y-102169337D01*
X101779022Y-102109031D01*
X101910050Y-102021481D01*
X102021481Y-101910050D01*
X102109031Y-101779022D01*
X102169337Y-101633431D01*
X102200080Y-101478873D01*
X102200080Y-101321287D01*
X102169337Y-101166729D01*
X102109031Y-101021138D01*
X102021481Y-100890110D01*
X101910050Y-100778679D01*
X101779022Y-100691129D01*
X101633431Y-100630823D01*
X101478873Y-100600080D01*
X101321287Y-100600080D01*
X101166729Y-100630823D01*
X101021138Y-100691129D01*
X100895496Y-100775080D01*
X100573886Y-100775080D01*
X100577856Y-98240382D01*
X100589582Y-98239227D01*
X100730957Y-98196341D01*
X100861249Y-98126699D01*
X100975451Y-98032975D01*
X100998935Y-98004360D01*
X104054367Y-94948929D01*
X104082975Y-94925451D01*
X104176699Y-94811249D01*
X104246341Y-94680957D01*
X104285309Y-94552499D01*
X104350081Y-94552499D01*
X104496870Y-94538041D01*
X104638019Y-94495225D01*
X104768102Y-94425694D01*
X104882121Y-94332121D01*
X104975694Y-94218102D01*
X105045225Y-94088019D01*
X105088041Y-93946870D01*
X105102499Y-93800081D01*
X105102499Y-93150079D01*
X105088041Y-93003290D01*
X105045225Y-92862141D01*
X104975694Y-92732058D01*
X104882121Y-92618039D01*
X104768102Y-92524466D01*
X104705017Y-92490746D01*
X104792347Y-92464255D01*
X104879209Y-92417826D01*
X104955344Y-92355344D01*
X105017826Y-92279209D01*
X105064255Y-92192347D01*
X105092845Y-92098097D01*
X105102499Y-92000080D01*
X105100080Y-91650080D01*
X104975080Y-91525080D01*
X104000080Y-91525080D01*
X104000080Y-91545080D01*
X103800080Y-91545080D01*
X103800080Y-91525080D01*
X102825080Y-91525080D01*
X102700080Y-91650080D01*
X102697661Y-92000080D01*
X102707315Y-92098097D01*
X102735905Y-92192347D01*
X102782334Y-92279209D01*
X102844816Y-92355344D01*
X102920951Y-92417826D01*
X103007813Y-92464255D01*
X103095143Y-92490746D01*
X103032058Y-92524466D01*
X102918039Y-92618039D01*
X102824466Y-92732058D01*
X102754935Y-92862141D01*
X102712119Y-93003290D01*
X102697661Y-93150079D01*
X102697661Y-93800081D01*
X102712119Y-93946870D01*
X102754935Y-94088019D01*
X102768527Y-94113449D01*
X102575080Y-94306896D01*
X102575080Y-90850080D01*
X102697661Y-90850080D01*
X102700080Y-91200080D01*
X102825080Y-91325080D01*
X103800080Y-91325080D01*
X103800080Y-90475080D01*
X104000080Y-90475080D01*
X104000080Y-91325080D01*
X104975080Y-91325080D01*
X105100080Y-91200080D01*
X105102499Y-90850080D01*
X105092845Y-90752063D01*
X105064255Y-90657813D01*
X105017826Y-90570951D01*
X104955344Y-90494816D01*
X104879209Y-90432334D01*
X104792347Y-90385905D01*
X104698097Y-90357315D01*
X104600080Y-90347661D01*
X104125080Y-90350080D01*
X104000080Y-90475080D01*
X103800080Y-90475080D01*
X103675080Y-90350080D01*
X103200080Y-90347661D01*
X103102063Y-90357315D01*
X103007813Y-90385905D01*
X102920951Y-90432334D01*
X102844816Y-90494816D01*
X102782334Y-90570951D01*
X102735905Y-90657813D01*
X102707315Y-90752063D01*
X102697661Y-90850080D01*
X102575080Y-90850080D01*
X102575080Y-86718850D01*
X102668039Y-86832121D01*
X102782058Y-86925694D01*
X102912141Y-86995225D01*
X103053290Y-87038041D01*
X103200079Y-87052499D01*
X103850081Y-87052499D01*
X103996870Y-87038041D01*
X104138019Y-86995225D01*
X104268102Y-86925694D01*
X104382121Y-86832121D01*
X104475694Y-86718102D01*
X104509414Y-86655017D01*
X104535905Y-86742347D01*
X104582334Y-86829209D01*
X104644816Y-86905344D01*
X104720951Y-86967826D01*
X104807813Y-87014255D01*
X104902063Y-87042845D01*
X105000080Y-87052499D01*
X105350080Y-87050080D01*
X105475080Y-86925080D01*
X105475080Y-85950080D01*
X105675080Y-85950080D01*
X105675080Y-86925080D01*
X105800080Y-87050080D01*
X106150080Y-87052499D01*
X106248097Y-87042845D01*
X106342347Y-87014255D01*
X106429209Y-86967826D01*
X106505344Y-86905344D01*
X106567826Y-86829209D01*
X106614255Y-86742347D01*
X106642845Y-86648097D01*
X106652499Y-86550080D01*
X106650080Y-86075080D01*
X106525080Y-85950080D01*
X105675080Y-85950080D01*
X105475080Y-85950080D01*
X105455080Y-85950080D01*
X105455080Y-85750080D01*
X105475080Y-85750080D01*
X105475080Y-85730080D01*
X105675080Y-85730080D01*
X105675080Y-85750080D01*
X106525080Y-85750080D01*
X106650080Y-85625080D01*
X106652499Y-85150080D01*
X106642845Y-85052063D01*
X106614255Y-84957813D01*
X106567826Y-84870951D01*
X106505344Y-84794816D01*
X106429209Y-84732334D01*
X106342347Y-84685905D01*
X106306661Y-84675080D01*
X118925081Y-84675080D01*
X118925080Y-100765736D01*
X118925080Y-100765736D01*
G37*
X118925080Y-100765736D02*
X118905908Y-100702533D01*
X118845551Y-100589613D01*
X118764324Y-100490638D01*
X118763005Y-100489556D01*
X118761923Y-100488237D01*
X118662948Y-100407010D01*
X118550028Y-100346653D01*
X118437526Y-100312526D01*
X118375080Y-100250080D01*
X118265638Y-100250080D01*
X118192347Y-100210905D01*
X118098097Y-100182315D01*
X118000080Y-100172661D01*
X117130080Y-100172661D01*
X117130080Y-100127499D01*
X118000080Y-100127499D01*
X118098097Y-100117845D01*
X118192347Y-100089255D01*
X118265638Y-100050080D01*
X118375080Y-100050080D01*
X118500080Y-99925080D01*
X118502499Y-99875080D01*
X118492845Y-99777063D01*
X118484660Y-99750080D01*
X118492845Y-99723097D01*
X118502499Y-99625080D01*
X118502499Y-99075080D01*
X118492845Y-98977063D01*
X118484660Y-98950080D01*
X118492845Y-98923097D01*
X118502499Y-98825080D01*
X118502499Y-98275080D01*
X118492845Y-98177063D01*
X118484660Y-98150080D01*
X118492845Y-98123097D01*
X118502499Y-98025080D01*
X118502499Y-97475080D01*
X118492845Y-97377063D01*
X118484660Y-97350080D01*
X118492845Y-97323097D01*
X118502499Y-97225080D01*
X118502499Y-96675080D01*
X118492845Y-96577063D01*
X118484660Y-96550080D01*
X118492845Y-96523097D01*
X118502499Y-96425080D01*
X118502499Y-95875080D01*
X118492845Y-95777063D01*
X118464255Y-95682813D01*
X118417826Y-95595951D01*
X118355344Y-95519816D01*
X118279209Y-95457334D01*
X118192347Y-95410905D01*
X118098097Y-95382315D01*
X118000080Y-95372661D01*
X117823839Y-95372661D01*
X117772263Y-95276169D01*
X117725080Y-95218676D01*
X117725080Y-92358963D01*
X117885227Y-92198816D01*
X118033431Y-92169337D01*
X118179022Y-92109031D01*
X118310050Y-92021481D01*
X118421481Y-91910050D01*
X118509031Y-91779022D01*
X118569337Y-91633431D01*
X118600080Y-91478873D01*
X118600080Y-91321287D01*
X118569337Y-91166729D01*
X118509031Y-91021138D01*
X118421481Y-90890110D01*
X118310050Y-90778679D01*
X118179022Y-90691129D01*
X118033431Y-90630823D01*
X117878873Y-90600080D01*
X117721287Y-90600080D01*
X117566729Y-90630823D01*
X117421138Y-90691129D01*
X117290110Y-90778679D01*
X117178679Y-90890110D01*
X117091129Y-91021138D01*
X117030823Y-91166729D01*
X117001344Y-91314933D01*
X116679851Y-91636427D01*
X116656001Y-91656000D01*
X116599308Y-91725081D01*
X116577898Y-91751169D01*
X116519862Y-91859746D01*
X116484124Y-91977559D01*
X116472057Y-92100080D01*
X116475081Y-92130784D01*
X116475080Y-95375123D01*
X116402063Y-95382315D01*
X116307813Y-95410905D01*
X116267945Y-95432215D01*
X116289255Y-95392347D01*
X116317845Y-95298097D01*
X116327499Y-95200080D01*
X116327499Y-95092397D01*
X116350080Y-94978873D01*
X116350080Y-94821287D01*
X116327499Y-94707763D01*
X116327499Y-93700080D01*
X116317845Y-93602063D01*
X116289255Y-93507813D01*
X116242826Y-93420951D01*
X116180344Y-93344816D01*
X116104209Y-93282334D01*
X116017347Y-93235905D01*
X115923097Y-93207315D01*
X115825080Y-93197661D01*
X115275080Y-93197661D01*
X115177063Y-93207315D01*
X115150080Y-93215500D01*
X115123097Y-93207315D01*
X115025080Y-93197661D01*
X114475080Y-93197661D01*
X114377063Y-93207315D01*
X114350080Y-93215500D01*
X114323097Y-93207315D01*
X114280885Y-93203157D01*
X115295316Y-92188728D01*
X115319160Y-92169160D01*
X115362757Y-92116037D01*
X115397262Y-92073993D01*
X115455298Y-91965416D01*
X115461746Y-91944160D01*
X115491037Y-91847601D01*
X115500080Y-91755784D01*
X115500080Y-91755775D01*
X115503103Y-91725081D01*
X115500080Y-91694387D01*
X115500080Y-90238778D01*
X115618102Y-90175694D01*
X115732121Y-90082121D01*
X115825694Y-89968102D01*
X115895225Y-89838019D01*
X115938041Y-89696870D01*
X115952499Y-89550081D01*
X115952499Y-88650079D01*
X115938041Y-88503290D01*
X115895225Y-88362141D01*
X115825694Y-88232058D01*
X115732121Y-88118039D01*
X115618102Y-88024466D01*
X115488019Y-87954935D01*
X115346870Y-87912119D01*
X115200081Y-87897661D01*
X114556543Y-87897661D01*
X114525080Y-87866198D01*
X114525080Y-87846759D01*
X114579209Y-87817826D01*
X114655344Y-87755344D01*
X114717826Y-87679209D01*
X114764255Y-87592347D01*
X114792845Y-87498097D01*
X114802499Y-87400080D01*
X114802499Y-86400080D01*
X114792845Y-86302063D01*
X114764255Y-86207813D01*
X114717826Y-86120951D01*
X114655344Y-86044816D01*
X114579209Y-85982334D01*
X114492347Y-85935905D01*
X114398097Y-85907315D01*
X114300080Y-85897661D01*
X112300080Y-85897661D01*
X112202063Y-85907315D01*
X112107813Y-85935905D01*
X112020951Y-85982334D01*
X111944816Y-86044816D01*
X111882334Y-86120951D01*
X111835905Y-86207813D01*
X111807315Y-86302063D01*
X111797661Y-86400080D01*
X111797661Y-87400080D01*
X111807315Y-87498097D01*
X111835905Y-87592347D01*
X111882334Y-87679209D01*
X111944816Y-87755344D01*
X112020951Y-87817826D01*
X112107813Y-87864255D01*
X112202063Y-87892845D01*
X112300080Y-87902499D01*
X112450960Y-87902499D01*
X112353290Y-87912119D01*
X112212141Y-87954935D01*
X112082058Y-88024466D01*
X111968039Y-88118039D01*
X111874466Y-88232058D01*
X111804935Y-88362141D01*
X111762119Y-88503290D01*
X111747661Y-88650079D01*
X111747661Y-89550081D01*
X111762119Y-89696870D01*
X111804935Y-89838019D01*
X111874466Y-89968102D01*
X111968039Y-90082121D01*
X112082058Y-90175694D01*
X112200080Y-90238778D01*
X112200081Y-90714833D01*
X112182058Y-90724466D01*
X112068039Y-90818039D01*
X111974466Y-90932058D01*
X111940746Y-90995143D01*
X111914255Y-90907813D01*
X111867826Y-90820951D01*
X111805344Y-90744816D01*
X111729209Y-90682334D01*
X111642347Y-90635905D01*
X111548097Y-90607315D01*
X111450080Y-90597661D01*
X111100080Y-90600080D01*
X110975080Y-90725080D01*
X110975080Y-91700080D01*
X110995080Y-91700080D01*
X110995080Y-91900080D01*
X110975080Y-91900080D01*
X110975080Y-91920080D01*
X110775080Y-91920080D01*
X110775080Y-91900080D01*
X110755080Y-91900080D01*
X110755080Y-91700080D01*
X110775080Y-91700080D01*
X110775080Y-90725080D01*
X110692715Y-90642715D01*
X110695225Y-90638019D01*
X110738041Y-90496870D01*
X110752499Y-90350081D01*
X110752499Y-89450079D01*
X110738041Y-89303290D01*
X110695225Y-89162141D01*
X110625694Y-89032058D01*
X110532121Y-88918039D01*
X110418102Y-88824466D01*
X110329091Y-88776889D01*
X110355344Y-88755344D01*
X110417826Y-88679209D01*
X110464255Y-88592347D01*
X110492845Y-88498097D01*
X110502499Y-88400080D01*
X110502499Y-86300080D01*
X110492845Y-86202063D01*
X110464255Y-86107813D01*
X110417826Y-86020951D01*
X110355344Y-85944816D01*
X110279209Y-85882334D01*
X110192347Y-85835905D01*
X110098097Y-85807315D01*
X110000080Y-85797661D01*
X109600080Y-85797661D01*
X109502063Y-85807315D01*
X109407813Y-85835905D01*
X109320951Y-85882334D01*
X109244816Y-85944816D01*
X109199963Y-85999470D01*
X109158743Y-85948248D01*
X109083213Y-85885037D01*
X108996802Y-85837775D01*
X108902830Y-85808280D01*
X108825080Y-85800080D01*
X108700080Y-85925080D01*
X108700080Y-87250080D01*
X108720080Y-87250080D01*
X108720080Y-87450080D01*
X108700080Y-87450080D01*
X108700080Y-88775080D01*
X108825080Y-88900080D01*
X108842111Y-88898284D01*
X108818039Y-88918039D01*
X108724466Y-89032058D01*
X108654935Y-89162141D01*
X108650080Y-89178146D01*
X108645225Y-89162141D01*
X108575694Y-89032058D01*
X108482121Y-88918039D01*
X108413465Y-88861695D01*
X108500080Y-88775080D01*
X108500080Y-87450080D01*
X108480080Y-87450080D01*
X108480080Y-87250080D01*
X108500080Y-87250080D01*
X108500080Y-85925080D01*
X108375080Y-85800080D01*
X108297330Y-85808280D01*
X108203358Y-85837775D01*
X108116947Y-85885037D01*
X108041417Y-85948248D01*
X108000197Y-85999470D01*
X107955344Y-85944816D01*
X107879209Y-85882334D01*
X107792347Y-85835905D01*
X107698097Y-85807315D01*
X107600080Y-85797661D01*
X107200080Y-85797661D01*
X107102063Y-85807315D01*
X107007813Y-85835905D01*
X106920951Y-85882334D01*
X106844816Y-85944816D01*
X106782334Y-86020951D01*
X106735905Y-86107813D01*
X106707315Y-86202063D01*
X106697661Y-86300080D01*
X106697661Y-88400080D01*
X106707315Y-88498097D01*
X106735905Y-88592347D01*
X106782334Y-88679209D01*
X106844816Y-88755344D01*
X106910511Y-88809258D01*
X106882058Y-88824466D01*
X106768039Y-88918039D01*
X106674466Y-89032058D01*
X106604935Y-89162141D01*
X106562119Y-89303290D01*
X106547661Y-89450079D01*
X106547661Y-90350081D01*
X106562119Y-90496870D01*
X106604935Y-90638019D01*
X106674466Y-90768102D01*
X106768039Y-90882121D01*
X106882058Y-90975694D01*
X107000080Y-91038778D01*
X107000080Y-91094386D01*
X106997057Y-91125080D01*
X107000080Y-91155774D01*
X107000080Y-91155783D01*
X107009123Y-91247600D01*
X107044861Y-91365413D01*
X107102897Y-91473990D01*
X107181000Y-91569160D01*
X107204856Y-91588738D01*
X108819274Y-93203157D01*
X108777063Y-93207315D01*
X108750080Y-93215500D01*
X108723097Y-93207315D01*
X108625080Y-93197661D01*
X108075080Y-93197661D01*
X107977063Y-93207315D01*
X107950080Y-93215500D01*
X107923097Y-93207315D01*
X107825080Y-93197661D01*
X107275080Y-93197661D01*
X107177063Y-93207315D01*
X107082813Y-93235905D01*
X106995951Y-93282334D01*
X106919816Y-93344816D01*
X106857334Y-93420951D01*
X106810905Y-93507813D01*
X106782315Y-93602063D01*
X106772661Y-93700080D01*
X106772661Y-94343617D01*
X106691198Y-94425080D01*
X106404664Y-94425080D01*
X106279022Y-94341129D01*
X106133431Y-94280823D01*
X105978873Y-94250080D01*
X105821287Y-94250080D01*
X105666729Y-94280823D01*
X105521138Y-94341129D01*
X105390110Y-94428679D01*
X105278679Y-94540110D01*
X105191129Y-94671138D01*
X105130823Y-94816729D01*
X105100080Y-94971287D01*
X105100080Y-95128873D01*
X105130823Y-95283431D01*
X105167783Y-95372661D01*
X105100080Y-95372661D01*
X105002063Y-95382315D01*
X104907813Y-95410905D01*
X104820951Y-95457334D01*
X104744816Y-95519816D01*
X104682334Y-95595951D01*
X104635905Y-95682813D01*
X104607315Y-95777063D01*
X104597661Y-95875080D01*
X104597661Y-96425080D01*
X104607315Y-96523097D01*
X104615500Y-96550080D01*
X104607315Y-96577063D01*
X104597661Y-96675080D01*
X104597661Y-97225080D01*
X104607315Y-97323097D01*
X104615500Y-97350080D01*
X104607315Y-97377063D01*
X104597661Y-97475080D01*
X104597661Y-98025080D01*
X104607315Y-98123097D01*
X104615500Y-98150080D01*
X104607315Y-98177063D01*
X104597661Y-98275080D01*
X104597661Y-98825080D01*
X104603466Y-98884015D01*
X104575694Y-98832058D01*
X104482121Y-98718039D01*
X104368102Y-98624466D01*
X104238019Y-98554935D01*
X104096870Y-98512119D01*
X103950081Y-98497661D01*
X103050079Y-98497661D01*
X102903290Y-98512119D01*
X102762141Y-98554935D01*
X102632058Y-98624466D01*
X102518039Y-98718039D01*
X102424466Y-98832058D01*
X102354935Y-98962141D01*
X102312119Y-99103290D01*
X102297661Y-99250079D01*
X102297661Y-99900081D01*
X102312119Y-100046870D01*
X102354935Y-100188019D01*
X102424466Y-100318102D01*
X102518039Y-100432121D01*
X102632058Y-100525694D01*
X102695143Y-100559414D01*
X102607813Y-100585905D01*
X102520951Y-100632334D01*
X102444816Y-100694816D01*
X102382334Y-100770951D01*
X102335905Y-100857813D01*
X102307315Y-100952063D01*
X102297661Y-101050080D01*
X102300080Y-101400080D01*
X102425080Y-101525080D01*
X103400080Y-101525080D01*
X103400080Y-101505080D01*
X103600080Y-101505080D01*
X103600080Y-101525080D01*
X103620080Y-101525080D01*
X103620080Y-101725080D01*
X103600080Y-101725080D01*
X103600080Y-102575080D01*
X103643576Y-102618576D01*
X101259072Y-105003080D01*
X100567265Y-105003080D01*
X100568216Y-104396080D01*
X100682873Y-104396080D01*
X100837431Y-104365337D01*
X100983022Y-104305031D01*
X101114050Y-104217481D01*
X101225481Y-104106050D01*
X101313031Y-103975022D01*
X101373337Y-103829431D01*
X101404080Y-103674873D01*
X101404080Y-103517287D01*
X101373337Y-103362729D01*
X101313031Y-103217138D01*
X101225481Y-103086110D01*
X101172727Y-103033356D01*
X101209031Y-102979022D01*
X101269337Y-102833431D01*
X101300080Y-102678873D01*
X101300080Y-102521287D01*
X101269337Y-102366729D01*
X101209031Y-102221138D01*
X101175597Y-102171101D01*
X101321287Y-102200080D01*
X101478873Y-102200080D01*
X102297661Y-102200080D01*
X102307315Y-102298097D01*
X102335905Y-102392347D01*
X102382334Y-102479209D01*
X102444816Y-102555344D01*
X102520951Y-102617826D01*
X102607813Y-102664255D01*
X102702063Y-102692845D01*
X102800080Y-102702499D01*
X103275080Y-102700080D01*
X103400080Y-102575080D01*
X103400080Y-101725080D01*
X102425080Y-101725080D01*
X102300080Y-101850080D01*
X102297661Y-102200080D01*
X101478873Y-102200080D01*
X101633431Y-102169337D01*
X101779022Y-102109031D01*
X101910050Y-102021481D01*
X102021481Y-101910050D01*
X102109031Y-101779022D01*
X102169337Y-101633431D01*
X102200080Y-101478873D01*
X102200080Y-101321287D01*
X102169337Y-101166729D01*
X102109031Y-101021138D01*
X102021481Y-100890110D01*
X101910050Y-100778679D01*
X101779022Y-100691129D01*
X101633431Y-100630823D01*
X101478873Y-100600080D01*
X101321287Y-100600080D01*
X101166729Y-100630823D01*
X101021138Y-100691129D01*
X100895496Y-100775080D01*
X100573886Y-100775080D01*
X100577856Y-98240382D01*
X100589582Y-98239227D01*
X100730957Y-98196341D01*
X100861249Y-98126699D01*
X100975451Y-98032975D01*
X100998935Y-98004360D01*
X104054367Y-94948929D01*
X104082975Y-94925451D01*
X104176699Y-94811249D01*
X104246341Y-94680957D01*
X104285309Y-94552499D01*
X104350081Y-94552499D01*
X104496870Y-94538041D01*
X104638019Y-94495225D01*
X104768102Y-94425694D01*
X104882121Y-94332121D01*
X104975694Y-94218102D01*
X105045225Y-94088019D01*
X105088041Y-93946870D01*
X105102499Y-93800081D01*
X105102499Y-93150079D01*
X105088041Y-93003290D01*
X105045225Y-92862141D01*
X104975694Y-92732058D01*
X104882121Y-92618039D01*
X104768102Y-92524466D01*
X104705017Y-92490746D01*
X104792347Y-92464255D01*
X104879209Y-92417826D01*
X104955344Y-92355344D01*
X105017826Y-92279209D01*
X105064255Y-92192347D01*
X105092845Y-92098097D01*
X105102499Y-92000080D01*
X105100080Y-91650080D01*
X104975080Y-91525080D01*
X104000080Y-91525080D01*
X104000080Y-91545080D01*
X103800080Y-91545080D01*
X103800080Y-91525080D01*
X102825080Y-91525080D01*
X102700080Y-91650080D01*
X102697661Y-92000080D01*
X102707315Y-92098097D01*
X102735905Y-92192347D01*
X102782334Y-92279209D01*
X102844816Y-92355344D01*
X102920951Y-92417826D01*
X103007813Y-92464255D01*
X103095143Y-92490746D01*
X103032058Y-92524466D01*
X102918039Y-92618039D01*
X102824466Y-92732058D01*
X102754935Y-92862141D01*
X102712119Y-93003290D01*
X102697661Y-93150079D01*
X102697661Y-93800081D01*
X102712119Y-93946870D01*
X102754935Y-94088019D01*
X102768527Y-94113449D01*
X102575080Y-94306896D01*
X102575080Y-90850080D01*
X102697661Y-90850080D01*
X102700080Y-91200080D01*
X102825080Y-91325080D01*
X103800080Y-91325080D01*
X103800080Y-90475080D01*
X104000080Y-90475080D01*
X104000080Y-91325080D01*
X104975080Y-91325080D01*
X105100080Y-91200080D01*
X105102499Y-90850080D01*
X105092845Y-90752063D01*
X105064255Y-90657813D01*
X105017826Y-90570951D01*
X104955344Y-90494816D01*
X104879209Y-90432334D01*
X104792347Y-90385905D01*
X104698097Y-90357315D01*
X104600080Y-90347661D01*
X104125080Y-90350080D01*
X104000080Y-90475080D01*
X103800080Y-90475080D01*
X103675080Y-90350080D01*
X103200080Y-90347661D01*
X103102063Y-90357315D01*
X103007813Y-90385905D01*
X102920951Y-90432334D01*
X102844816Y-90494816D01*
X102782334Y-90570951D01*
X102735905Y-90657813D01*
X102707315Y-90752063D01*
X102697661Y-90850080D01*
X102575080Y-90850080D01*
X102575080Y-86718850D01*
X102668039Y-86832121D01*
X102782058Y-86925694D01*
X102912141Y-86995225D01*
X103053290Y-87038041D01*
X103200079Y-87052499D01*
X103850081Y-87052499D01*
X103996870Y-87038041D01*
X104138019Y-86995225D01*
X104268102Y-86925694D01*
X104382121Y-86832121D01*
X104475694Y-86718102D01*
X104509414Y-86655017D01*
X104535905Y-86742347D01*
X104582334Y-86829209D01*
X104644816Y-86905344D01*
X104720951Y-86967826D01*
X104807813Y-87014255D01*
X104902063Y-87042845D01*
X105000080Y-87052499D01*
X105350080Y-87050080D01*
X105475080Y-86925080D01*
X105475080Y-85950080D01*
X105675080Y-85950080D01*
X105675080Y-86925080D01*
X105800080Y-87050080D01*
X106150080Y-87052499D01*
X106248097Y-87042845D01*
X106342347Y-87014255D01*
X106429209Y-86967826D01*
X106505344Y-86905344D01*
X106567826Y-86829209D01*
X106614255Y-86742347D01*
X106642845Y-86648097D01*
X106652499Y-86550080D01*
X106650080Y-86075080D01*
X106525080Y-85950080D01*
X105675080Y-85950080D01*
X105475080Y-85950080D01*
X105455080Y-85950080D01*
X105455080Y-85750080D01*
X105475080Y-85750080D01*
X105475080Y-85730080D01*
X105675080Y-85730080D01*
X105675080Y-85750080D01*
X106525080Y-85750080D01*
X106650080Y-85625080D01*
X106652499Y-85150080D01*
X106642845Y-85052063D01*
X106614255Y-84957813D01*
X106567826Y-84870951D01*
X106505344Y-84794816D01*
X106429209Y-84732334D01*
X106342347Y-84685905D01*
X106306661Y-84675080D01*
X118925081Y-84675080D01*
X118925080Y-100765736D01*
G36*
X111725081Y-93250079D02*
G01*
X111650080Y-93325080D01*
X111650080Y-93434522D01*
X111610905Y-93507813D01*
X111582315Y-93602063D01*
X111572661Y-93700080D01*
X111572661Y-95200080D01*
X111582315Y-95298097D01*
X111610905Y-95392347D01*
X111650080Y-95465638D01*
X111650080Y-95575080D01*
X111699324Y-95624324D01*
X111700080Y-95632001D01*
X111700080Y-95632011D01*
X111709485Y-95727501D01*
X111737343Y-95819337D01*
X111746653Y-95850027D01*
X111807010Y-95962948D01*
X111835172Y-95997263D01*
X111888237Y-96061923D01*
X111913042Y-96082280D01*
X112417884Y-96587123D01*
X112438237Y-96611923D01*
X112463037Y-96632276D01*
X112463039Y-96632278D01*
X112511761Y-96672263D01*
X112537212Y-96693150D01*
X112650132Y-96753507D01*
X112772658Y-96790675D01*
X112868148Y-96800080D01*
X112868158Y-96800080D01*
X112900079Y-96803224D01*
X112932000Y-96800080D01*
X114480842Y-96800080D01*
X114950081Y-97269320D01*
X114950080Y-101468158D01*
X114946936Y-101500080D01*
X114950080Y-101532001D01*
X114950080Y-101532011D01*
X114950081Y-101532021D01*
X114950080Y-103430842D01*
X114680842Y-103700080D01*
X111932001Y-103700080D01*
X111900080Y-103696936D01*
X111868159Y-103700080D01*
X110332001Y-103700080D01*
X110300080Y-103696936D01*
X110268159Y-103700080D01*
X108919319Y-103700080D01*
X108250080Y-103030842D01*
X108250080Y-102645862D01*
X108271287Y-102650080D01*
X108428873Y-102650080D01*
X108583431Y-102619337D01*
X108729022Y-102559031D01*
X108860050Y-102471481D01*
X108971481Y-102360050D01*
X109059031Y-102229022D01*
X109119337Y-102083431D01*
X109150080Y-101928873D01*
X109150080Y-101771287D01*
X109119337Y-101616729D01*
X109059031Y-101471138D01*
X108975080Y-101345496D01*
X108975080Y-101041795D01*
X109016733Y-101050080D01*
X109174319Y-101050080D01*
X109328877Y-101019337D01*
X109474468Y-100959031D01*
X109605496Y-100871481D01*
X109716927Y-100760050D01*
X109804477Y-100629022D01*
X109864783Y-100483431D01*
X109895526Y-100328873D01*
X109895526Y-100171287D01*
X109864783Y-100016729D01*
X109804477Y-99871138D01*
X109775080Y-99827142D01*
X109775080Y-95702499D01*
X110225080Y-95702499D01*
X110323097Y-95692845D01*
X110350080Y-95684660D01*
X110377063Y-95692845D01*
X110475080Y-95702499D01*
X111025080Y-95702499D01*
X111123097Y-95692845D01*
X111150080Y-95684660D01*
X111177063Y-95692845D01*
X111275080Y-95702499D01*
X111325080Y-95700080D01*
X111450080Y-95575080D01*
X111450080Y-95465638D01*
X111489255Y-95392347D01*
X111517845Y-95298097D01*
X111527499Y-95200080D01*
X111527499Y-93700080D01*
X111517845Y-93602063D01*
X111489255Y-93507813D01*
X111450080Y-93434522D01*
X111450080Y-93325080D01*
X111325193Y-93200193D01*
X111272263Y-93101169D01*
X111272262Y-93101167D01*
X111213732Y-93029848D01*
X111213729Y-93029845D01*
X111194160Y-93006000D01*
X111187684Y-93000685D01*
X111450080Y-93002499D01*
X111548097Y-92992845D01*
X111642347Y-92964255D01*
X111725081Y-92920033D01*
X111725081Y-93250079D01*
X111725081Y-93250079D01*
G37*
X111725081Y-93250079D02*
X111650080Y-93325080D01*
X111650080Y-93434522D01*
X111610905Y-93507813D01*
X111582315Y-93602063D01*
X111572661Y-93700080D01*
X111572661Y-95200080D01*
X111582315Y-95298097D01*
X111610905Y-95392347D01*
X111650080Y-95465638D01*
X111650080Y-95575080D01*
X111699324Y-95624324D01*
X111700080Y-95632001D01*
X111700080Y-95632011D01*
X111709485Y-95727501D01*
X111737343Y-95819337D01*
X111746653Y-95850027D01*
X111807010Y-95962948D01*
X111835172Y-95997263D01*
X111888237Y-96061923D01*
X111913042Y-96082280D01*
X112417884Y-96587123D01*
X112438237Y-96611923D01*
X112463037Y-96632276D01*
X112463039Y-96632278D01*
X112511761Y-96672263D01*
X112537212Y-96693150D01*
X112650132Y-96753507D01*
X112772658Y-96790675D01*
X112868148Y-96800080D01*
X112868158Y-96800080D01*
X112900079Y-96803224D01*
X112932000Y-96800080D01*
X114480842Y-96800080D01*
X114950081Y-97269320D01*
X114950080Y-101468158D01*
X114946936Y-101500080D01*
X114950080Y-101532001D01*
X114950080Y-101532011D01*
X114950081Y-101532021D01*
X114950080Y-103430842D01*
X114680842Y-103700080D01*
X111932001Y-103700080D01*
X111900080Y-103696936D01*
X111868159Y-103700080D01*
X110332001Y-103700080D01*
X110300080Y-103696936D01*
X110268159Y-103700080D01*
X108919319Y-103700080D01*
X108250080Y-103030842D01*
X108250080Y-102645862D01*
X108271287Y-102650080D01*
X108428873Y-102650080D01*
X108583431Y-102619337D01*
X108729022Y-102559031D01*
X108860050Y-102471481D01*
X108971481Y-102360050D01*
X109059031Y-102229022D01*
X109119337Y-102083431D01*
X109150080Y-101928873D01*
X109150080Y-101771287D01*
X109119337Y-101616729D01*
X109059031Y-101471138D01*
X108975080Y-101345496D01*
X108975080Y-101041795D01*
X109016733Y-101050080D01*
X109174319Y-101050080D01*
X109328877Y-101019337D01*
X109474468Y-100959031D01*
X109605496Y-100871481D01*
X109716927Y-100760050D01*
X109804477Y-100629022D01*
X109864783Y-100483431D01*
X109895526Y-100328873D01*
X109895526Y-100171287D01*
X109864783Y-100016729D01*
X109804477Y-99871138D01*
X109775080Y-99827142D01*
X109775080Y-95702499D01*
X110225080Y-95702499D01*
X110323097Y-95692845D01*
X110350080Y-95684660D01*
X110377063Y-95692845D01*
X110475080Y-95702499D01*
X111025080Y-95702499D01*
X111123097Y-95692845D01*
X111150080Y-95684660D01*
X111177063Y-95692845D01*
X111275080Y-95702499D01*
X111325080Y-95700080D01*
X111450080Y-95575080D01*
X111450080Y-95465638D01*
X111489255Y-95392347D01*
X111517845Y-95298097D01*
X111527499Y-95200080D01*
X111527499Y-93700080D01*
X111517845Y-93602063D01*
X111489255Y-93507813D01*
X111450080Y-93434522D01*
X111450080Y-93325080D01*
X111325193Y-93200193D01*
X111272263Y-93101169D01*
X111272262Y-93101167D01*
X111213732Y-93029848D01*
X111213729Y-93029845D01*
X111194160Y-93006000D01*
X111187684Y-93000685D01*
X111450080Y-93002499D01*
X111548097Y-92992845D01*
X111642347Y-92964255D01*
X111725081Y-92920033D01*
X111725081Y-93250079D01*
G36*
X105970080Y-100972661D02*
G01*
X105730080Y-100972661D01*
X105730080Y-100927499D01*
X105970080Y-100927499D01*
X105970080Y-100972661D01*
X105970080Y-100972661D01*
G37*
X105970080Y-100972661D02*
X105730080Y-100972661D01*
X105730080Y-100927499D01*
X105970080Y-100927499D01*
X105970080Y-100972661D01*
M02*
