G04 #@! TF.GenerationSoftware,KiCad,Pcbnew,(5.1.4)-1*
G04 #@! TF.CreationDate,2020-07-27T08:05:22+02:00*
G04 #@! TF.ProjectId,HM-ES-PMSw1-Pl_GosundSP1,484d2d45-532d-4504-9d53-77312d506c5f,rev?*
G04 #@! TF.SameCoordinates,Original*
G04 #@! TF.FileFunction,Legend,Bot*
G04 #@! TF.FilePolarity,Positive*
%FSLAX46Y46*%
G04 Gerber Fmt 4.6, Leading zero omitted, Abs format (unit mm)*
G04 Created by KiCad (PCBNEW (5.1.4)-1) date 2020-07-27 08:05:22*
%MOMM*%
%LPD*%
G04 APERTURE LIST*
%ADD10C,0.150000*%
%ADD11C,0.125000*%
G04 APERTURE END LIST*
D10*
X100500080Y-96650080D02*
X100500080Y-108500080D01*
D11*
X118502758Y-86585794D02*
X118531330Y-86623889D01*
X118617044Y-86661984D01*
X118674187Y-86661984D01*
X118759901Y-86623889D01*
X118817044Y-86547699D01*
X118845615Y-86471508D01*
X118874187Y-86319127D01*
X118874187Y-86204841D01*
X118845615Y-86052460D01*
X118817044Y-85976270D01*
X118759901Y-85900080D01*
X118674187Y-85861984D01*
X118617044Y-85861984D01*
X118531330Y-85900080D01*
X118502758Y-85938175D01*
X117902758Y-86585794D02*
X117931330Y-86623889D01*
X118017044Y-86661984D01*
X118074187Y-86661984D01*
X118159901Y-86623889D01*
X118217044Y-86547699D01*
X118245615Y-86471508D01*
X118274187Y-86319127D01*
X118274187Y-86204841D01*
X118245615Y-86052460D01*
X118217044Y-85976270D01*
X118159901Y-85900080D01*
X118074187Y-85861984D01*
X118017044Y-85861984D01*
X117931330Y-85900080D01*
X117902758Y-85938175D01*
X116988472Y-86242937D02*
X116902758Y-86281032D01*
X116874187Y-86319127D01*
X116845615Y-86395318D01*
X116845615Y-86509603D01*
X116874187Y-86585794D01*
X116902758Y-86623889D01*
X116959901Y-86661984D01*
X117188472Y-86661984D01*
X117188472Y-85861984D01*
X116988472Y-85861984D01*
X116931330Y-85900080D01*
X116902758Y-85938175D01*
X116874187Y-86014365D01*
X116874187Y-86090556D01*
X116902758Y-86166746D01*
X116931330Y-86204841D01*
X116988472Y-86242937D01*
X117188472Y-86242937D01*
X116474187Y-86281032D02*
X116474187Y-86661984D01*
X116674187Y-85861984D02*
X116474187Y-86281032D01*
X116274187Y-85861984D01*
X116074187Y-86357222D02*
X115617044Y-86357222D01*
X115331330Y-86661984D02*
X115331330Y-85861984D01*
X114988472Y-86661984D01*
X114988472Y-85861984D01*
X114359901Y-86585794D02*
X114388472Y-86623889D01*
X114474187Y-86661984D01*
X114531330Y-86661984D01*
X114617044Y-86623889D01*
X114674187Y-86547699D01*
X114702758Y-86471508D01*
X114731330Y-86319127D01*
X114731330Y-86204841D01*
X114702758Y-86052460D01*
X114674187Y-85976270D01*
X114617044Y-85900080D01*
X114531330Y-85861984D01*
X114474187Y-85861984D01*
X114388472Y-85900080D01*
X114359901Y-85938175D01*
X114102758Y-86357222D02*
X113645615Y-86357222D01*
X113388472Y-86623889D02*
X113302758Y-86661984D01*
X113159901Y-86661984D01*
X113102758Y-86623889D01*
X113074187Y-86585794D01*
X113045615Y-86509603D01*
X113045615Y-86433413D01*
X113074187Y-86357222D01*
X113102758Y-86319127D01*
X113159901Y-86281032D01*
X113274187Y-86242937D01*
X113331330Y-86204841D01*
X113359901Y-86166746D01*
X113388472Y-86090556D01*
X113388472Y-86014365D01*
X113359901Y-85938175D01*
X113331330Y-85900080D01*
X113274187Y-85861984D01*
X113131330Y-85861984D01*
X113045615Y-85900080D01*
X112817044Y-86433413D02*
X112531330Y-86433413D01*
X112874187Y-86661984D02*
X112674187Y-85861984D01*
X112474187Y-86661984D01*
X111559901Y-86128651D02*
X111559901Y-86661984D01*
X111702758Y-85823889D02*
X111845615Y-86395318D01*
X111474187Y-86395318D01*
X111245615Y-86585794D02*
X111217044Y-86623889D01*
X111245615Y-86661984D01*
X111274187Y-86623889D01*
X111245615Y-86585794D01*
X111245615Y-86661984D01*
X110845615Y-85861984D02*
X110788472Y-85861984D01*
X110731330Y-85900080D01*
X110702758Y-85938175D01*
X110674187Y-86014365D01*
X110645615Y-86166746D01*
X110645615Y-86357222D01*
X110674187Y-86509603D01*
X110702758Y-86585794D01*
X110731330Y-86623889D01*
X110788472Y-86661984D01*
X110845615Y-86661984D01*
X110902758Y-86623889D01*
X110931330Y-86585794D01*
X110959901Y-86509603D01*
X110988472Y-86357222D01*
X110988472Y-86166746D01*
X110959901Y-86014365D01*
X110931330Y-85938175D01*
X110902758Y-85900080D01*
X110845615Y-85861984D01*
X101831330Y-98814365D02*
X101855139Y-98842937D01*
X101926568Y-98871508D01*
X101974187Y-98871508D01*
X102045615Y-98842937D01*
X102093234Y-98785794D01*
X102117044Y-98728651D01*
X102140853Y-98614365D01*
X102140853Y-98528651D01*
X102117044Y-98414365D01*
X102093234Y-98357222D01*
X102045615Y-98300080D01*
X101974187Y-98271508D01*
X101926568Y-98271508D01*
X101855139Y-98300080D01*
X101831330Y-98328651D01*
X101450377Y-98557222D02*
X101617044Y-98557222D01*
X101617044Y-98871508D02*
X101617044Y-98271508D01*
X101378949Y-98271508D01*
X100926568Y-98871508D02*
X101212282Y-98871508D01*
X101069425Y-98871508D02*
X101069425Y-98271508D01*
X101117044Y-98357222D01*
X101164663Y-98414365D01*
X101212282Y-98442937D01*
X101355139Y-100864365D02*
X101378949Y-100892937D01*
X101450377Y-100921508D01*
X101497996Y-100921508D01*
X101569425Y-100892937D01*
X101617044Y-100835794D01*
X101640853Y-100778651D01*
X101664663Y-100664365D01*
X101664663Y-100578651D01*
X101640853Y-100464365D01*
X101617044Y-100407222D01*
X101569425Y-100350080D01*
X101497996Y-100321508D01*
X101450377Y-100321508D01*
X101378949Y-100350080D01*
X101355139Y-100378651D01*
X100974187Y-100607222D02*
X101140853Y-100607222D01*
X101140853Y-100921508D02*
X101140853Y-100321508D01*
X100902758Y-100321508D01*
X102521806Y-102971508D02*
X102521806Y-102371508D01*
X102521806Y-102600080D02*
X102474187Y-102571508D01*
X102378949Y-102571508D01*
X102331330Y-102600080D01*
X102307520Y-102628651D01*
X102283710Y-102685794D01*
X102283710Y-102857222D01*
X102307520Y-102914365D01*
X102331330Y-102942937D01*
X102378949Y-102971508D01*
X102474187Y-102971508D01*
X102521806Y-102942937D01*
X101831330Y-102971508D02*
X102069425Y-102971508D01*
X102069425Y-102371508D01*
X101664663Y-102657222D02*
X101497996Y-102657222D01*
X101426568Y-102971508D02*
X101664663Y-102971508D01*
X101664663Y-102371508D01*
X101426568Y-102371508D01*
X101212282Y-102971508D02*
X101212282Y-102371508D01*
X101093234Y-102371508D01*
X101021806Y-102400080D01*
X100974187Y-102457222D01*
X100950377Y-102514365D01*
X100926568Y-102628651D01*
X100926568Y-102714365D01*
X100950377Y-102828651D01*
X100974187Y-102885794D01*
X101021806Y-102942937D01*
X101093234Y-102971508D01*
X101212282Y-102971508D01*
X101402758Y-105021508D02*
X101569425Y-104735794D01*
X101688472Y-105021508D02*
X101688472Y-104421508D01*
X101497996Y-104421508D01*
X101450377Y-104450080D01*
X101426568Y-104478651D01*
X101402758Y-104535794D01*
X101402758Y-104621508D01*
X101426568Y-104678651D01*
X101450377Y-104707222D01*
X101497996Y-104735794D01*
X101688472Y-104735794D01*
X101236091Y-104421508D02*
X100902758Y-105021508D01*
X100902758Y-104421508D02*
X101236091Y-105021508D01*
X101640853Y-106471508D02*
X101355139Y-106471508D01*
X101497996Y-107071508D02*
X101497996Y-106471508D01*
X101236091Y-106471508D02*
X100902758Y-107071508D01*
X100902758Y-106471508D02*
X101236091Y-107071508D01*
X103567460Y-87987877D02*
X104147460Y-88154544D01*
X103567460Y-88321210D01*
X104092222Y-88773591D02*
X104119841Y-88749782D01*
X104147460Y-88678353D01*
X104147460Y-88630734D01*
X104119841Y-88559306D01*
X104064603Y-88511687D01*
X104009365Y-88487877D01*
X103898889Y-88464068D01*
X103816032Y-88464068D01*
X103705556Y-88487877D01*
X103650318Y-88511687D01*
X103595080Y-88559306D01*
X103567460Y-88630734D01*
X103567460Y-88678353D01*
X103595080Y-88749782D01*
X103622699Y-88773591D01*
X104092222Y-89273591D02*
X104119841Y-89249782D01*
X104147460Y-89178353D01*
X104147460Y-89130734D01*
X104119841Y-89059306D01*
X104064603Y-89011687D01*
X104009365Y-88987877D01*
X103898889Y-88964068D01*
X103816032Y-88964068D01*
X103705556Y-88987877D01*
X103650318Y-89011687D01*
X103595080Y-89059306D01*
X103567460Y-89130734D01*
X103567460Y-89178353D01*
X103595080Y-89249782D01*
X103622699Y-89273591D01*
X105585080Y-88225972D02*
X105557460Y-88178353D01*
X105557460Y-88106925D01*
X105585080Y-88035496D01*
X105640318Y-87987877D01*
X105695556Y-87964068D01*
X105806032Y-87940258D01*
X105888889Y-87940258D01*
X105999365Y-87964068D01*
X106054603Y-87987877D01*
X106109841Y-88035496D01*
X106137460Y-88106925D01*
X106137460Y-88154544D01*
X106109841Y-88225972D01*
X106082222Y-88249782D01*
X105888889Y-88249782D01*
X105888889Y-88154544D01*
X106137460Y-88464068D02*
X105557460Y-88464068D01*
X106137460Y-88749782D01*
X105557460Y-88749782D01*
X106137460Y-88987877D02*
X105557460Y-88987877D01*
X105557460Y-89106925D01*
X105585080Y-89178353D01*
X105640318Y-89225972D01*
X105695556Y-89249782D01*
X105806032Y-89273591D01*
X105888889Y-89273591D01*
X105999365Y-89249782D01*
X106054603Y-89225972D01*
X106109841Y-89178353D01*
X106137460Y-89106925D01*
X106137460Y-88987877D01*
X108127460Y-87678353D02*
X107547460Y-87678353D01*
X107961746Y-87845020D01*
X107547460Y-88011687D01*
X108127460Y-88011687D01*
X107547460Y-88345020D02*
X107547460Y-88440258D01*
X107575080Y-88487877D01*
X107630318Y-88535496D01*
X107740794Y-88559306D01*
X107934127Y-88559306D01*
X108044603Y-88535496D01*
X108099841Y-88487877D01*
X108127460Y-88440258D01*
X108127460Y-88345020D01*
X108099841Y-88297401D01*
X108044603Y-88249782D01*
X107934127Y-88225972D01*
X107740794Y-88225972D01*
X107630318Y-88249782D01*
X107575080Y-88297401D01*
X107547460Y-88345020D01*
X108099841Y-88749782D02*
X108127460Y-88821210D01*
X108127460Y-88940258D01*
X108099841Y-88987877D01*
X108072222Y-89011687D01*
X108016984Y-89035496D01*
X107961746Y-89035496D01*
X107906508Y-89011687D01*
X107878889Y-88987877D01*
X107851270Y-88940258D01*
X107823651Y-88845020D01*
X107796032Y-88797401D01*
X107768413Y-88773591D01*
X107713175Y-88749782D01*
X107657937Y-88749782D01*
X107602699Y-88773591D01*
X107575080Y-88797401D01*
X107547460Y-88845020D01*
X107547460Y-88964068D01*
X107575080Y-89035496D01*
X108127460Y-89249782D02*
X107547460Y-89249782D01*
X110089841Y-87987877D02*
X110117460Y-88059306D01*
X110117460Y-88178353D01*
X110089841Y-88225972D01*
X110062222Y-88249782D01*
X110006984Y-88273591D01*
X109951746Y-88273591D01*
X109896508Y-88249782D01*
X109868889Y-88225972D01*
X109841270Y-88178353D01*
X109813651Y-88083115D01*
X109786032Y-88035496D01*
X109758413Y-88011687D01*
X109703175Y-87987877D01*
X109647937Y-87987877D01*
X109592699Y-88011687D01*
X109565080Y-88035496D01*
X109537460Y-88083115D01*
X109537460Y-88202163D01*
X109565080Y-88273591D01*
X110062222Y-88773591D02*
X110089841Y-88749782D01*
X110117460Y-88678353D01*
X110117460Y-88630734D01*
X110089841Y-88559306D01*
X110034603Y-88511687D01*
X109979365Y-88487877D01*
X109868889Y-88464068D01*
X109786032Y-88464068D01*
X109675556Y-88487877D01*
X109620318Y-88511687D01*
X109565080Y-88559306D01*
X109537460Y-88630734D01*
X109537460Y-88678353D01*
X109565080Y-88749782D01*
X109592699Y-88773591D01*
X110117460Y-88987877D02*
X109537460Y-88987877D01*
X110117460Y-89273591D02*
X109786032Y-89059306D01*
X109537460Y-89273591D02*
X109868889Y-88987877D01*
X112107460Y-87678353D02*
X111527460Y-87678353D01*
X111941746Y-87845020D01*
X111527460Y-88011687D01*
X112107460Y-88011687D01*
X112107460Y-88249782D02*
X111527460Y-88249782D01*
X112079841Y-88464068D02*
X112107460Y-88535496D01*
X112107460Y-88654544D01*
X112079841Y-88702163D01*
X112052222Y-88725972D01*
X111996984Y-88749782D01*
X111941746Y-88749782D01*
X111886508Y-88725972D01*
X111858889Y-88702163D01*
X111831270Y-88654544D01*
X111803651Y-88559306D01*
X111776032Y-88511687D01*
X111748413Y-88487877D01*
X111693175Y-88464068D01*
X111637937Y-88464068D01*
X111582699Y-88487877D01*
X111555080Y-88511687D01*
X111527460Y-88559306D01*
X111527460Y-88678353D01*
X111555080Y-88749782D01*
X111527460Y-89059306D02*
X111527460Y-89154544D01*
X111555080Y-89202163D01*
X111610318Y-89249782D01*
X111720794Y-89273591D01*
X111914127Y-89273591D01*
X112024603Y-89249782D01*
X112079841Y-89202163D01*
X112107460Y-89154544D01*
X112107460Y-89059306D01*
X112079841Y-89011687D01*
X112024603Y-88964068D01*
X111914127Y-88940258D01*
X111720794Y-88940258D01*
X111610318Y-88964068D01*
X111555080Y-89011687D01*
X111527460Y-89059306D01*
X115535080Y-87749782D02*
X115507460Y-87702163D01*
X115507460Y-87630734D01*
X115535080Y-87559306D01*
X115590318Y-87511687D01*
X115645556Y-87487877D01*
X115756032Y-87464068D01*
X115838889Y-87464068D01*
X115949365Y-87487877D01*
X116004603Y-87511687D01*
X116059841Y-87559306D01*
X116087460Y-87630734D01*
X116087460Y-87678353D01*
X116059841Y-87749782D01*
X116032222Y-87773591D01*
X115838889Y-87773591D01*
X115838889Y-87678353D01*
X116087460Y-87987877D02*
X115507460Y-87987877D01*
X115507460Y-88106925D01*
X115535080Y-88178353D01*
X115590318Y-88225972D01*
X115645556Y-88249782D01*
X115756032Y-88273591D01*
X115838889Y-88273591D01*
X115949365Y-88249782D01*
X116004603Y-88225972D01*
X116059841Y-88178353D01*
X116087460Y-88106925D01*
X116087460Y-87987877D01*
X115507460Y-88583115D02*
X115507460Y-88678353D01*
X115535080Y-88725972D01*
X115590318Y-88773591D01*
X115700794Y-88797401D01*
X115894127Y-88797401D01*
X116004603Y-88773591D01*
X116059841Y-88725972D01*
X116087460Y-88678353D01*
X116087460Y-88583115D01*
X116059841Y-88535496D01*
X116004603Y-88487877D01*
X115894127Y-88464068D01*
X115700794Y-88464068D01*
X115590318Y-88487877D01*
X115535080Y-88535496D01*
X115507460Y-88583115D01*
X115507460Y-89106925D02*
X115507460Y-89154544D01*
X115535080Y-89202163D01*
X115562699Y-89225972D01*
X115617937Y-89249782D01*
X115728413Y-89273591D01*
X115866508Y-89273591D01*
X115976984Y-89249782D01*
X116032222Y-89225972D01*
X116059841Y-89202163D01*
X116087460Y-89154544D01*
X116087460Y-89106925D01*
X116059841Y-89059306D01*
X116032222Y-89035496D01*
X115976984Y-89011687D01*
X115866508Y-88987877D01*
X115728413Y-88987877D01*
X115617937Y-89011687D01*
X115562699Y-89035496D01*
X115535080Y-89059306D01*
X115507460Y-89106925D01*
X118022222Y-88797401D02*
X118049841Y-88773591D01*
X118077460Y-88702163D01*
X118077460Y-88654544D01*
X118049841Y-88583115D01*
X117994603Y-88535496D01*
X117939365Y-88511687D01*
X117828889Y-88487877D01*
X117746032Y-88487877D01*
X117635556Y-88511687D01*
X117580318Y-88535496D01*
X117525080Y-88583115D01*
X117497460Y-88654544D01*
X117497460Y-88702163D01*
X117525080Y-88773591D01*
X117552699Y-88797401D01*
X118049841Y-88987877D02*
X118077460Y-89059306D01*
X118077460Y-89178353D01*
X118049841Y-89225972D01*
X118022222Y-89249782D01*
X117966984Y-89273591D01*
X117911746Y-89273591D01*
X117856508Y-89249782D01*
X117828889Y-89225972D01*
X117801270Y-89178353D01*
X117773651Y-89083115D01*
X117746032Y-89035496D01*
X117718413Y-89011687D01*
X117663175Y-88987877D01*
X117607937Y-88987877D01*
X117552699Y-89011687D01*
X117525080Y-89035496D01*
X117497460Y-89083115D01*
X117497460Y-89202163D01*
X117525080Y-89273591D01*
X118895615Y-85323889D02*
X118838472Y-85361984D01*
X118724187Y-85361984D01*
X118667044Y-85323889D01*
X118638472Y-85247699D01*
X118638472Y-85209603D01*
X118667044Y-85133413D01*
X118724187Y-85095318D01*
X118809901Y-85095318D01*
X118867044Y-85057222D01*
X118895615Y-84981032D01*
X118895615Y-84942937D01*
X118867044Y-84866746D01*
X118809901Y-84828651D01*
X118724187Y-84828651D01*
X118667044Y-84866746D01*
X118467044Y-84828651D02*
X118238472Y-84828651D01*
X118381330Y-84561984D02*
X118381330Y-85247699D01*
X118352758Y-85323889D01*
X118295615Y-85361984D01*
X118238472Y-85361984D01*
X117781330Y-85361984D02*
X117781330Y-84942937D01*
X117809901Y-84866746D01*
X117867044Y-84828651D01*
X117981330Y-84828651D01*
X118038472Y-84866746D01*
X117781330Y-85323889D02*
X117838472Y-85361984D01*
X117981330Y-85361984D01*
X118038472Y-85323889D01*
X118067044Y-85247699D01*
X118067044Y-85171508D01*
X118038472Y-85095318D01*
X117981330Y-85057222D01*
X117838472Y-85057222D01*
X117781330Y-85019127D01*
X117495615Y-84828651D02*
X117495615Y-85361984D01*
X117495615Y-84904841D02*
X117467044Y-84866746D01*
X117409901Y-84828651D01*
X117324187Y-84828651D01*
X117267044Y-84866746D01*
X117238472Y-84942937D01*
X117238472Y-85361984D01*
X116981330Y-84638175D02*
X116952758Y-84600080D01*
X116895615Y-84561984D01*
X116752758Y-84561984D01*
X116695615Y-84600080D01*
X116667044Y-84638175D01*
X116638472Y-84714365D01*
X116638472Y-84790556D01*
X116667044Y-84904841D01*
X117009901Y-85361984D01*
X116638472Y-85361984D01*
X116438472Y-84561984D02*
X116067044Y-84561984D01*
X116267044Y-84866746D01*
X116181330Y-84866746D01*
X116124187Y-84904841D01*
X116095615Y-84942937D01*
X116067044Y-85019127D01*
X116067044Y-85209603D01*
X116095615Y-85285794D01*
X116124187Y-85323889D01*
X116181330Y-85361984D01*
X116352758Y-85361984D01*
X116409901Y-85323889D01*
X116438472Y-85285794D01*
X115381330Y-84523889D02*
X115895615Y-85552460D01*
X114924187Y-85361984D02*
X114924187Y-84561984D01*
X114924187Y-85323889D02*
X114981330Y-85361984D01*
X115095615Y-85361984D01*
X115152758Y-85323889D01*
X115181330Y-85285794D01*
X115209901Y-85209603D01*
X115209901Y-84981032D01*
X115181330Y-84904841D01*
X115152758Y-84866746D01*
X115095615Y-84828651D01*
X114981330Y-84828651D01*
X114924187Y-84866746D01*
X114409901Y-85323889D02*
X114467044Y-85361984D01*
X114581330Y-85361984D01*
X114638472Y-85323889D01*
X114667044Y-85247699D01*
X114667044Y-84942937D01*
X114638472Y-84866746D01*
X114581330Y-84828651D01*
X114467044Y-84828651D01*
X114409901Y-84866746D01*
X114381330Y-84942937D01*
X114381330Y-85019127D01*
X114667044Y-85095318D01*
X114124187Y-85361984D02*
X114124187Y-84828651D01*
X114124187Y-84981032D02*
X114095615Y-84904841D01*
X114067044Y-84866746D01*
X114009901Y-84828651D01*
X113952758Y-84828651D01*
X113752758Y-85057222D02*
X113295615Y-85057222D01*
X113009901Y-84828651D02*
X113009901Y-85628651D01*
X113009901Y-84866746D02*
X112952758Y-84828651D01*
X112838472Y-84828651D01*
X112781330Y-84866746D01*
X112752758Y-84904841D01*
X112724187Y-84981032D01*
X112724187Y-85209603D01*
X112752758Y-85285794D01*
X112781330Y-85323889D01*
X112838472Y-85361984D01*
X112952758Y-85361984D01*
X113009901Y-85323889D01*
X112524187Y-84828651D02*
X112409901Y-85361984D01*
X112295615Y-84981032D01*
X112181330Y-85361984D01*
X112067044Y-84828651D01*
X111067044Y-84600080D02*
X111124187Y-84561984D01*
X111209901Y-84561984D01*
X111295615Y-84600080D01*
X111352758Y-84676270D01*
X111381330Y-84752460D01*
X111409901Y-84904841D01*
X111409901Y-85019127D01*
X111381330Y-85171508D01*
X111352758Y-85247699D01*
X111295615Y-85323889D01*
X111209901Y-85361984D01*
X111152758Y-85361984D01*
X111067044Y-85323889D01*
X111038472Y-85285794D01*
X111038472Y-85019127D01*
X111152758Y-85019127D01*
X110809901Y-85323889D02*
X110724187Y-85361984D01*
X110581330Y-85361984D01*
X110524187Y-85323889D01*
X110495615Y-85285794D01*
X110467044Y-85209603D01*
X110467044Y-85133413D01*
X110495615Y-85057222D01*
X110524187Y-85019127D01*
X110581330Y-84981032D01*
X110695615Y-84942937D01*
X110752758Y-84904841D01*
X110781330Y-84866746D01*
X110809901Y-84790556D01*
X110809901Y-84714365D01*
X110781330Y-84638175D01*
X110752758Y-84600080D01*
X110695615Y-84561984D01*
X110552758Y-84561984D01*
X110467044Y-84600080D01*
X109838472Y-84561984D02*
X109638472Y-85361984D01*
X109438472Y-84561984D01*
X108924187Y-85361984D02*
X109267044Y-85361984D01*
X109095615Y-85361984D02*
X109095615Y-84561984D01*
X109152758Y-84676270D01*
X109209901Y-84752460D01*
X109267044Y-84790556D01*
X108667044Y-85285794D02*
X108638472Y-85323889D01*
X108667044Y-85361984D01*
X108695615Y-85323889D01*
X108667044Y-85285794D01*
X108667044Y-85361984D01*
X108095615Y-84561984D02*
X108381330Y-84561984D01*
X108409901Y-84942937D01*
X108381330Y-84904841D01*
X108324187Y-84866746D01*
X108181330Y-84866746D01*
X108124187Y-84904841D01*
X108095615Y-84942937D01*
X108067044Y-85019127D01*
X108067044Y-85209603D01*
X108095615Y-85285794D01*
X108124187Y-85323889D01*
X108181330Y-85361984D01*
X108324187Y-85361984D01*
X108381330Y-85323889D01*
X108409901Y-85285794D01*
X107238472Y-84561984D02*
X107181330Y-84561984D01*
X107124187Y-84600080D01*
X107095615Y-84638175D01*
X107067044Y-84714365D01*
X107038472Y-84866746D01*
X107038472Y-85057222D01*
X107067044Y-85209603D01*
X107095615Y-85285794D01*
X107124187Y-85323889D01*
X107181330Y-85361984D01*
X107238472Y-85361984D01*
X107295615Y-85323889D01*
X107324187Y-85285794D01*
X107352758Y-85209603D01*
X107381330Y-85057222D01*
X107381330Y-84866746D01*
X107352758Y-84714365D01*
X107324187Y-84638175D01*
X107295615Y-84600080D01*
X107238472Y-84561984D01*
X106838472Y-84561984D02*
X106438472Y-84561984D01*
X106695615Y-85361984D01*
X105781330Y-84523889D02*
X106295615Y-85552460D01*
X105609901Y-84638175D02*
X105581330Y-84600080D01*
X105524187Y-84561984D01*
X105381330Y-84561984D01*
X105324187Y-84600080D01*
X105295615Y-84638175D01*
X105267044Y-84714365D01*
X105267044Y-84790556D01*
X105295615Y-84904841D01*
X105638472Y-85361984D01*
X105267044Y-85361984D01*
X104895615Y-84561984D02*
X104838472Y-84561984D01*
X104781330Y-84600080D01*
X104752758Y-84638175D01*
X104724187Y-84714365D01*
X104695615Y-84866746D01*
X104695615Y-85057222D01*
X104724187Y-85209603D01*
X104752758Y-85285794D01*
X104781330Y-85323889D01*
X104838472Y-85361984D01*
X104895615Y-85361984D01*
X104952758Y-85323889D01*
X104981330Y-85285794D01*
X105009901Y-85209603D01*
X105038472Y-85057222D01*
X105038472Y-84866746D01*
X105009901Y-84714365D01*
X104981330Y-84638175D01*
X104952758Y-84600080D01*
X104895615Y-84561984D01*
D10*
X102800080Y-109950080D02*
X102800080Y-90950080D01*
X118800080Y-109950080D02*
X102800080Y-109950080D01*
X118800080Y-90950080D02*
X118800080Y-109950080D01*
X102800080Y-90950080D02*
X118800080Y-90950080D01*
M02*
