G04 #@! TF.GenerationSoftware,KiCad,Pcbnew,(5.1.4)-1*
G04 #@! TF.CreationDate,2020-07-27T08:05:22+02:00*
G04 #@! TF.ProjectId,HM-ES-PMSw1-Pl_GosundSP1,484d2d45-532d-4504-9d53-77312d506c5f,rev?*
G04 #@! TF.SameCoordinates,Original*
G04 #@! TF.FileFunction,Legend,Top*
G04 #@! TF.FilePolarity,Positive*
%FSLAX46Y46*%
G04 Gerber Fmt 4.6, Leading zero omitted, Abs format (unit mm)*
G04 Created by KiCad (PCBNEW (5.1.4)-1) date 2020-07-27 08:05:22*
%MOMM*%
%LPD*%
G04 APERTURE LIST*
%ADD10C,0.150000*%
%ADD11C,0.125000*%
%ADD12C,0.200000*%
%ADD13C,0.120000*%
G04 APERTURE END LIST*
D10*
X100500080Y-96650080D02*
X100500080Y-108500080D01*
X115209603Y-87311984D02*
X114942937Y-86931032D01*
X114752460Y-87311984D02*
X114752460Y-86511984D01*
X115057222Y-86511984D01*
X115133413Y-86550080D01*
X115171508Y-86588175D01*
X115209603Y-86664365D01*
X115209603Y-86778651D01*
X115171508Y-86854841D01*
X115133413Y-86892937D01*
X115057222Y-86931032D01*
X114752460Y-86931032D01*
X115857222Y-87273889D02*
X115781032Y-87311984D01*
X115628651Y-87311984D01*
X115552460Y-87273889D01*
X115514365Y-87197699D01*
X115514365Y-86892937D01*
X115552460Y-86816746D01*
X115628651Y-86778651D01*
X115781032Y-86778651D01*
X115857222Y-86816746D01*
X115895318Y-86892937D01*
X115895318Y-86969127D01*
X115514365Y-87045318D01*
X116200080Y-87273889D02*
X116276270Y-87311984D01*
X116428651Y-87311984D01*
X116504841Y-87273889D01*
X116542937Y-87197699D01*
X116542937Y-87159603D01*
X116504841Y-87083413D01*
X116428651Y-87045318D01*
X116314365Y-87045318D01*
X116238175Y-87007222D01*
X116200080Y-86931032D01*
X116200080Y-86892937D01*
X116238175Y-86816746D01*
X116314365Y-86778651D01*
X116428651Y-86778651D01*
X116504841Y-86816746D01*
X117190556Y-87273889D02*
X117114365Y-87311984D01*
X116961984Y-87311984D01*
X116885794Y-87273889D01*
X116847699Y-87197699D01*
X116847699Y-86892937D01*
X116885794Y-86816746D01*
X116961984Y-86778651D01*
X117114365Y-86778651D01*
X117190556Y-86816746D01*
X117228651Y-86892937D01*
X117228651Y-86969127D01*
X116847699Y-87045318D01*
X117457222Y-86778651D02*
X117761984Y-86778651D01*
X117571508Y-86511984D02*
X117571508Y-87197699D01*
X117609603Y-87273889D01*
X117685794Y-87311984D01*
X117761984Y-87311984D01*
D11*
X100878949Y-97246508D02*
X101045615Y-97846508D01*
X101212282Y-97246508D01*
X101664663Y-97789365D02*
X101640853Y-97817937D01*
X101569425Y-97846508D01*
X101521806Y-97846508D01*
X101450377Y-97817937D01*
X101402758Y-97760794D01*
X101378949Y-97703651D01*
X101355139Y-97589365D01*
X101355139Y-97503651D01*
X101378949Y-97389365D01*
X101402758Y-97332222D01*
X101450377Y-97275080D01*
X101521806Y-97246508D01*
X101569425Y-97246508D01*
X101640853Y-97275080D01*
X101664663Y-97303651D01*
X102164663Y-97789365D02*
X102140853Y-97817937D01*
X102069425Y-97846508D01*
X102021806Y-97846508D01*
X101950377Y-97817937D01*
X101902758Y-97760794D01*
X101878949Y-97703651D01*
X101855139Y-97589365D01*
X101855139Y-97503651D01*
X101878949Y-97389365D01*
X101902758Y-97332222D01*
X101950377Y-97275080D01*
X102021806Y-97246508D01*
X102069425Y-97246508D01*
X102140853Y-97275080D01*
X102164663Y-97303651D01*
X101212282Y-99325080D02*
X101164663Y-99296508D01*
X101093234Y-99296508D01*
X101021806Y-99325080D01*
X100974187Y-99382222D01*
X100950377Y-99439365D01*
X100926568Y-99553651D01*
X100926568Y-99639365D01*
X100950377Y-99753651D01*
X100974187Y-99810794D01*
X101021806Y-99867937D01*
X101093234Y-99896508D01*
X101140853Y-99896508D01*
X101212282Y-99867937D01*
X101236091Y-99839365D01*
X101236091Y-99639365D01*
X101140853Y-99639365D01*
X101450377Y-99896508D02*
X101450377Y-99296508D01*
X101736091Y-99896508D01*
X101736091Y-99296508D01*
X101974187Y-99896508D02*
X101974187Y-99296508D01*
X102093234Y-99296508D01*
X102164663Y-99325080D01*
X102212282Y-99382222D01*
X102236091Y-99439365D01*
X102259901Y-99553651D01*
X102259901Y-99639365D01*
X102236091Y-99753651D01*
X102212282Y-99810794D01*
X102164663Y-99867937D01*
X102093234Y-99896508D01*
X101974187Y-99896508D01*
X101117044Y-101632222D02*
X101188472Y-101660794D01*
X101212282Y-101689365D01*
X101236091Y-101746508D01*
X101236091Y-101832222D01*
X101212282Y-101889365D01*
X101188472Y-101917937D01*
X101140853Y-101946508D01*
X100950377Y-101946508D01*
X100950377Y-101346508D01*
X101117044Y-101346508D01*
X101164663Y-101375080D01*
X101188472Y-101403651D01*
X101212282Y-101460794D01*
X101212282Y-101517937D01*
X101188472Y-101575080D01*
X101164663Y-101603651D01*
X101117044Y-101632222D01*
X100950377Y-101632222D01*
X101450377Y-101346508D02*
X101450377Y-101832222D01*
X101474187Y-101889365D01*
X101497996Y-101917937D01*
X101545615Y-101946508D01*
X101640853Y-101946508D01*
X101688472Y-101917937D01*
X101712282Y-101889365D01*
X101736091Y-101832222D01*
X101736091Y-101346508D01*
X101902758Y-101346508D02*
X102188472Y-101346508D01*
X102045615Y-101946508D02*
X102045615Y-101346508D01*
X100950377Y-103996508D02*
X100950377Y-103596508D01*
X100950377Y-103710794D02*
X100974187Y-103653651D01*
X100997996Y-103625080D01*
X101045615Y-103596508D01*
X101093234Y-103596508D01*
X101497996Y-103996508D02*
X101259901Y-103996508D01*
X101259901Y-103396508D01*
X101664663Y-103682222D02*
X101831330Y-103682222D01*
X101902758Y-103996508D02*
X101664663Y-103996508D01*
X101664663Y-103396508D01*
X101902758Y-103396508D01*
X102117044Y-103996508D02*
X102117044Y-103396508D01*
X102236091Y-103396508D01*
X102307520Y-103425080D01*
X102355139Y-103482222D01*
X102378949Y-103539365D01*
X102402758Y-103653651D01*
X102402758Y-103739365D01*
X102378949Y-103853651D01*
X102355139Y-103910794D01*
X102307520Y-103967937D01*
X102236091Y-103996508D01*
X102117044Y-103996508D01*
X100926568Y-106017937D02*
X100997996Y-106046508D01*
X101117044Y-106046508D01*
X101164663Y-106017937D01*
X101188472Y-105989365D01*
X101212282Y-105932222D01*
X101212282Y-105875080D01*
X101188472Y-105817937D01*
X101164663Y-105789365D01*
X101117044Y-105760794D01*
X101021806Y-105732222D01*
X100974187Y-105703651D01*
X100950377Y-105675080D01*
X100926568Y-105617937D01*
X100926568Y-105560794D01*
X100950377Y-105503651D01*
X100974187Y-105475080D01*
X101021806Y-105446508D01*
X101140853Y-105446508D01*
X101212282Y-105475080D01*
X101426568Y-105732222D02*
X101593234Y-105732222D01*
X101664663Y-106046508D02*
X101426568Y-106046508D01*
X101426568Y-105446508D01*
X101664663Y-105446508D01*
X102117044Y-106046508D02*
X101878949Y-106046508D01*
X101878949Y-105446508D01*
X101236091Y-108096508D02*
X101069425Y-107810794D01*
X100950377Y-108096508D02*
X100950377Y-107496508D01*
X101140853Y-107496508D01*
X101188472Y-107525080D01*
X101212282Y-107553651D01*
X101236091Y-107610794D01*
X101236091Y-107696508D01*
X101212282Y-107753651D01*
X101188472Y-107782222D01*
X101140853Y-107810794D01*
X100950377Y-107810794D01*
X101450377Y-107782222D02*
X101617044Y-107782222D01*
X101688472Y-108096508D02*
X101450377Y-108096508D01*
X101450377Y-107496508D01*
X101688472Y-107496508D01*
X102140853Y-108096508D02*
X101902758Y-108096508D01*
X101902758Y-107496508D01*
D12*
X106142937Y-110907222D02*
X106142937Y-110007222D01*
X106142937Y-110435794D02*
X106657222Y-110435794D01*
X106657222Y-110907222D02*
X106657222Y-110007222D01*
X107085794Y-110907222D02*
X107085794Y-110007222D01*
X107385794Y-110650080D01*
X107685794Y-110007222D01*
X107685794Y-110907222D01*
X108114365Y-110564365D02*
X108800080Y-110564365D01*
X109228651Y-110435794D02*
X109528651Y-110435794D01*
X109657222Y-110907222D02*
X109228651Y-110907222D01*
X109228651Y-110007222D01*
X109657222Y-110007222D01*
X110000080Y-110864365D02*
X110128651Y-110907222D01*
X110342937Y-110907222D01*
X110428651Y-110864365D01*
X110471508Y-110821508D01*
X110514365Y-110735794D01*
X110514365Y-110650080D01*
X110471508Y-110564365D01*
X110428651Y-110521508D01*
X110342937Y-110478651D01*
X110171508Y-110435794D01*
X110085794Y-110392937D01*
X110042937Y-110350080D01*
X110000080Y-110264365D01*
X110000080Y-110178651D01*
X110042937Y-110092937D01*
X110085794Y-110050080D01*
X110171508Y-110007222D01*
X110385794Y-110007222D01*
X110514365Y-110050080D01*
X110900080Y-110564365D02*
X111585794Y-110564365D01*
X112014365Y-110907222D02*
X112014365Y-110007222D01*
X112357222Y-110007222D01*
X112442937Y-110050080D01*
X112485794Y-110092937D01*
X112528651Y-110178651D01*
X112528651Y-110307222D01*
X112485794Y-110392937D01*
X112442937Y-110435794D01*
X112357222Y-110478651D01*
X112014365Y-110478651D01*
X112914365Y-110907222D02*
X112914365Y-110007222D01*
X113214365Y-110650080D01*
X113514365Y-110007222D01*
X113514365Y-110907222D01*
X113900080Y-110864365D02*
X114028651Y-110907222D01*
X114242937Y-110907222D01*
X114328651Y-110864365D01*
X114371508Y-110821508D01*
X114414365Y-110735794D01*
X114414365Y-110650080D01*
X114371508Y-110564365D01*
X114328651Y-110521508D01*
X114242937Y-110478651D01*
X114071508Y-110435794D01*
X113985794Y-110392937D01*
X113942937Y-110350080D01*
X113900080Y-110264365D01*
X113900080Y-110178651D01*
X113942937Y-110092937D01*
X113985794Y-110050080D01*
X114071508Y-110007222D01*
X114285794Y-110007222D01*
X114414365Y-110050080D01*
X114714365Y-110307222D02*
X114885794Y-110907222D01*
X115057222Y-110478651D01*
X115228651Y-110907222D01*
X115400080Y-110307222D01*
X116214365Y-110907222D02*
X115700080Y-110907222D01*
X115957222Y-110907222D02*
X115957222Y-110007222D01*
X115871508Y-110135794D01*
X115785794Y-110221508D01*
X115700080Y-110264365D01*
X116600080Y-110564365D02*
X117285794Y-110564365D01*
X117714365Y-110907222D02*
X117714365Y-110007222D01*
X118057222Y-110007222D01*
X118142937Y-110050080D01*
X118185794Y-110092937D01*
X118228651Y-110178651D01*
X118228651Y-110307222D01*
X118185794Y-110392937D01*
X118142937Y-110435794D01*
X118057222Y-110478651D01*
X117714365Y-110478651D01*
X118742937Y-110907222D02*
X118657222Y-110864365D01*
X118614365Y-110778651D01*
X118614365Y-110007222D01*
D13*
X102790080Y-100338828D02*
X102790080Y-100861332D01*
X104210080Y-100338828D02*
X104210080Y-100861332D01*
X112161332Y-91090080D02*
X111638828Y-91090080D01*
X112161332Y-92510080D02*
X111638828Y-92510080D01*
X108911332Y-89190080D02*
X108388828Y-89190080D01*
X108911332Y-90610080D02*
X108388828Y-90610080D01*
X113588828Y-89810080D02*
X114111332Y-89810080D01*
X113588828Y-88390080D02*
X114111332Y-88390080D01*
X104288828Y-86560080D02*
X104811332Y-86560080D01*
X104288828Y-85140080D02*
X104811332Y-85140080D01*
X117240080Y-107288828D02*
X117240080Y-107811332D01*
X118660080Y-107288828D02*
X118660080Y-107811332D01*
X108388828Y-109060080D02*
X108911332Y-109060080D01*
X108388828Y-107640080D02*
X108911332Y-107640080D01*
X104610080Y-92711332D02*
X104610080Y-92188828D01*
X103190080Y-92711332D02*
X103190080Y-92188828D01*
D10*
X116725080Y-94975080D02*
X116150080Y-94975080D01*
X116725080Y-105325080D02*
X116050080Y-105325080D01*
X106375080Y-105325080D02*
X107050080Y-105325080D01*
X106375080Y-94975080D02*
X107050080Y-94975080D01*
X116725080Y-94975080D02*
X116725080Y-95650080D01*
X106375080Y-94975080D02*
X106375080Y-95650080D01*
X106375080Y-105325080D02*
X106375080Y-104650080D01*
X116725080Y-105325080D02*
X116725080Y-104650080D01*
X116150080Y-94975080D02*
X116150080Y-93700080D01*
D13*
X110400080Y-88450080D02*
X110400080Y-86250080D01*
X110400080Y-86250080D02*
X106800080Y-86250080D01*
D10*
X103885794Y-103383413D02*
X103923889Y-103421508D01*
X103961984Y-103535794D01*
X103961984Y-103611984D01*
X103923889Y-103726270D01*
X103847699Y-103802460D01*
X103771508Y-103840556D01*
X103619127Y-103878651D01*
X103504841Y-103878651D01*
X103352460Y-103840556D01*
X103276270Y-103802460D01*
X103200080Y-103726270D01*
X103161984Y-103611984D01*
X103161984Y-103535794D01*
X103200080Y-103421508D01*
X103238175Y-103383413D01*
X103161984Y-103116746D02*
X103161984Y-102621508D01*
X103466746Y-102888175D01*
X103466746Y-102773889D01*
X103504841Y-102697699D01*
X103542937Y-102659603D01*
X103619127Y-102621508D01*
X103809603Y-102621508D01*
X103885794Y-102659603D01*
X103923889Y-102697699D01*
X103961984Y-102773889D01*
X103961984Y-103002460D01*
X103923889Y-103078651D01*
X103885794Y-103116746D01*
X114366746Y-92135794D02*
X114328651Y-92173889D01*
X114214365Y-92211984D01*
X114138175Y-92211984D01*
X114023889Y-92173889D01*
X113947699Y-92097699D01*
X113909603Y-92021508D01*
X113871508Y-91869127D01*
X113871508Y-91754841D01*
X113909603Y-91602460D01*
X113947699Y-91526270D01*
X114023889Y-91450080D01*
X114138175Y-91411984D01*
X114214365Y-91411984D01*
X114328651Y-91450080D01*
X114366746Y-91488175D01*
X114671508Y-91488175D02*
X114709603Y-91450080D01*
X114785794Y-91411984D01*
X114976270Y-91411984D01*
X115052460Y-91450080D01*
X115090556Y-91488175D01*
X115128651Y-91564365D01*
X115128651Y-91640556D01*
X115090556Y-91754841D01*
X114633413Y-92211984D01*
X115128651Y-92211984D01*
X105916746Y-90311984D02*
X105650080Y-89931032D01*
X105459603Y-90311984D02*
X105459603Y-89511984D01*
X105764365Y-89511984D01*
X105840556Y-89550080D01*
X105878651Y-89588175D01*
X105916746Y-89664365D01*
X105916746Y-89778651D01*
X105878651Y-89854841D01*
X105840556Y-89892937D01*
X105764365Y-89931032D01*
X105459603Y-89931032D01*
X106221508Y-89588175D02*
X106259603Y-89550080D01*
X106335794Y-89511984D01*
X106526270Y-89511984D01*
X106602460Y-89550080D01*
X106640556Y-89588175D01*
X106678651Y-89664365D01*
X106678651Y-89740556D01*
X106640556Y-89854841D01*
X106183413Y-90311984D01*
X106678651Y-90311984D01*
X116316746Y-89461984D02*
X116050080Y-89081032D01*
X115859603Y-89461984D02*
X115859603Y-88661984D01*
X116164365Y-88661984D01*
X116240556Y-88700080D01*
X116278651Y-88738175D01*
X116316746Y-88814365D01*
X116316746Y-88928651D01*
X116278651Y-89004841D01*
X116240556Y-89042937D01*
X116164365Y-89081032D01*
X115859603Y-89081032D01*
X117078651Y-89461984D02*
X116621508Y-89461984D01*
X116850080Y-89461984D02*
X116850080Y-88661984D01*
X116773889Y-88776270D01*
X116697699Y-88852460D01*
X116621508Y-88890556D01*
X103416746Y-87735794D02*
X103378651Y-87773889D01*
X103264365Y-87811984D01*
X103188175Y-87811984D01*
X103073889Y-87773889D01*
X102997699Y-87697699D01*
X102959603Y-87621508D01*
X102921508Y-87469127D01*
X102921508Y-87354841D01*
X102959603Y-87202460D01*
X102997699Y-87126270D01*
X103073889Y-87050080D01*
X103188175Y-87011984D01*
X103264365Y-87011984D01*
X103378651Y-87050080D01*
X103416746Y-87088175D01*
X104102460Y-87011984D02*
X103950080Y-87011984D01*
X103873889Y-87050080D01*
X103835794Y-87088175D01*
X103759603Y-87202460D01*
X103721508Y-87354841D01*
X103721508Y-87659603D01*
X103759603Y-87735794D01*
X103797699Y-87773889D01*
X103873889Y-87811984D01*
X104026270Y-87811984D01*
X104102460Y-87773889D01*
X104140556Y-87735794D01*
X104178651Y-87659603D01*
X104178651Y-87469127D01*
X104140556Y-87392937D01*
X104102460Y-87354841D01*
X104026270Y-87316746D01*
X103873889Y-87316746D01*
X103797699Y-87354841D01*
X103759603Y-87392937D01*
X103721508Y-87469127D01*
X116735794Y-108633413D02*
X116773889Y-108671508D01*
X116811984Y-108785794D01*
X116811984Y-108861984D01*
X116773889Y-108976270D01*
X116697699Y-109052460D01*
X116621508Y-109090556D01*
X116469127Y-109128651D01*
X116354841Y-109128651D01*
X116202460Y-109090556D01*
X116126270Y-109052460D01*
X116050080Y-108976270D01*
X116011984Y-108861984D01*
X116011984Y-108785794D01*
X116050080Y-108671508D01*
X116088175Y-108633413D01*
X116011984Y-107909603D02*
X116011984Y-108290556D01*
X116392937Y-108328651D01*
X116354841Y-108290556D01*
X116316746Y-108214365D01*
X116316746Y-108023889D01*
X116354841Y-107947699D01*
X116392937Y-107909603D01*
X116469127Y-107871508D01*
X116659603Y-107871508D01*
X116735794Y-107909603D01*
X116773889Y-107947699D01*
X116811984Y-108023889D01*
X116811984Y-108214365D01*
X116773889Y-108290556D01*
X116735794Y-108328651D01*
X105916746Y-108735794D02*
X105878651Y-108773889D01*
X105764365Y-108811984D01*
X105688175Y-108811984D01*
X105573889Y-108773889D01*
X105497699Y-108697699D01*
X105459603Y-108621508D01*
X105421508Y-108469127D01*
X105421508Y-108354841D01*
X105459603Y-108202460D01*
X105497699Y-108126270D01*
X105573889Y-108050080D01*
X105688175Y-108011984D01*
X105764365Y-108011984D01*
X105878651Y-108050080D01*
X105916746Y-108088175D01*
X106602460Y-108278651D02*
X106602460Y-108811984D01*
X106411984Y-107973889D02*
X106221508Y-108545318D01*
X106716746Y-108545318D01*
X104235794Y-95383413D02*
X104273889Y-95421508D01*
X104311984Y-95535794D01*
X104311984Y-95611984D01*
X104273889Y-95726270D01*
X104197699Y-95802460D01*
X104121508Y-95840556D01*
X103969127Y-95878651D01*
X103854841Y-95878651D01*
X103702460Y-95840556D01*
X103626270Y-95802460D01*
X103550080Y-95726270D01*
X103511984Y-95611984D01*
X103511984Y-95535794D01*
X103550080Y-95421508D01*
X103588175Y-95383413D01*
X104311984Y-94621508D02*
X104311984Y-95078651D01*
X104311984Y-94850080D02*
X103511984Y-94850080D01*
X103626270Y-94926270D01*
X103702460Y-95002460D01*
X103740556Y-95078651D01*
X116533175Y-93670460D02*
X116533175Y-94479984D01*
X116580794Y-94575222D01*
X116628413Y-94622841D01*
X116723651Y-94670460D01*
X116914127Y-94670460D01*
X117009365Y-94622841D01*
X117056984Y-94575222D01*
X117104603Y-94479984D01*
X117104603Y-93670460D01*
X118104603Y-94670460D02*
X117533175Y-94670460D01*
X117818889Y-94670460D02*
X117818889Y-93670460D01*
X117723651Y-93813318D01*
X117628413Y-93908556D01*
X117533175Y-93956175D01*
X108219127Y-85381032D02*
X108219127Y-85761984D01*
X107952460Y-84961984D02*
X108219127Y-85381032D01*
X108485794Y-84961984D01*
X109171508Y-85761984D02*
X108714365Y-85761984D01*
X108942937Y-85761984D02*
X108942937Y-84961984D01*
X108866746Y-85076270D01*
X108790556Y-85152460D01*
X108714365Y-85190556D01*
M02*
